# This file uses centimeters as units for non-parametric coordinates.

mtllib biggerbook.mtl
g default
v 0.049737 0.204195 0.175573
v 0.032496 0.207372 0.189179
v -0.034545 0.207372 0.189179
v -0.049737 0.204195 0.175573
v 0.049737 -0.193833 0.175573
v 0.032496 -0.190657 0.189179
v -0.034545 -0.190657 0.189179
v -0.049737 -0.193833 0.175573
v 0.049737 -0.193833 0.168017
v 0.032496 -0.193833 0.168017
v -0.034545 -0.193833 0.168017
v -0.049737 -0.193833 0.168017
v 0.049737 -0.193833 -0.144120
v 0.032496 -0.193833 -0.144120
v -0.034545 -0.193833 -0.144118
v -0.049737 -0.193833 -0.144120
v 0.049737 0.204195 -0.144120
v 0.032496 0.204195 -0.144120
v -0.034545 0.204195 -0.144118
v -0.049737 0.204195 -0.144120
v 0.049737 0.204195 0.168017
v 0.032496 0.204195 0.168017
v -0.034545 0.204195 0.168017
v -0.049737 0.204195 0.168017
v 0.045438 -0.193833 -0.189692
v 0.032496 -0.193833 -0.190534
v 0.032496 0.204195 -0.190534
v 0.045438 0.204195 -0.189692
v -0.034545 -0.193833 -0.190534
v -0.047718 -0.193833 -0.189876
v -0.047718 0.204195 -0.189876
v -0.034545 0.204195 -0.190534
v 0.049737 -0.204425 0.175573
v 0.032496 -0.201248 0.189179
v 0.032496 -0.204425 0.168017
v 0.049737 -0.204425 0.168017
v -0.034545 -0.201248 0.189179
v -0.034545 -0.204425 0.168017
v -0.049737 -0.204425 0.175573
v -0.049737 -0.204425 0.168017
v 0.032496 -0.204425 -0.144120
v 0.049737 -0.204425 -0.144120
v -0.049737 -0.204425 -0.144120
v -0.034545 -0.204425 -0.144118
v 0.032496 -0.204425 -0.190534
v 0.045438 -0.204425 -0.189692
v -0.047718 -0.204425 -0.189876
v -0.034545 -0.204425 -0.190534
v 0.049737 0.215241 -0.144120
v 0.032496 0.215241 -0.144120
v 0.032496 0.215241 0.168017
v 0.049737 0.215241 0.168017
v -0.034545 0.215241 -0.144118
v -0.049737 0.215241 -0.144120
v -0.049737 0.215241 0.168017
v -0.034545 0.215241 0.168017
v 0.032496 0.218419 0.189179
v 0.049737 0.215241 0.175573
v -0.034545 0.218419 0.189179
v -0.049737 0.215241 0.175573
v 0.045438 0.215241 -0.189692
v 0.032496 0.215241 -0.190534
v -0.034545 0.215241 -0.190534
v -0.047718 0.215241 -0.189876
v -0.001906 0.207372 0.196358
v -0.001906 0.218419 0.196358
v -0.001906 0.215241 0.181029
v -0.001906 0.204195 0.181029
v -0.001906 0.204195 -0.144120
v -0.001906 -0.193833 -0.144120
v -0.002383 -0.193833 0.176055
v -0.002383 -0.204425 0.176055
v -0.001906 -0.201248 0.196358
v -0.001906 -0.190657 0.196358
v -0.047106 -0.204425 0.171576
v -0.034545 -0.202929 0.177985
v -0.002158 -0.202929 0.185619
v 0.032496 -0.202929 0.177985
v 0.047106 -0.204425 0.171576
v 0.047106 -0.193833 0.171576
v 0.047106 0.204195 0.171576
v 0.047106 0.215241 0.171576
v 0.032496 0.216738 0.177985
v -0.001906 0.216738 0.188248
v -0.034545 0.216738 0.177985
v -0.047106 0.215241 0.171576
v -0.047106 0.204195 0.171576
v -0.047106 -0.193833 0.171576
vt 0.523831 0.068322
vt 0.544031 0.064601
vt 0.544031 0.530947
vt 0.523831 0.534669
vt 0.584337 0.530947
vt 0.584337 0.064601
vt 0.622579 0.064601
vt 0.622579 0.530947
vt 0.640378 0.068322
vt 0.640378 0.534669
vt 0.311312 0.632077
vt 0.322696 0.652276
vt 0.313331 0.652276
vt 0.307968 0.635158
vt 0.319717 0.692879
vt 0.328703 0.692583
vt 0.322696 0.730824
vt 0.313331 0.730824
vt 0.311312 0.748624
vt 0.307968 0.745542
vt 0.304991 0.632077
vt 0.304991 0.652276
vt 0.043833 0.652276
vt 0.043833 0.632077
vt 0.304991 0.730824
vt 0.304991 0.748624
vt 0.043833 0.748624
vt 0.043835 0.730824
vt 0.005000 0.652276
vt 0.005705 0.637113
vt 0.005550 0.746259
vt 0.005000 0.730824
vt 0.311716 0.693142
vt 0.503302 0.661186
vt 0.771185 0.661745
vt 0.764459 0.699427
vt 0.503303 0.699427
vt 0.764459 0.620879
vt 0.503302 0.620879
vt 0.770415 0.064067
vt 0.755252 0.064067
vt 0.755252 0.530414
vt 0.770415 0.530414
vt 0.770415 0.051657
vt 0.755252 0.051657
vt 0.755252 0.543355
vt 0.770415 0.543355
vt 0.685249 0.518004
vt 0.685249 0.051657
vt 0.647007 0.051657
vt 0.647007 0.518004
vt 0.725555 0.051657
vt 0.725555 0.518004
vt 0.748291 0.064067
vt 0.732857 0.064067
vt 0.732857 0.530414
vt 0.748291 0.530414
vt 0.748291 0.051657
vt 0.732857 0.051657
vt 0.732857 0.543355
vt 0.748291 0.543355
vt 0.618338 0.823276
vt 0.618338 0.803076
vt 0.357181 0.803076
vt 0.357181 0.823276
vt 0.618337 0.724528
vt 0.618338 0.706729
vt 0.357181 0.706729
vt 0.357181 0.724528
vt 0.354203 0.820194
vt 0.348841 0.803076
vt 0.339475 0.803076
vt 0.350859 0.823276
vt 0.333469 0.762769
vt 0.340254 0.762769
vt 0.348841 0.724528
vt 0.339475 0.724528
vt 0.354203 0.709810
vt 0.350859 0.706729
vt 0.656466 0.818239
vt 0.657171 0.803076
vt 0.657171 0.724528
vt 0.656621 0.709094
vt 0.346294 0.762769
vt 0.005000 0.793494
vt 0.277044 0.793494
vt 0.277043 0.755252
vt 0.015887 0.755252
vt 0.277044 0.833801
vt 0.015887 0.833801
vt 0.017942 0.304440
vt 0.017942 0.043283
vt 0.484288 0.043283
vt 0.484288 0.304440
vt 0.017942 0.310762
vt 0.017942 0.307418
vt 0.484288 0.307418
vt 0.484288 0.310762
vt 0.496698 0.307418
vt 0.496698 0.310762
vt 0.005000 0.310762
vt 0.005000 0.307418
vt 0.005000 0.304440
vt 0.496698 0.304440
vt 0.483756 0.586017
vt 0.483756 0.324860
vt 0.017410 0.324860
vt 0.017410 0.586017
vt 0.483756 0.321882
vt 0.483756 0.318538
vt 0.017410 0.318538
vt 0.017410 0.321882
vt 0.005000 0.318538
vt 0.005000 0.321882
vt 0.496698 0.321882
vt 0.496698 0.318538
vt 0.005000 0.324860
vt 0.496698 0.324860
vt 0.982590 0.043833
vt 0.516244 0.043833
vt 0.516244 0.005000
vt 0.982590 0.005000
vt 0.982590 0.304991
vt 0.995000 0.043833
vt 0.995000 0.304991
vt 0.995000 0.005000
vt 0.516244 0.304991
vt 0.503302 0.304991
vt 0.503302 0.043833
vt 0.503302 0.005000
vt 0.017410 0.624146
vt 0.483756 0.624146
vt 0.005000 0.586017
vt 0.005000 0.624146
vt 0.496698 0.624146
vt 0.496698 0.586017
vt 0.017942 0.005000
vt 0.484288 0.005000
vt 0.496698 0.005000
vt 0.496698 0.043283
vt 0.005000 0.043283
vt 0.005000 0.005000
vt 0.982058 0.574095
vt 0.515712 0.574095
vt 0.515712 0.612930
vt 0.982058 0.612930
vt 0.515712 0.312939
vt 0.503302 0.312939
vt 0.503302 0.574095
vt 0.503302 0.612930
vt 0.982058 0.312939
vt 0.995000 0.574095
vt 0.995000 0.312939
vt 0.995000 0.612930
vt 0.544031 0.543357
vt 0.523831 0.547078
vt 0.584337 0.543357
vt 0.622579 0.543357
vt 0.538762 0.564236
vt 0.576444 0.564236
vt 0.576444 0.551826
vt 0.538762 0.551826
vt 0.617310 0.564236
vt 0.617310 0.551826
vt 0.640378 0.547078
vt 0.523831 0.055380
vt 0.544031 0.051657
vt 0.367978 0.645019
vt 0.367978 0.632077
vt 0.329736 0.632077
vt 0.329736 0.645019
vt 0.408284 0.632077
vt 0.408284 0.645019
vt 0.584337 0.051657
vt 0.622579 0.051657
vt 0.640378 0.055380
vn 0.619523 -0.000000 0.784978
vn 0.362491 -0.000000 0.931987
vn 0.383411 -0.000000 0.923578
vn 0.619523 -0.000000 0.784978
vn -0.000000 -0.000000 1.000000
vn -0.000000 -0.000000 1.000000
vn -0.385432 -0.000000 0.922736
vn -0.410558 -0.000000 0.911835
vn -0.385432 -0.000000 0.922736
vn -0.667171 -0.000000 0.744905
vn -0.667171 -0.000000 0.744904
vn -0.410558 -0.000000 0.911835
vn 0.362491 -0.000000 0.931987
vn -0.000000 -0.000000 1.000000
vn -0.000000 -0.000000 1.000000
vn 0.383411 -0.000000 0.923578
vn -0.068907 -0.990198 0.121489
vn 0.008719 -0.989499 0.144278
vn 0.007345 -0.990070 0.140386
vn -0.052138 -0.991983 0.115116
vn 0.000088 -0.988465 0.151448
vn 0.000800 -0.988460 0.151479
vn -0.010894 -0.989243 0.145875
vn -0.008371 -0.989858 0.141814
vn -0.010894 -0.989243 0.145875
vn 0.077884 -0.989352 0.122950
vn 0.059933 -0.991438 0.116014
vn -0.008371 -0.989858 0.141814
vn -0.000141 -1.000000 0.000579
vn 0.001070 -0.999936 0.011251
vn 0.000000 -1.000000 -0.000000
vn 0.000000 -1.000000 -0.000000
vn -0.001175 -0.999933 0.011547
vn 0.000163 -1.000000 0.000575
vn 0.000000 -1.000000 -0.000000
vn 0.000000 -1.000000 -0.000000
vn 0.000000 -1.000000 -0.000000
vn 0.000000 -1.000000 -0.000000
vn 0.000000 -1.000000 -0.000000
vn 0.000000 -1.000000 -0.000000
vn 0.000000 -1.000000 -0.000000
vn 0.000000 -1.000000 -0.000000
vn 0.000000 -1.000000 -0.000000
vn 0.000000 -1.000000 -0.000000
vn 0.008719 -0.989499 0.144278
vn 0.000800 -0.988460 0.151479
vn 0.000088 -0.988465 0.151448
vn 0.007345 -0.990070 0.140386
vn -0.008371 -0.989858 0.141814
vn 0.059933 -0.991438 0.116014
vn 0.000163 -1.000000 0.000575
vn -0.001175 -0.999933 0.011547
vn -0.000571 -0.988472 0.151402
vn 0.000088 -0.988465 0.151448
vn -0.008371 -0.989858 0.141814
vn -0.001175 -0.999933 0.011547
vn 0.007345 -0.990070 0.140386
vn 0.000088 -0.988465 0.151448
vn -0.000571 -0.988472 0.151402
vn 0.001070 -0.999936 0.011251
vn -0.052138 -0.991983 0.115116
vn 0.007345 -0.990070 0.140386
vn 0.001070 -0.999936 0.011251
vn -0.000141 -1.000000 0.000579
vn 0.000000 -1.000000 -0.000000
vn 0.000000 -1.000000 -0.000000
vn 0.000000 -1.000000 -0.000000
vn 0.000000 -1.000000 -0.000000
vn 0.000000 -1.000000 -0.000000
vn 0.000000 -1.000000 -0.000000
vn 0.000000 -1.000000 -0.000000
vn 0.000000 -1.000000 -0.000000
vn 0.064958 0.000000 -0.997888
vn 0.064958 0.000000 -0.997888
vn 0.064958 0.000000 -0.997888
vn 0.064958 0.000000 -0.997888
vn 0.064958 0.000000 -0.997888
vn 0.064958 0.000000 -0.997888
vn 0.064958 0.000000 -0.997888
vn 0.064958 0.000000 -0.997888
vn 0.064958 0.000000 -0.997888
vn 0.064958 0.000000 -0.997888
vn 0.064958 0.000000 -0.997888
vn 0.064958 0.000000 -0.997888
vn -0.000022 0.000000 -1.000000
vn -0.000022 0.000000 -1.000000
vn -0.000048 0.000000 -1.000000
vn -0.000048 0.000000 -1.000000
vn 0.000000 0.000000 -1.000000
vn -0.000022 0.000000 -1.000000
vn -0.000022 0.000000 -1.000000
vn 0.000000 0.000000 -1.000000
vn -0.049874 0.000000 -0.998756
vn -0.049874 0.000000 -0.998756
vn -0.049874 0.000000 -0.998756
vn -0.049874 0.000000 -0.998756
vn -0.049874 0.000000 -0.998756
vn -0.049874 0.000000 -0.998756
vn -0.049874 0.000000 -0.998756
vn -0.049874 0.000000 -0.998756
vn -0.049874 0.000000 -0.998756
vn -0.049874 0.000000 -0.998756
vn -0.049874 0.000000 -0.998756
vn -0.049874 0.000000 -0.998756
vn -0.000000 1.000000 0.000000
vn -0.000000 1.000000 0.000000
vn -0.002105 0.999930 -0.011626
vn 0.000141 1.000000 -0.000579
vn -0.000000 1.000000 0.000000
vn -0.000000 1.000000 0.000000
vn -0.000163 1.000000 -0.000576
vn 0.002333 0.999924 -0.012123
vn 0.052181 0.991977 -0.115150
vn -0.019667 0.987783 -0.154591
vn -0.017125 0.986982 -0.159916
vn 0.068966 0.990193 -0.121499
vn -0.000119 0.985175 -0.171553
vn -0.000013 0.985172 -0.171569
vn 0.021549 0.987525 -0.155978
vn 0.019687 0.986695 -0.161388
vn 0.021549 0.987525 -0.155978
vn -0.059982 0.991431 -0.116047
vn -0.077950 0.989346 -0.122960
vn 0.019687 0.986695 -0.161388
vn -0.000000 1.000000 0.000000
vn -0.000000 1.000000 0.000000
vn -0.000000 1.000000 0.000000
vn -0.000000 1.000000 0.000000
vn -0.000000 1.000000 0.000000
vn -0.000000 1.000000 0.000000
vn -0.000000 1.000000 0.000000
vn -0.000000 1.000000 0.000000
vn -0.019667 0.987783 -0.154591
vn -0.000013 0.985172 -0.171569
vn -0.000119 0.985175 -0.171553
vn -0.017125 0.986982 -0.159916
vn 0.000141 1.000000 -0.000579
vn -0.002105 0.999930 -0.011626
vn -0.019667 0.987783 -0.154591
vn 0.052181 0.991977 -0.115150
vn -0.002105 0.999930 -0.011626
vn 0.000215 0.985168 -0.171592
vn -0.000013 0.985172 -0.171569
vn -0.019667 0.987783 -0.154591
vn 0.021549 0.987525 -0.155978
vn -0.000013 0.985172 -0.171569
vn 0.000215 0.985168 -0.171592
vn 0.002333 0.999924 -0.012123
vn 0.002333 0.999924 -0.012123
vn -0.000163 1.000000 -0.000576
vn -0.059982 0.991431 -0.116047
vn 0.021549 0.987525 -0.155978
vn -0.000000 1.000000 0.000000
vn -0.000000 1.000000 0.000000
vn -0.000000 1.000000 0.000000
vn -0.000000 1.000000 0.000000
vn -0.000000 1.000000 0.000000
vn -0.000000 1.000000 0.000000
vn -0.000000 1.000000 0.000000
vn -0.000000 1.000000 0.000000
vn -0.999965 -0.000000 0.008331
vn -1.000000 -0.000000 -0.000000
vn -1.000000 -0.000000 -0.000000
vn -0.999965 -0.000000 0.008331
vn -0.835335 0.000000 -0.549742
vn -1.000000 -0.000000 -0.000000
vn -1.000000 -0.000000 -0.000000
vn -0.835335 0.000000 -0.549742
vn -0.835335 0.000000 -0.549742
vn -1.000000 -0.000000 -0.000000
vn -1.000000 -0.000000 -0.000000
vn -0.835335 0.000000 -0.549742
vn -1.000000 -0.000000 -0.000000
vn -0.835335 0.000000 -0.549742
vn -0.835335 0.000000 -0.549742
vn -1.000000 -0.000000 -0.000000
vn -0.804224 -0.000000 0.594327
vn -1.000000 -0.000000 -0.000000
vn -1.000000 -0.000000 -0.000000
vn -0.804224 -0.000000 0.594327
vn -1.000000 -0.000000 -0.000000
vn -1.000000 -0.000000 -0.000000
vn -0.999965 -0.000000 0.008331
vn -0.999965 -0.000000 0.008331
vn -1.000000 -0.000000 -0.000000
vn -1.000000 -0.000000 -0.000000
vn -0.804224 -0.000000 0.594327
vn -0.804224 -0.000000 0.594327
vn 1.000000 0.000000 0.000000
vn 0.999965 -0.000000 0.008331
vn 0.999965 -0.000000 0.008331
vn 1.000000 0.000000 0.000000
vn 1.000000 0.000000 0.000000
vn 0.835335 0.000000 -0.549742
vn 0.835335 0.000000 -0.549742
vn 1.000000 0.000000 0.000000
vn 1.000000 0.000000 0.000000
vn 0.835335 0.000000 -0.549742
vn 0.835335 0.000000 -0.549742
vn 1.000000 0.000000 0.000000
vn 0.835335 0.000000 -0.549742
vn 1.000000 0.000000 0.000000
vn 1.000000 0.000000 0.000000
vn 0.835335 0.000000 -0.549742
vn 0.804224 -0.000000 0.594327
vn 1.000000 0.000000 0.000000
vn 1.000000 0.000000 0.000000
vn 0.804224 -0.000000 0.594327
vn 0.999965 -0.000000 0.008331
vn 1.000000 0.000000 0.000000
vn 1.000000 0.000000 0.000000
vn 0.999965 -0.000000 0.008331
vn 1.000000 0.000000 0.000000
vn 1.000000 0.000000 0.000000
vn 0.804224 -0.000000 0.594327
vn 0.804224 -0.000000 0.594327
vn -1.000000 -0.000000 -0.000000
vn -1.000000 -0.000000 -0.000000
vn -1.000000 -0.000000 -0.000000
vn -1.000000 -0.000000 -0.000000
vn -1.000000 -0.000000 -0.000000
vn -1.000000 -0.000000 -0.000000
vn -1.000000 -0.000000 -0.000000
vn -1.000000 -0.000000 -0.000000
vn -1.000000 -0.000000 -0.000000
vn -1.000000 -0.000000 -0.000000
vn -1.000000 -0.000000 -0.000000
vn -1.000000 -0.000000 -0.000000
vn -1.000000 -0.000000 -0.000000
vn -1.000000 -0.000000 -0.000000
vn -1.000000 -0.000000 -0.000000
vn -1.000000 -0.000000 -0.000000
vn -1.000000 -0.000000 -0.000000
vn -1.000000 -0.000000 -0.000000
vn -1.000000 -0.000000 -0.000000
vn -1.000000 -0.000000 -0.000000
vn 0.995580 0.000000 -0.093912
vn 0.995580 0.000000 -0.093912
vn 0.995580 0.000000 -0.093912
vn 0.995580 0.000000 -0.093912
vn 0.995580 0.000000 -0.093912
vn 0.995580 0.000000 -0.093912
vn 0.995580 0.000000 -0.093912
vn 0.995580 0.000000 -0.093912
vn 0.995580 0.000000 -0.093912
vn 0.995580 0.000000 -0.093912
vn 0.995580 0.000000 -0.093912
vn 0.995580 0.000000 -0.093912
vn -0.999028 0.000000 -0.044074
vn -0.999028 0.000000 -0.044074
vn -0.999028 0.000000 -0.044074
vn -0.999028 0.000000 -0.044074
vn -0.999028 0.000000 -0.044074
vn -0.999028 0.000000 -0.044074
vn -0.999028 0.000000 -0.044074
vn -0.999028 0.000000 -0.044074
vn -0.999028 0.000000 -0.044074
vn -0.999028 0.000000 -0.044074
vn -0.999028 0.000000 -0.044074
vn -0.999028 0.000000 -0.044074
vn 1.000000 0.000000 0.000000
vn 1.000000 0.000000 0.000000
vn 1.000000 0.000000 0.000000
vn 1.000000 0.000000 0.000000
vn 1.000000 0.000000 0.000000
vn 1.000000 0.000000 0.000000
vn 1.000000 0.000000 0.000000
vn 1.000000 0.000000 0.000000
vn 1.000000 0.000000 0.000000
vn 1.000000 0.000000 0.000000
vn 1.000000 0.000000 0.000000
vn 1.000000 0.000000 0.000000
vn 1.000000 0.000000 0.000000
vn 1.000000 0.000000 0.000000
vn 1.000000 0.000000 0.000000
vn 1.000000 0.000000 0.000000
vn 1.000000 0.000000 0.000000
vn 1.000000 0.000000 0.000000
vn 1.000000 0.000000 0.000000
vn 1.000000 0.000000 0.000000
vn 0.619523 -0.000000 0.784978
vn 0.619523 -0.000000 0.784978
vn 0.619523 -0.000000 0.784978
vn 0.619523 -0.000000 0.784978
vn -0.000000 -0.000000 1.000000
vn -0.000000 -0.000000 1.000000
vn -0.214807 -0.000000 0.976656
vn -0.214807 -0.000000 0.976656
vn 0.204272 -0.000000 0.978914
vn -0.000000 -0.000000 1.000000
vn -0.000000 -0.000000 1.000000
vn 0.204272 -0.000000 0.978914
vn 0.242472 0.000000 -0.970158
vn 0.000000 0.000000 -1.000000
vn 0.000000 0.000000 -1.000000
vn 0.242472 0.000000 -0.970158
vn 0.000000 0.000000 -1.000000
vn 0.000000 0.000000 -1.000000
vn -0.224571 0.000000 -0.974458
vn -0.224571 0.000000 -0.974458
vn -0.667171 -0.000000 0.744904
vn -0.667171 -0.000000 0.744904
vn -0.667171 -0.000000 0.744904
vn -0.667171 -0.000000 0.744904
vn 1.000000 0.000000 0.000000
vn 1.000000 0.000000 0.000000
vn 1.000000 0.000000 0.000000
vn 1.000000 0.000000 0.000000
vn -1.000000 -0.000000 -0.000000
vn -1.000000 -0.000000 -0.000000
vn -1.000000 -0.000000 -0.000000
vn -1.000000 -0.000000 -0.000000
vn 1.000000 0.000000 0.000000
vn 1.000000 0.000000 0.000000
vn 1.000000 0.000000 0.000000
vn 1.000000 0.000000 0.000000
vn -1.000000 -0.000000 -0.000000
vn -1.000000 -0.000000 -0.000000
vn -1.000000 -0.000000 -0.000000
vn -1.000000 -0.000000 -0.000000
vn 0.619523 -0.000000 0.784978
vn 0.619523 -0.000000 0.784978
vn 0.619523 -0.000000 0.784978
vn 0.619523 -0.000000 0.784978
vn 0.000000 0.000000 -1.000000
vn 0.000000 0.000000 -1.000000
vn 0.370324 0.000000 -0.928903
vn 0.370324 0.000000 -0.928903
vn -0.353780 0.000000 -0.935329
vn 0.000000 0.000000 -1.000000
vn 0.000000 0.000000 -1.000000
vn -0.353780 0.000000 -0.935329
vn -0.214807 -0.000000 0.976656
vn -0.000000 -0.000000 1.000000
vn -0.000000 -0.000000 1.000000
vn -0.214807 -0.000000 0.976656
vn -0.000000 -0.000000 1.000000
vn -0.000000 -0.000000 1.000000
vn 0.204272 -0.000000 0.978914
vn 0.204272 -0.000000 0.978914
vn -0.667171 -0.000000 0.744905
vn -0.667171 -0.000000 0.744904
vn -0.667171 -0.000000 0.744904
vn -0.667171 -0.000000 0.744904
s off
g biggerbook:pCube1
usemtl biggerbook:initialShadingGroup1
f 1/1/1 2/2/2 6/3/3 5/4/4
f 74/5/5 65/6/6 3/7/7 7/8/8
f 3/7/9 4/9/10 8/10/11 7/8/12
f 2/2/13 65/6/14 74/5/15 6/3/16
f 33/11/17 34/12/18 78/13/19 79/14/20
f 77/15/21 73/16/22 37/17/23 76/18/24
f 37/17/25 39/19/26 75/20/27 76/18/28
f 36/21/29 35/22/30 41/23/31 42/24/32
f 38/25/33 40/26/34 43/27/35 44/28/36
f 42/24/37 41/23/38 45/29/39 46/30/40
f 44/28/41 43/27/42 47/31/43 48/32/44
f 34/12/45 73/16/46 77/15/47 78/13/48
f 76/18/49 75/20/50 40/26/51 38/25/52
f 72/33/53 77/15/54 76/18/55 38/25/56
f 78/13/57 77/15/58 72/33/59 35/22/60
f 79/14/61 78/13/62 35/22/63 36/21/64
f 70/34/65 71/35/66 11/36/67 15/37/68
f 10/38/69 71/35/70 70/34/71 14/39/72
f 25/40/73 26/41/74 27/42/75 28/43/76
f 26/41/77 25/40/78 46/44/79 45/45/80
f 28/43/81 27/42/82 62/46/83 61/47/84
f 69/48/85 70/49/86 15/50/87 19/51/88
f 14/52/89 70/49/90 69/48/91 18/53/92
f 29/54/93 30/55/94 31/56/95 32/57/96
f 30/55/97 29/54/98 48/58/99 47/59/100
f 32/57/101 31/56/102 64/60/103 63/61/104
f 49/62/105 50/63/106 51/64/107 52/65/108
f 53/66/109 54/67/110 55/68/111 56/69/112
f 82/70/113 83/71/114 57/72/115 58/73/116
f 66/74/117 84/75/118 85/76/119 59/77/120
f 85/76/121 86/78/122 60/79/123 59/77/124
f 50/63/125 49/62/126 61/80/127 62/81/128
f 54/67/129 53/66/130 63/82/131 64/83/132
f 83/71/133 84/75/134 66/74/135 57/72/136
f 52/65/137 51/64/138 83/71/139 82/70/140
f 51/64/141 67/84/142 84/75/143 83/71/144
f 85/76/145 84/75/146 67/84/147 56/69/148
f 56/69/149 55/68/150 86/78/151 85/76/152
f 68/85/153 69/86/154 19/87/155 23/88/156
f 18/89/157 69/86/158 68/85/159 22/90/160
f 24/91/161 20/92/162 16/93/163 12/94/164
f 4/95/165 87/96/166 88/97/167 8/98/168
f 8/98/169 88/97/170 75/99/171 39/100/172
f 87/96/173 4/95/174 60/101/175 86/102/176
f 24/91/177 87/96/178 86/102/179 55/103/180
f 88/97/181 87/96/182 24/91/183 12/94/184
f 75/99/185 88/97/186 12/94/187 40/104/188
f 17/105/189 21/106/190 9/107/191 13/108/192
f 81/109/193 1/110/194 5/111/195 80/112/196
f 80/112/197 5/111/198 33/113/199 79/114/200
f 1/110/201 81/109/202 82/115/203 58/116/204
f 9/107/205 80/112/206 79/114/207 36/117/208
f 21/106/209 81/109/210 80/112/211 9/107/212
f 82/115/213 81/109/214 21/106/215 52/118/216
f 14/119/217 18/120/218 27/121/219 26/122/220
f 10/123/221 14/119/222 41/124/223 35/125/224
f 14/119/225 26/122/226 45/126/227 41/124/228
f 18/120/229 22/127/230 51/128/231 50/129/232
f 27/121/233 18/120/234 50/129/235 62/130/236
f 17/105/237 13/108/238 25/131/239 28/132/240
f 25/131/241 13/108/242 42/133/243 46/134/244
f 17/105/245 28/132/246 61/135/247 49/136/248
f 16/93/249 20/92/250 31/137/251 30/138/252
f 16/93/253 30/138/254 47/139/255 43/140/256
f 31/137/257 20/92/258 54/141/259 64/142/260
f 19/143/261 15/144/262 29/145/263 32/146/264
f 15/144/265 11/147/266 38/148/267 44/149/268
f 29/145/269 15/144/270 44/149/271 48/150/272
f 23/151/273 19/143/274 53/152/275 56/153/276
f 19/143/277 32/146/278 63/154/279 53/152/280
f 5/4/281 6/3/282 34/155/283 33/156/284
f 73/157/285 74/5/286 7/8/287 37/158/288
f 6/3/289 74/5/290 73/157/291 34/155/292
f 11/159/293 71/160/294 72/161/295 38/162/296
f 72/161/297 71/160/298 10/163/299 35/164/300
f 7/8/301 8/10/302 39/165/303 37/158/304
f 13/108/305 9/107/306 36/117/307 42/133/308
f 12/94/309 16/93/310 43/140/311 40/104/312
f 21/106/313 17/105/314 49/136/315 52/118/316
f 20/92/317 24/91/318 55/103/319 54/141/320
f 2/2/321 1/1/322 58/166/323 57/167/324
f 67/168/325 68/169/326 23/170/327 56/171/328
f 22/172/329 68/169/330 67/168/331 51/173/332
f 3/7/333 65/6/334 66/174/335 59/175/336
f 66/174/337 65/6/338 2/2/339 57/167/340
f 4/9/341 3/7/342 59/175/343 60/176/344
