# Wavefront Obj file
# 
# verts: 32 uv-s: 53
mtllib gem.mtl

g gem

v 0.000000 -0.353142 0.000000
v 0.285698 0.034225 -0.207572
v 0.109127 0.034225 -0.335858
v -0.109127 0.034225 -0.335858
v -0.285698 0.034225 -0.207572
v -0.353142 0.034225 0.000000
v -0.285698 0.034225 0.207572
v -0.109127 0.034225 0.335858
v 0.109127 0.034225 0.335858
v 0.285698 0.034225 0.207572
v 0.353142 0.034225 0.000000
v 0.291723 0.133242 -0.214259
v 0.122930 0.133242 -0.378338
v -0.115821 0.133242 -0.346678
v -0.321834 0.133242 -0.233826
v -0.367698 0.133242 0.000000
v -0.321834 0.133242 0.233826
v -0.115821 0.133242 0.346678
v 0.122930 0.133242 0.378338
v 0.291723 0.133242 0.214259
v 0.397809 0.133242 0.000000
v 0.249064 0.196923 -0.180956
v 0.095134 0.196923 -0.292793
v 0.000000 0.243612 0.000000
v -0.095134 0.196923 -0.292793
v -0.249064 0.196923 -0.180956
v -0.307860 0.196923 0.000000
v -0.249064 0.196923 0.180956
v -0.095134 0.196923 0.292793
v 0.095134 0.196923 0.292793
v 0.249064 0.196923 0.180956
v 0.307860 0.196923 0.000000
# 32 positions

vt 0.267908 0.217712
vt 0.199700 0.459827
vt 0.089339 0.459827
vt 0.336115 0.459827
vt 0.446477 0.459827
vt 0.995000 0.579739
vt 0.752885 0.579739
vt 0.752885 0.450001
vt 0.752885 0.709477
vt 0.560676 0.596970
vt 0.492468 0.354855
vt 0.382106 0.354855
vt 0.628883 0.354855
vt 0.739245 0.354855
vt 0.465876 0.861082
vt 0.707992 0.861082
vt 0.707992 0.731344
vt 0.707992 0.990820
vt 0.128369 0.638173
vt 0.058468 0.734383
vt 0.241472 0.793845
vt 0.058468 0.853306
vt 0.128369 0.949517
vt 0.241472 0.986266
vt 0.354575 0.949517
vt 0.424476 0.853306
vt 0.424476 0.734383
vt 0.354575 0.638173
vt 0.241472 0.601423
vt 0.191073 0.521716
vt 0.469063 0.521716
vt 0.690996 0.433591
vt 0.690996 0.725887
vt 0.359520 0.292967
vt 0.637510 0.292967
vt 0.769880 0.861082
vt 0.005000 0.717010
vt 0.095324 0.995000
vt 0.387620 0.995000
vt 0.477944 0.717010
vt 0.241472 0.545203
vt 0.340299 0.521716
vt 0.327369 0.561518
vt 0.690996 0.579739
vt 0.651194 0.579739
vt 0.458156 0.866236
vt 0.488284 0.292967
vt 0.375390 0.611509
vt 0.769880 0.727164
vt 0.743011 0.292967
vt 0.107554 0.611509
vt 0.085573 0.521716
vt 0.769880 0.995000
# 53 texture coordinates

vn 0.444103 -0.655087 -0.611256
vn 0.444103 -0.655087 -0.611256
vn 0.444103 -0.655087 -0.611256
vn 0.000000 -0.655086 -0.755554
vn 0.000000 -0.655086 -0.755554
vn 0.000000 -0.655086 -0.755554
vn -0.444103 -0.655087 -0.611256
vn -0.444103 -0.655087 -0.611256
vn -0.444103 -0.655087 -0.611256
vn -0.718575 -0.655087 -0.233478
vn -0.718575 -0.655087 -0.233478
vn -0.718575 -0.655087 -0.233478
vn -0.718575 -0.655087 0.233478
vn -0.718575 -0.655087 0.233478
vn -0.718575 -0.655087 0.233478
vn -0.444103 -0.655087 0.611256
vn -0.444103 -0.655087 0.611256
vn -0.444103 -0.655087 0.611256
vn 0.000000 -0.655086 0.755554
vn 0.000000 -0.655086 0.755554
vn 0.000000 -0.655086 0.755554
vn 0.444103 -0.655087 0.611256
vn 0.444103 -0.655087 0.611256
vn 0.444103 -0.655087 0.611256
vn 0.718575 -0.655087 0.233478
vn 0.718575 -0.655087 0.233478
vn 0.718575 -0.655087 0.233478
vn 0.718575 -0.655087 -0.233478
vn 0.718575 -0.655087 -0.233478
vn 0.718575 -0.655087 -0.233478
vn 0.092560 0.987524 -0.127397
vn 0.092560 0.987524 -0.127397
vn 0.092560 0.987524 -0.127397
vn 0.000000 0.987524 -0.157471
vn 0.000000 0.987524 -0.157471
vn 0.000000 0.987524 -0.157471
vn -0.092560 0.987524 -0.127397
vn -0.092560 0.987524 -0.127397
vn -0.092560 0.987524 -0.127397
vn -0.149764 0.987523 -0.048661
vn -0.149764 0.987523 -0.048661
vn -0.149764 0.987524 -0.048661
vn -0.149764 0.987523 0.048661
vn -0.149764 0.987523 0.048661
vn -0.149764 0.987524 0.048661
vn -0.092560 0.987524 0.127397
vn -0.092560 0.987524 0.127397
vn -0.092560 0.987524 0.127397
vn 0.000000 0.987524 0.157471
vn 0.000000 0.987524 0.157471
vn 0.000000 0.987524 0.157471
vn 0.092560 0.987524 0.127397
vn 0.092560 0.987524 0.127397
vn 0.092560 0.987524 0.127397
vn 0.149764 0.987523 0.048661
vn 0.149764 0.987523 0.048661
vn 0.149764 0.987524 0.048661
vn 0.149764 0.987523 -0.048661
vn 0.149764 0.987523 -0.048661
vn 0.149764 0.987524 -0.048661
vn 0.540171 -0.394267 -0.743484
vn 0.540171 -0.394267 -0.743484
vn 0.540171 -0.394267 -0.743484
vn 0.000000 -0.394265 -0.918997
vn 0.000000 -0.394265 -0.918997
vn 0.000000 -0.394265 -0.918997
vn -0.540172 -0.394266 -0.743484
vn -0.540172 -0.394266 -0.743484
vn -0.540172 -0.394266 -0.743484
vn -0.874017 -0.394268 -0.283984
vn -0.874017 -0.394268 -0.283984
vn -0.874017 -0.394268 -0.283984
vn -0.874017 -0.394268 0.283984
vn -0.874017 -0.394268 0.283984
vn -0.874017 -0.394268 0.283984
vn -0.540172 -0.394266 0.743484
vn -0.540172 -0.394266 0.743484
vn -0.540172 -0.394266 0.743484
vn 0.000000 -0.394265 0.918997
vn 0.000000 -0.394265 0.918997
vn 0.000000 -0.394265 0.918997
vn 0.540171 -0.394267 0.743484
vn 0.540171 -0.394267 0.743484
vn 0.540171 -0.394267 0.743484
vn 0.874015 -0.394272 0.283984
vn 0.874015 -0.394272 0.283984
vn 0.874015 -0.394272 0.283984
vn 0.874015 -0.394272 -0.283984
vn 0.874015 -0.394272 -0.283984
vn 0.874015 -0.394272 -0.283984
vn 0.350983 0.802146 -0.483086
vn 0.350983 0.802146 -0.483086
vn 0.350983 0.802146 -0.483086
vn 0.000000 0.802145 -0.597129
vn 0.000000 0.802145 -0.597129
vn 0.000000 0.802145 -0.597129
vn -0.350982 0.802148 -0.483084
vn -0.350982 0.802148 -0.483084
vn -0.350982 0.802148 -0.483084
vn -0.567899 0.802149 -0.184521
vn -0.567899 0.802149 -0.184521
vn -0.567899 0.802149 -0.184521
vn -0.567899 0.802149 0.184521
vn -0.567899 0.802149 0.184521
vn -0.567899 0.802149 0.184521
vn -0.350982 0.802148 0.483084
vn -0.350982 0.802148 0.483084
vn -0.350982 0.802148 0.483084
vn 0.000000 0.802145 0.597129
vn 0.000000 0.802145 0.597129
vn 0.000000 0.802145 0.597129
vn 0.350983 0.802146 0.483086
vn 0.350983 0.802146 0.483086
vn 0.350983 0.802146 0.483086
vn 0.567897 0.802150 0.184520
vn 0.567897 0.802150 0.184520
vn 0.567897 0.802150 0.184520
vn 0.567897 0.802150 -0.184520
vn 0.567897 0.802150 -0.184520
vn 0.567897 0.802150 -0.184520
vn -0.098611 0.661275 -0.743634
vn -0.098611 0.661275 -0.743634
vn -0.098611 0.661275 -0.743634
vn -0.357423 0.668220 -0.652481
vn -0.357423 0.668220 -0.652481
vn -0.357423 0.668220 -0.652481
vn -0.476523 -0.127273 -0.869901
vn -0.476523 -0.127273 -0.869901
vn -0.476523 -0.127273 -0.869901
vn -0.130562 -0.116416 -0.984582
vn -0.130562 -0.116416 -0.984582
vn -0.130562 -0.116416 -0.984582
vn -0.721421 0.677885 -0.141504
vn -0.721421 0.677885 -0.141504
vn -0.721421 0.677885 -0.141504
vn -0.721421 0.677885 0.141504
vn -0.721421 0.677885 0.141504
vn -0.721421 0.677885 0.141504
vn -0.971248 -0.142778 0.190506
vn -0.971248 -0.142778 0.190506
vn -0.971248 -0.142778 0.190506
vn -0.971248 -0.142778 -0.190506
vn -0.971248 -0.142778 -0.190506
vn -0.971248 -0.142778 -0.190506
vn -0.357423 0.668220 0.652481
vn -0.357423 0.668220 0.652481
vn -0.357423 0.668220 0.652481
vn -0.098611 0.661275 0.743634
vn -0.098611 0.661275 0.743634
vn -0.098611 0.661275 0.743634
vn -0.130562 -0.116416 0.984582
vn -0.130562 -0.116416 0.984582
vn -0.130562 -0.116416 0.984582
vn -0.476523 -0.127273 0.869901
vn -0.476523 -0.127273 0.869901
vn -0.476523 -0.127273 0.869901
vn 0.533210 0.644052 0.548529
vn 0.533210 0.644052 0.548529
vn 0.533210 0.644052 0.548529
vn 0.688777 0.639751 0.341034
vn 0.688777 0.639751 0.341034
vn 0.688777 0.639751 0.341034
vn 0.892984 -0.084196 0.442143
vn 0.892984 -0.084196 0.442143
vn 0.892984 -0.084196 0.442143
vn 0.694165 -0.090465 0.714109
vn 0.694165 -0.090465 0.714109
vn 0.694165 -0.090465 0.714109
vn 0.688777 0.639751 -0.341034
vn 0.688777 0.639751 -0.341034
vn 0.688777 0.639751 -0.341034
vn 0.533210 0.644052 -0.548529
vn 0.533210 0.644052 -0.548529
vn 0.533210 0.644052 -0.548529
vn 0.694165 -0.090465 -0.714109
vn 0.694165 -0.090465 -0.714109
vn 0.694165 -0.090465 -0.714109
vn 0.892984 -0.084196 -0.442143
vn 0.892984 -0.084196 -0.442143
vn 0.892984 -0.084196 -0.442143
# 180 normals

usemtl initialShadingGroup
s 1
f 1/1/1 3/2/2 2/3/3
s 2
f 1/1/4 4/4/5 3/2/6
s 3
f 1/1/7 5/5/8 4/4/9
s 4
f 1/6/10 6/7/11 5/8/12
s 5
f 1/6/13 7/9/14 6/7/15
s 6
f 1/10/16 8/11/17 7/12/18
s 7
f 1/10/19 9/13/20 8/11/21
s 8
f 1/10/22 10/14/23 9/13/24
s 9
f 1/15/25 11/16/26 10/17/27
s 10
f 1/15/28 2/18/29 11/16/30
s 11
f 22/19/31 23/20/32 24/21/33
s 12
f 23/20/34 25/22/35 24/21/36
s 13
f 25/22/37 26/23/38 24/21/39
s 14
f 26/23/40 27/24/41 24/21/42
s 15
f 27/24/43 28/25/44 24/21/45
s 16
f 28/25/46 29/26/47 24/21/48
s 17
f 29/26/49 30/27/50 24/21/51
s 18
f 30/27/52 31/28/53 24/21/54
s 19
f 31/28/55 32/29/56 24/21/57
s 20
f 32/29/58 22/19/59 24/21/60
s 21
f 2/3/61 3/2/62 13/30/63
s 22
f 3/2/64 4/4/65 13/30/66
s 23
f 4/4/67 5/5/68 15/31/69
s 24
f 5/8/70 6/7/71 15/32/72
s 25
f 6/7/73 7/9/74 17/33/75
s 26
f 7/12/76 8/11/77 17/34/78
s 27
f 8/11/79 9/13/80 19/35/81
s 28
f 9/13/82 10/14/83 19/35/84
s 29
f 10/17/85 11/16/86 21/36/87
s 30
f 11/16/88 2/18/89 21/36/90
s 31
f 22/19/91 13/37/92 23/20/93
s 32
f 13/37/94 25/22/95 23/20/96
s 33
f 25/22/97 15/38/98 26/23/99
s 34
f 15/38/100 27/24/101 26/23/102
s 35
f 27/24/103 17/39/104 28/25/105
s 36
f 17/39/106 29/26/107 28/25/108
s 37
f 29/26/109 19/40/110 30/27/111
s 38
f 19/40/112 31/28/113 30/27/114
s 39
f 31/28/115 21/41/116 32/29/117
s 40
f 21/41/118 22/19/119 32/29/120
s 41
f 13/30/121 14/42/122 25/43/123
s 42
f 14/42/124 15/31/125 25/43/126
s 43
f 4/4/127 15/31/128 14/42/129
s 44
f 13/30/130 4/4/131 14/42/132
s 45
f 15/32/133 16/44/134 27/45/135
s 46
f 16/44/136 17/33/137 27/45/138
s 47
f 6/7/139 17/33/140 16/44/141
s 48
f 15/32/142 6/7/143 16/44/144
s 49
f 17/39/145 18/46/146 29/26/147
s 50
f 18/46/148 19/40/149 29/26/150
s 51
f 8/11/151 19/35/152 18/47/153
s 52
f 17/34/154 8/11/155 18/47/156
s 53
f 19/40/157 20/48/158 31/28/159
s 54
f 20/48/160 21/41/161 31/28/162
s 55
f 10/17/163 21/36/164 20/49/165
s 56
f 19/35/166 10/14/167 20/50/168
s 57
f 21/41/169 12/51/170 22/19/171
s 58
f 12/51/172 13/37/173 22/19/174
s 59
f 2/3/175 13/30/176 12/52/177
s 60
f 21/36/178 2/18/179 12/53/180

# 60 faces
