# Wavefront Obj file
# 
# verts: 36 uv-s: 102
mtllib LightSwitch.mtl

g pPlane1

v -3.656049 0.108567 6.298365
v 3.656049 0.108567 6.298365
v -3.656049 0.108567 -6.298365
v 3.656049 0.108567 -6.298365
v -3.656049 0.502035 6.298365
v -3.262661 0.895424 5.904976
v 3.262661 0.895424 5.904976
v 3.656049 0.502035 6.298365
v 3.262661 0.895424 -5.904976
v 3.656049 0.502035 -6.298365
v -3.262661 0.895424 -5.904976
v -3.656049 0.502035 -6.298365
v 0.410809 0.895424 1.788224
v -0.410809 0.895424 1.788224
v 0.410809 0.895424 -1.788224
v -0.410809 0.895424 -1.788224
v 0.389018 0.895424 -0.379152
v -0.389018 0.895424 -0.379152
v 0.389018 0.895424 -1.609457
v -0.389018 0.895424 -1.609457
v 0.389018 3.334287 -1.490936
v -0.389018 3.334287 -1.490936
v 0.389018 2.916457 -2.424288
v -0.389018 2.916457 -2.424288
v 0.503228 0.895424 1.999841
v 0.503228 0.895424 -1.999841
v -0.503228 0.895424 -1.999841
v -0.503228 0.895424 1.999841
v -0.503228 1.033070 1.999841
v 0.503228 1.033070 1.999841
v 0.410809 1.033070 1.788224
v -0.410809 1.033070 1.788224
v 0.503228 1.033070 -1.999841
v 0.410809 1.033070 -1.788224
v -0.503228 1.033070 -1.999841
v -0.410809 1.033070 -1.788224
# 36 positions

vt 0.005000 0.429995
vt 0.737150 0.429995
vt 0.737150 0.005000
vt 0.005000 0.005000
vt 0.822153 0.005000
vt 0.799288 0.027865
vt 0.799288 0.714285
vt 0.822153 0.737150
vt 0.461701 0.873081
vt 0.438837 0.850216
vt 0.863832 0.850216
vt 0.840967 0.873081
vt 0.791062 0.714285
vt 0.768197 0.737150
vt 0.768197 0.005000
vt 0.791062 0.027865
vt 0.027865 0.827347
vt 0.005000 0.850212
vt 0.429995 0.850212
vt 0.407131 0.827347
vt 0.700002 0.745328
vt 0.700002 0.790549
vt 0.759438 0.790549
vt 0.759438 0.745328
vt 0.438837 0.827347
vt 0.863832 0.827347
vt 0.745328 0.737150
vt 0.745328 0.005000
vt 0.005000 0.873081
vt 0.429995 0.873081
vt 0.845022 0.737150
vt 0.845022 0.005000
vt 0.237470 0.881307
vt 0.237470 0.939804
vt 0.225171 0.934433
vt 0.225171 0.886678
vt 0.005000 0.939804
vt 0.017300 0.934433
vt 0.005000 0.881307
vt 0.017300 0.886678
vt 0.454611 0.881307
vt 0.454611 0.929061
vt 0.328638 0.927795
vt 0.328638 0.882573
vt 0.246740 0.929061
vt 0.257130 0.927795
vt 0.246740 0.881307
vt 0.257130 0.882573
vt 0.264019 0.927795
vt 0.264019 0.882573
vt 0.853248 0.581447
vt 0.853248 0.509939
vt 0.970715 0.462579
vt 0.995000 0.516827
vt 0.912992 0.790549
vt 0.912992 0.745328
vt 0.786338 0.745328
vt 0.786338 0.790549
vt 0.988525 0.888063
vt 0.988525 0.816555
vt 0.846773 0.881174
vt 0.871058 0.935423
vt 0.691421 0.818103
vt 0.005000 0.818103
vt 0.231975 0.657718
vt 0.464446 0.657718
vt 0.005000 0.438837
vt 0.231975 0.599221
vt 0.691421 0.438837
vt 0.464446 0.599221
vt 0.725269 0.713173
vt 0.725269 0.654676
vt 0.717269 0.654676
vt 0.717269 0.713173
vt 0.861248 0.637678
vt 0.861248 0.589924
vt 0.853248 0.589924
vt 0.853248 0.637678
vt 0.700002 0.671307
vt 0.700002 0.438837
vt 0.708002 0.438837
vt 0.708002 0.671307
vt 0.725269 0.646708
vt 0.725269 0.438837
vt 0.717269 0.438837
vt 0.717269 0.646708
vt 0.777071 0.803826
vt 0.777071 0.745328
vt 0.769071 0.745328
vt 0.769071 0.803826
vt 0.708002 0.728331
vt 0.708002 0.680576
vt 0.700002 0.680576
vt 0.700002 0.728331
vt 0.861248 0.237470
vt 0.861248 0.005000
vt 0.853248 0.005000
vt 0.853248 0.237470
vt 0.853248 0.454611
vt 0.853248 0.246740
vt 0.861248 0.246740
vt 0.861248 0.454611
# 102 texture coordinates

vn 0.000000 -1.000000 0.000000
vn 0.000000 -1.000000 0.000000
vn 0.000000 -1.000000 0.000000
vn 0.000000 -1.000000 0.000000
vn -0.707108 0.707106 0.000000
vn -0.707108 0.707106 0.000000
vn -0.707108 0.707106 0.000000
vn -0.707108 0.707106 0.000000
vn 0.000000 0.707106 0.707107
vn 0.000000 0.707106 0.707107
vn 0.000000 0.707106 0.707107
vn 0.000000 0.707106 0.707107
vn 0.707108 0.707106 0.000000
vn 0.707108 0.707106 0.000000
vn 0.707108 0.707106 0.000000
vn 0.707108 0.707106 0.000000
vn 0.000000 0.707106 -0.707107
vn 0.000000 0.707106 -0.707107
vn 0.000000 0.707106 -0.707107
vn 0.000000 0.707106 -0.707107
vn 0.000000 0.912717 -0.408593
vn 0.000000 0.912717 -0.408593
vn 0.000000 0.912717 -0.408593
vn 0.000000 0.912717 -0.408593
vn 0.000000 0.000000 1.000000
vn 0.000000 0.000000 1.000000
vn 0.000000 0.000000 1.000000
vn 0.000000 0.000000 1.000000
vn 1.000000 0.000000 0.000000
vn 1.000000 0.000000 0.000000
vn 1.000000 0.000000 0.000000
vn 1.000000 0.000000 0.000000
vn 0.000000 0.000000 -1.000000
vn 0.000000 0.000000 -1.000000
vn 0.000000 0.000000 -1.000000
vn 0.000000 0.000000 -1.000000
vn -1.000000 0.000000 0.000000
vn -1.000000 0.000000 0.000000
vn -1.000000 0.000000 0.000000
vn -1.000000 0.000000 0.000000
vn 0.000000 1.000000 0.000000
vn 0.000000 1.000000 0.000000
vn 0.000000 1.000000 0.000000
vn 0.000000 1.000000 0.000000
vn 0.000000 1.000000 0.000000
vn 0.000000 1.000000 0.000000
vn 0.000000 1.000000 0.000000
vn 0.000000 1.000000 0.000000
vn 0.000000 1.000000 0.000000
vn 0.000000 1.000000 0.000000
vn 0.000000 1.000000 0.000000
vn 0.000000 1.000000 0.000000
vn 0.000000 1.000000 0.000000
vn 0.000000 1.000000 0.000000
vn 0.000000 1.000000 0.000000
vn 0.000000 1.000000 0.000000
vn 0.000000 0.414795 0.909915
vn 0.000000 0.414795 0.909915
vn 0.000000 0.414795 0.909915
vn 0.000000 0.414795 0.909915
vn 1.000000 0.000000 0.000000
vn 1.000000 0.000000 0.000000
vn 1.000000 0.000000 0.000000
vn 1.000000 0.000000 0.000000
vn 0.000000 -0.373928 -0.927458
vn 0.000000 -0.373928 -0.927458
vn 0.000000 -0.373928 -0.927458
vn 0.000000 -0.373928 -0.927458
vn -1.000000 0.000000 0.000000
vn -1.000000 0.000000 0.000000
vn -1.000000 0.000000 0.000000
vn -1.000000 0.000000 0.000000
vn 0.000000 1.000000 0.000000
vn 0.000000 1.000000 0.000000
vn 0.000000 1.000000 0.000000
vn 0.000000 1.000000 0.000000
vn 0.000000 1.000000 0.000000
vn 0.000000 1.000000 0.000000
vn 0.000000 1.000000 0.000000
vn 0.000000 1.000000 0.000000
vn 0.000000 0.000000 1.000000
vn 0.000000 0.000000 1.000000
vn 0.000000 0.000000 1.000000
vn 0.000000 0.000000 1.000000
vn 0.000000 0.000000 -1.000000
vn 0.000000 0.000000 -1.000000
vn 0.000000 0.000000 -1.000000
vn 0.000000 0.000000 -1.000000
vn 1.000000 0.000000 0.000000
vn 1.000000 0.000000 0.000000
vn 1.000000 0.000000 0.000000
vn 1.000000 0.000000 0.000000
vn -1.000000 0.000000 0.000000
vn -1.000000 0.000000 0.000000
vn -1.000000 0.000000 0.000000
vn -1.000000 0.000000 0.000000
vn 0.000000 0.000000 -1.000000
vn 0.000000 0.000000 -1.000000
vn 0.000000 0.000000 -1.000000
vn 0.000000 0.000000 -1.000000
vn 0.000000 0.000000 1.000000
vn 0.000000 0.000000 1.000000
vn 0.000000 0.000000 1.000000
vn 0.000000 0.000000 1.000000
vn -1.000000 0.000000 0.000000
vn -1.000000 0.000000 0.000000
vn -1.000000 0.000000 0.000000
vn -1.000000 0.000000 0.000000
vn 1.000000 0.000000 0.000000
vn 1.000000 0.000000 0.000000
vn 1.000000 0.000000 0.000000
vn 1.000000 0.000000 0.000000
# 112 normals

usemtl initialShadingGroup
s 1
f 1/1/1 3/2/2 4/3/3 2/4/4
s 2
f 5/5/5 6/6/6 11/7/7 12/8/8
s 3
f 6/9/9 5/10/10 8/11/11 7/12/12
s 4
f 7/13/13 8/14/14 10/15/15 9/16/16
s 5
f 9/17/17 10/18/18 12/19/19 11/20/20
s 6
f 22/21/21 21/22/22 23/23/23 24/24/24
s 7
f 1/25/25 2/26/26 8/11/27 5/10/28
s 8
f 2/27/29 4/28/30 10/15/31 8/14/32
s 9
f 4/29/33 3/30/34 12/19/35 10/18/36
s 10
f 3/31/37 1/32/38 5/5/39 12/8/40
s 11
f 29/33/41 30/34/42 31/35/43 32/36/44
f 30/34/42 33/37/45 34/38/46 31/35/43
f 33/37/45 35/39/47 36/40/48 34/38/46
f 35/39/47 29/33/41 32/36/44 36/40/48
s 12
f 14/41/49 13/42/50 17/43/51 18/44/52
f 13/42/50 15/45/53 19/46/54 17/43/51
f 15/45/53 16/47/55 20/48/56 19/46/54
f 16/47/55 14/41/49 18/44/52 20/48/56
s 13
f 18/44/57 17/43/58 21/49/59 22/50/60
s 14
f 17/51/61 19/52/62 23/53/63 21/54/64
s 15
f 19/55/65 20/56/66 24/57/67 23/58/68
s 16
f 20/59/69 18/60/70 22/61/71 24/62/72
s 17
f 7/63/73 9/64/74 26/65/75 25/66/76
f 9/64/74 11/67/77 27/68/78 26/65/75
f 11/67/77 6/69/79 28/70/80 27/68/78
f 6/69/79 7/63/73 25/66/76 28/70/80
s 18
f 28/71/81 25/72/82 30/73/83 29/74/84
s 19
f 13/75/85 14/76/86 32/77/87 31/78/88
s 20
f 25/79/89 26/80/90 33/81/91 30/82/92
s 21
f 15/83/93 13/84/94 31/85/95 34/86/96
s 22
f 26/87/97 27/88/98 35/89/99 33/90/100
s 23
f 16/91/101 15/92/102 34/93/103 36/94/104
s 24
f 27/95/105 28/96/106 29/97/107 35/98/108
s 25
f 14/99/109 16/100/110 36/101/111 32/102/112

# 34 faces
