# This file uses centimeters as units for non-parametric coordinates.

mtllib LightSwitch.mtl
g default
v -0.047143 -0.081214 0.001400
v 0.047143 -0.081214 0.001400
v -0.047143 0.081214 0.001400
v 0.047143 0.081214 0.001400
v -0.047143 -0.081214 0.006473
v -0.042070 -0.076142 0.011546
v 0.042070 -0.076142 0.011546
v 0.047143 -0.081214 0.006473
v 0.042070 0.076142 0.011546
v 0.047143 0.081214 0.006473
v -0.042070 0.076142 0.011546
v -0.047143 0.081214 0.006473
v 0.005297 -0.023058 0.011546
v -0.005297 -0.023058 0.011546
v 0.005297 0.023058 0.011546
v -0.005297 0.023058 0.011546
v 0.005016 0.004889 0.011546
v -0.005016 0.004889 0.011546
v 0.005016 0.020753 0.011546
v -0.005016 0.020753 0.011546
v 0.005016 0.019225 0.042994
v -0.005016 0.019225 0.042994
v 0.005016 0.031260 0.037606
v -0.005016 0.031260 0.037606
v 0.006489 -0.025787 0.011546
v 0.006489 0.025787 0.011546
v -0.006489 0.025787 0.011546
v -0.006489 -0.025787 0.011546
v -0.006489 -0.025787 0.013321
v 0.006489 -0.025787 0.013321
v 0.005297 -0.023058 0.013321
v -0.005297 -0.023058 0.013321
v 0.006489 0.025787 0.013321
v 0.005297 0.023058 0.013321
v -0.006489 0.025787 0.013321
v -0.005297 0.023058 0.013321
vt 0.005000 0.429995
vt 0.737150 0.429995
vt 0.737150 0.005000
vt 0.005000 0.005000
vt 0.822153 0.005000
vt 0.799288 0.027865
vt 0.799288 0.714285
vt 0.822153 0.737150
vt 0.461701 0.873081
vt 0.438837 0.850216
vt 0.863832 0.850216
vt 0.840967 0.873081
vt 0.791062 0.714285
vt 0.768197 0.737150
vt 0.768197 0.005000
vt 0.791062 0.027865
vt 0.027865 0.827347
vt 0.005000 0.850212
vt 0.429995 0.850212
vt 0.407131 0.827347
vt 0.700002 0.745328
vt 0.700002 0.790549
vt 0.759438 0.790549
vt 0.759438 0.745328
vt 0.438837 0.827347
vt 0.863832 0.827347
vt 0.745328 0.737150
vt 0.745328 0.005000
vt 0.005000 0.873081
vt 0.429995 0.873081
vt 0.845022 0.737150
vt 0.845022 0.005000
vt 0.237470 0.881307
vt 0.237470 0.939804
vt 0.225171 0.934433
vt 0.225171 0.886678
vt 0.005000 0.939804
vt 0.017300 0.934433
vt 0.005000 0.881307
vt 0.017300 0.886678
vt 0.454611 0.881307
vt 0.454611 0.929061
vt 0.328638 0.927795
vt 0.328638 0.882573
vt 0.246740 0.929061
vt 0.257130 0.927795
vt 0.246740 0.881307
vt 0.257130 0.882573
vt 0.264019 0.927795
vt 0.264019 0.882573
vt 0.853248 0.581447
vt 0.853248 0.509939
vt 0.970715 0.462579
vt 0.995000 0.516827
vt 0.912992 0.790549
vt 0.912992 0.745328
vt 0.786338 0.745328
vt 0.786338 0.790549
vt 0.988525 0.888063
vt 0.988525 0.816555
vt 0.846773 0.881174
vt 0.871058 0.935423
vt 0.691421 0.818103
vt 0.005000 0.818103
vt 0.231975 0.657718
vt 0.464446 0.657718
vt 0.005000 0.438837
vt 0.231975 0.599221
vt 0.691421 0.438837
vt 0.464446 0.599221
vt 0.725269 0.713173
vt 0.725269 0.654676
vt 0.717269 0.654676
vt 0.717269 0.713173
vt 0.861248 0.637678
vt 0.861248 0.589924
vt 0.853248 0.589924
vt 0.853248 0.637678
vt 0.700002 0.671307
vt 0.700002 0.438837
vt 0.708002 0.438837
vt 0.708002 0.671307
vt 0.725269 0.646708
vt 0.725269 0.438837
vt 0.717269 0.438837
vt 0.717269 0.646708
vt 0.777071 0.803826
vt 0.777071 0.745328
vt 0.769071 0.745328
vt 0.769071 0.803826
vt 0.708002 0.728331
vt 0.708002 0.680576
vt 0.700002 0.680576
vt 0.700002 0.728331
vt 0.861248 0.237470
vt 0.861248 0.005000
vt 0.853248 0.005000
vt 0.853248 0.237470
vt 0.853248 0.454611
vt 0.853248 0.246740
vt 0.861248 0.246740
vt 0.861248 0.454611
vn 0.000000 0.000000 -1.000000
vn 0.000000 0.000000 -1.000000
vn 0.000000 0.000000 -1.000000
vn 0.000000 0.000000 -1.000000
vn -0.707108 0.000000 0.707106
vn -0.707108 0.000000 0.707106
vn -0.707108 0.000000 0.707106
vn -0.707108 0.000000 0.707106
vn 0.000000 -0.707107 0.707106
vn 0.000000 -0.707107 0.707106
vn 0.000000 -0.707107 0.707106
vn 0.000000 -0.707107 0.707106
vn 0.707108 0.000000 0.707106
vn 0.707108 0.000000 0.707106
vn 0.707108 0.000000 0.707106
vn 0.707108 0.000000 0.707106
vn 0.000000 0.707107 0.707106
vn 0.000000 0.707107 0.707106
vn 0.000000 0.707107 0.707106
vn 0.000000 0.707107 0.707106
vn 0.000000 0.408593 0.912717
vn 0.000000 0.408593 0.912717
vn 0.000000 0.408593 0.912717
vn 0.000000 0.408593 0.912717
vn 0.000000 -1.000000 0.000000
vn 0.000000 -1.000000 0.000000
vn 0.000000 -1.000000 0.000000
vn 0.000000 -1.000000 0.000000
vn 1.000000 0.000000 0.000000
vn 1.000000 0.000000 0.000000
vn 1.000000 0.000000 0.000000
vn 1.000000 0.000000 0.000000
vn 0.000000 1.000000 0.000000
vn 0.000000 1.000000 0.000000
vn 0.000000 1.000000 0.000000
vn 0.000000 1.000000 0.000000
vn -1.000000 0.000000 0.000000
vn -1.000000 0.000000 0.000000
vn -1.000000 0.000000 0.000000
vn -1.000000 0.000000 0.000000
vn 0.000000 0.000000 1.000000
vn 0.000000 0.000000 1.000000
vn 0.000000 0.000000 1.000000
vn 0.000000 0.000000 1.000000
vn 0.000000 0.000000 1.000000
vn 0.000000 0.000000 1.000000
vn 0.000000 0.000000 1.000000
vn 0.000000 0.000000 1.000000
vn 0.000000 0.000000 1.000000
vn 0.000000 0.000000 1.000000
vn 0.000000 0.000000 1.000000
vn 0.000000 0.000000 1.000000
vn 0.000000 0.000000 1.000000
vn 0.000000 0.000000 1.000000
vn 0.000000 0.000000 1.000000
vn 0.000000 0.000000 1.000000
vn 0.000000 0.000000 1.000000
vn 0.000000 0.000000 1.000000
vn 0.000000 0.000000 1.000000
vn 0.000000 0.000000 1.000000
vn 0.000000 0.000000 1.000000
vn 0.000000 0.000000 1.000000
vn 0.000000 0.000000 1.000000
vn 0.000000 0.000000 1.000000
vn 0.000000 0.000000 1.000000
vn 0.000000 0.000000 1.000000
vn 0.000000 0.000000 1.000000
vn 0.000000 0.000000 1.000000
vn 0.000000 0.000000 1.000000
vn 0.000000 0.000000 1.000000
vn 0.000000 0.000000 1.000000
vn 0.000000 0.000000 1.000000
vn 0.000000 -0.909915 0.414795
vn 0.000000 -0.909915 0.414795
vn 0.000000 -0.909915 0.414795
vn 0.000000 -0.909915 0.414795
vn 1.000000 0.000000 0.000000
vn 1.000000 0.000000 0.000000
vn 1.000000 0.000000 0.000000
vn 1.000000 0.000000 0.000000
vn 0.000000 0.927458 -0.373928
vn 0.000000 0.927458 -0.373928
vn 0.000000 0.927458 -0.373928
vn 0.000000 0.927458 -0.373928
vn -1.000000 0.000000 0.000000
vn -1.000000 0.000000 0.000000
vn -1.000000 0.000000 0.000000
vn -1.000000 0.000000 0.000000
vn 0.000000 0.000000 1.000000
vn 0.000000 0.000000 1.000000
vn 0.000000 0.000000 1.000000
vn 0.000000 0.000000 1.000000
vn 0.000000 0.000000 1.000000
vn 0.000000 0.000000 1.000000
vn 0.000000 0.000000 1.000000
vn 0.000000 0.000000 1.000000
vn 0.000000 0.000000 1.000000
vn 0.000000 0.000000 1.000000
vn 0.000000 0.000000 1.000000
vn 0.000000 0.000000 1.000000
vn 0.000000 0.000000 1.000000
vn 0.000000 0.000000 1.000000
vn 0.000000 0.000000 1.000000
vn 0.000000 0.000000 1.000000
vn 0.000000 -1.000000 0.000000
vn 0.000000 -1.000000 0.000000
vn 0.000000 -1.000000 0.000000
vn 0.000000 -1.000000 0.000000
vn 0.000000 1.000000 0.000000
vn 0.000000 1.000000 0.000000
vn 0.000000 1.000000 0.000000
vn 0.000000 1.000000 0.000000
vn 1.000000 0.000000 0.000000
vn 1.000000 0.000000 0.000000
vn 1.000000 0.000000 0.000000
vn 1.000000 0.000000 0.000000
vn -1.000000 0.000000 0.000000
vn -1.000000 0.000000 0.000000
vn -1.000000 0.000000 0.000000
vn -1.000000 0.000000 0.000000
vn 0.000000 1.000000 0.000000
vn 0.000000 1.000000 0.000000
vn 0.000000 1.000000 0.000000
vn 0.000000 1.000000 0.000000
vn 0.000000 -1.000000 0.000000
vn 0.000000 -1.000000 0.000000
vn 0.000000 -1.000000 0.000000
vn 0.000000 -1.000000 0.000000
vn -1.000000 0.000000 0.000000
vn -1.000000 0.000000 0.000000
vn -1.000000 0.000000 0.000000
vn -1.000000 0.000000 0.000000
vn 1.000000 0.000000 0.000000
vn 1.000000 0.000000 0.000000
vn 1.000000 0.000000 0.000000
vn 1.000000 0.000000 0.000000
s off
g LightSwitch1:pPlane1
usemtl LightSwitch1:initialShadingGroup
f 1/1/1 3/2/2 4/3/3 2/4/4
f 5/5/5 6/6/6 11/7/7 12/8/8
f 6/9/9 5/10/10 8/11/11 7/12/12
f 7/13/13 8/14/14 10/15/15 9/16/16
f 9/17/17 10/18/18 12/19/19 11/20/20
f 22/21/21 21/22/22 23/23/23 24/24/24
f 1/25/25 2/26/26 8/11/27 5/10/28
f 2/27/29 4/28/30 10/15/31 8/14/32
f 4/29/33 3/30/34 12/19/35 10/18/36
f 3/31/37 1/32/38 5/5/39 12/8/40
f 29/33/41 30/34/42 31/35/43 32/36/44
f 30/34/45 33/37/46 34/38/47 31/35/48
f 33/37/49 35/39/50 36/40/51 34/38/52
f 35/39/53 29/33/54 32/36/55 36/40/56
f 14/41/57 13/42/58 17/43/59 18/44/60
f 13/42/61 15/45/62 19/46/63 17/43/64
f 15/45/65 16/47/66 20/48/67 19/46/68
f 16/47/69 14/41/70 18/44/71 20/48/72
f 18/44/73 17/43/74 21/49/75 22/50/76
f 17/51/77 19/52/78 23/53/79 21/54/80
f 19/55/81 20/56/82 24/57/83 23/58/84
f 20/59/85 18/60/86 22/61/87 24/62/88
f 7/63/89 9/64/90 26/65/91 25/66/92
f 9/64/93 11/67/94 27/68/95 26/65/96
f 11/67/97 6/69/98 28/70/99 27/68/100
f 6/69/101 7/63/102 25/66/103 28/70/104
f 28/71/105 25/72/106 30/73/107 29/74/108
f 13/75/109 14/76/110 32/77/111 31/78/112
f 25/79/113 26/80/114 33/81/115 30/82/116
f 15/83/117 13/84/118 31/85/119 34/86/120
f 26/87/121 27/88/122 35/89/123 33/90/124
f 16/91/125 15/92/126 34/93/127 36/94/128
f 27/95/129 28/96/130 29/97/131 35/98/132
f 14/99/133 16/100/134 36/101/135 32/102/136
