# This file uses centimeters as units for non-parametric coordinates.

mtllib picFrame1.mtl
g default
v -37.500000 30.000000 0.000000
v 37.500000 30.000000 0.000000
v -37.500000 -30.000000 0.000000
v 37.500000 -30.000000 0.000000
v -35.100239 -27.600241 5.000000
v -37.500000 -30.000000 2.600240
v 35.100239 -27.600241 5.000000
v 37.500000 -30.000000 2.600240
v -35.100239 27.600241 5.000000
v -37.500000 30.000000 2.600240
v 35.100239 27.600241 5.000000
v 37.500000 30.000000 2.600240
v 30.100239 -22.600241 5.000000
v -30.100239 -22.600241 5.000000
v 30.100239 22.600241 5.000000
v -30.100239 22.600241 5.000000
v 30.100239 -22.600241 3.316529
v -30.100239 -22.600241 3.316529
v 30.100239 22.600241 3.316529
v -30.100239 22.600241 3.316529
v 27.100239 -19.600241 3.316529
v -27.100239 -19.600241 3.316529
v 27.100239 19.600241 3.316529
v -27.100239 19.600241 3.316529
v 24.841885 -18.102644 1.665410
v -24.841885 -18.102644 1.665410
v 24.841885 18.102644 1.665410
v -24.841885 18.102644 1.665410
vt 0.560107 0.558877
vt 0.577741 0.558877
vt 0.577741 0.965788
vt 0.560107 0.965788
vt 0.543832 0.575151
vt 0.543832 0.949513
vt 0.033833 0.558876
vt 0.051468 0.558876
vt 0.051468 0.965788
vt 0.033833 0.965788
vt 0.067742 0.575151
vt 0.067742 0.949513
vt 0.939338 0.389405
vt 0.939095 0.016349
vt 0.952990 0.016340
vt 0.953232 0.389399
vt 0.967448 0.390371
vt 0.939474 0.886261
vt 0.953368 0.886259
vt 0.981342 0.390372
vt 0.560107 0.983422
vt 0.051467 0.983422
vt 0.051467 0.541242
vt 0.560107 0.541242
vt 0.967327 0.887228
vt 0.981221 0.887231
vt 0.014973 0.012366
vt 0.869214 0.927525
vt 0.629798 0.927525
vt 0.629798 0.598980
vt 0.879117 0.584046
vt 0.879117 0.942459
vt 0.619895 0.942459
vt 0.619895 0.584046
vt 0.898955 0.564208
vt 0.898955 0.962297
vt 0.600057 0.962297
vt 0.600057 0.564208
vt 0.509923 0.609061
vt 0.101652 0.609060
vt 0.509923 0.915604
vt 0.101652 0.915604
vt 0.869214 0.598980
vt 0.014973 0.517342
vt 0.707942 0.517342
vt 0.707942 0.012366
vt 0.967448 0.017315
vt 0.981342 0.017313
vn 0.000000 -0.707107 0.707106
vn 0.000000 -0.707107 0.707106
vn 0.000000 -0.707107 0.707106
vn 0.000000 -0.707107 0.707106
vn -0.707107 0.000000 0.707107
vn -0.707107 0.000000 0.707107
vn -0.707107 0.000000 0.707107
vn -0.707107 0.000000 0.707107
vn 0.707107 0.000000 0.707107
vn 0.707107 0.000000 0.707107
vn 0.707107 0.000000 0.707107
vn 0.707107 0.000000 0.707107
vn 0.000000 0.707107 0.707107
vn 0.000000 0.707107 0.707107
vn 0.000000 0.707107 0.707107
vn 0.000000 0.707107 0.707107
vn 0.000000 0.000000 1.000000
vn 0.000000 0.000000 1.000000
vn 0.000000 0.000000 1.000000
vn 0.000000 0.000000 1.000000
vn 0.000000 1.000000 0.000000
vn 0.000000 1.000000 0.000000
vn 0.000000 1.000000 0.000000
vn 0.000000 1.000000 0.000000
vn 0.000000 -1.000000 0.000000
vn 0.000000 -1.000000 0.000000
vn 0.000000 -1.000000 0.000000
vn 0.000000 -1.000000 0.000000
vn 1.000000 0.000000 0.000000
vn 1.000000 0.000000 0.000000
vn 1.000000 0.000000 0.000000
vn 1.000000 0.000000 0.000000
vn -1.000000 0.000000 0.000000
vn -1.000000 0.000000 0.000000
vn -1.000000 0.000000 0.000000
vn -1.000000 0.000000 0.000000
vn 0.000000 0.000000 1.000000
vn 0.000000 0.000000 1.000000
vn 0.000000 0.000000 1.000000
vn 0.000000 0.000000 1.000000
vn 0.000000 0.000000 1.000000
vn 0.000000 0.000000 1.000000
vn 0.000000 0.000000 1.000000
vn 0.000000 0.000000 1.000000
vn 0.000000 1.000000 0.000000
vn 0.000000 1.000000 0.000000
vn 0.000000 1.000000 0.000000
vn 0.000000 1.000000 0.000000
vn -1.000000 0.000000 0.000000
vn -1.000000 0.000000 0.000000
vn -1.000000 0.000000 0.000000
vn -1.000000 0.000000 0.000000
vn 0.000000 -1.000000 0.000000
vn 0.000000 -1.000000 0.000000
vn 0.000000 -1.000000 0.000000
vn 0.000000 -1.000000 0.000000
vn 1.000000 0.000000 0.000000
vn 1.000000 0.000000 0.000000
vn 1.000000 0.000000 0.000000
vn 1.000000 0.000000 0.000000
vn -0.000000 0.000000 1.000000
vn 0.000000 0.000000 1.000000
vn 0.000000 0.000000 1.000000
vn -0.000000 0.000000 1.000000
vn 0.000000 0.000000 1.000000
vn 0.000000 0.000000 1.000000
vn -0.000000 0.000000 1.000000
vn -0.000000 0.000000 1.000000
vn 0.000000 0.740703 0.671832
vn 0.000000 0.740703 0.671832
vn 0.000000 0.740703 0.671832
vn 0.000000 0.740703 0.671832
vn -0.590199 0.000000 0.807258
vn -0.590199 0.000000 0.807258
vn -0.590199 0.000000 0.807258
vn -0.590199 0.000000 0.807258
vn 0.000000 -0.740703 0.671832
vn 0.000000 -0.740703 0.671832
vn 0.000000 -0.740703 0.671832
vn 0.000000 -0.740703 0.671832
vn 0.590199 0.000000 0.807258
vn 0.590199 0.000000 0.807258
vn 0.590199 0.000000 0.807258
vn 0.590199 0.000000 0.807258
s off
g pCube2
usemtl initialShadingGroup
f 5/11/1 6/8/2 8/1/3 7/5/4
f 6/8/5 5/11/6 9/12/7 10/9/8
f 7/5/9 8/1/10 12/4/11 11/6/12
f 10/9/13 9/12/14 11/6/15 12/4/16
f 26/27/17 25/46/18 27/45/19 28/44/20
f 10/9/21 12/4/22 2/21/23 1/22/24
f 3/23/25 4/24/26 8/1/27 6/8/28
f 8/1/29 4/2/30 2/3/31 12/4/32
f 3/7/33 6/8/34 10/9/35 1/10/36
s 1
f 5/11/37 7/5/38 13/39/39 14/40/40
f 7/5/38 11/6/41 15/41/42 13/39/39
f 11/6/41 9/12/43 16/42/44 15/41/42
f 9/12/43 5/11/37 14/40/40 16/42/44
s off
f 14/18/45 13/13/46 17/16/47 18/19/48
f 13/13/49 15/14/50 19/15/51 17/16/52
f 15/25/53 16/17/54 20/20/55 19/26/56
f 16/17/57 14/47/58 18/48/59 20/20/60
s 2
f 18/35/61 17/36/62 21/32/63 22/31/64
f 17/36/62 19/37/65 23/33/66 21/32/63
f 19/37/65 20/38/67 24/34/68 23/33/66
f 20/38/67 18/35/61 22/31/64 24/34/68
s off
f 22/31/69 21/32/70 25/28/71 26/43/72
f 21/32/73 23/33/74 27/29/75 25/28/76
f 23/33/77 24/34/78 28/30/79 27/29/80
f 24/34/81 22/31/82 26/43/83 28/30/84
