# This file uses centimeters as units for non-parametric coordinates.

mtllib picFrame2.mtl
g default
v -32.379314 38.360458 0.000000
v 32.379314 38.360458 0.000000
v -32.379314 -38.360458 0.000000
v 32.379314 -38.360458 0.000000
v -29.631290 -35.291931 4.317242
v -32.379314 -38.360458 2.245173
v 29.631290 -35.291931 4.317242
v 32.379314 -38.360458 2.245173
v -29.631290 35.291931 4.317242
v -32.379314 38.360458 2.245173
v 29.631290 35.291931 4.317242
v 32.379314 38.360458 2.245173
v 26.012032 -31.281105 4.317242
v -26.012032 -31.281105 4.317242
v 26.012032 31.281105 4.317242
v -26.012032 31.281105 4.317242
v 23.844360 -28.891006 2.265003
v -23.844360 -28.891006 2.265003
v 23.844360 28.891006 2.265003
v -23.844360 28.891006 2.265003
v 23.844360 -28.891006 0.532174
v -23.844360 -28.891006 0.532174
v 23.844360 28.891006 0.532174
v -23.844360 28.891006 0.532174
vt 0.772585 0.407034
vt 0.502083 0.014334
vt 0.975320 0.014334
vt 0.975320 0.031756
vt 0.521011 0.053771
vt 0.947397 0.089806
vt 0.484031 0.012327
vt 0.484031 0.029748
vt 0.966325 0.653163
vt 0.010794 0.012327
vt 0.791512 0.970390
vt 0.029722 0.051763
vt 0.879678 0.619346
vt 0.879678 0.975762
vt 0.863849 0.975762
vt 0.863849 0.619346
vt 0.898424 0.604603
vt 0.898424 0.990505
vt 0.863536 0.461595
vt 0.863536 0.105179
vt 0.879365 0.105179
vt 0.879365 0.461595
vt 0.844790 0.476338
vt 0.844790 0.090436
vt 0.986833 0.064704
vt 0.986833 0.656250
vt 0.752076 0.995492
vt 0.752076 0.403947
vt 0.834999 0.917529
vt 0.834999 0.481910
vt 0.850827 0.481910
vt 0.850827 0.917529
vt 0.816252 0.937330
vt 0.545751 0.086831
vt 0.903911 0.142668
vt 0.903911 0.578287
vt 0.888082 0.578287
vt 0.888082 0.142668
vt 0.922657 0.122867
vt 0.054462 0.084824
vt 0.014158 0.983928
vt 0.014158 0.098855
vt 0.738311 0.098855
vt 0.738311 0.983928
vt 0.947397 0.631148
vt 0.922657 0.598087
vt 0.956392 0.053770
vt 0.931653 0.086831
vt 0.465103 0.051763
vt 0.440364 0.084824
vt 0.791512 0.429049
vt 0.816252 0.462110
vt 0.772585 0.992405
vt 0.502083 0.031756
vt 0.010794 0.029748
vt 0.966325 0.067792
vn 0.000000 -0.559624 0.828747
vn 0.000000 -0.559624 0.828747
vn 0.000000 -0.559624 0.828747
vn 0.000000 -0.559624 0.828747
vn -0.602053 0.000000 0.798456
vn -0.602053 0.000000 0.798456
vn -0.602053 0.000000 0.798456
vn -0.602053 0.000000 0.798456
vn 0.602053 0.000000 0.798456
vn 0.602053 0.000000 0.798456
vn 0.602053 0.000000 0.798456
vn 0.602053 0.000000 0.798456
vn 0.000000 0.559624 0.828747
vn 0.000000 0.559624 0.828747
vn 0.000000 0.559624 0.828747
vn 0.000000 0.559624 0.828747
vn 0.000000 0.000000 1.000000
vn 0.000000 0.000000 1.000000
vn 0.000000 0.000000 1.000000
vn 0.000000 0.000000 1.000000
vn 0.000000 1.000000 0.000000
vn 0.000000 1.000000 0.000000
vn 0.000000 1.000000 0.000000
vn 0.000000 1.000000 0.000000
vn 0.000000 -1.000000 0.000000
vn 0.000000 -1.000000 0.000000
vn 0.000000 -1.000000 0.000000
vn 0.000000 -1.000000 0.000000
vn 1.000000 0.000000 0.000000
vn 1.000000 0.000000 0.000000
vn 1.000000 0.000000 0.000000
vn 1.000000 0.000000 0.000000
vn -1.000000 0.000000 0.000000
vn -1.000000 0.000000 0.000000
vn -1.000000 0.000000 0.000000
vn -1.000000 0.000000 0.000000
vn -0.000000 0.000000 1.000000
vn 0.000000 0.000000 1.000000
vn 0.000000 0.000000 1.000000
vn -0.000000 0.000000 1.000000
vn 0.000000 0.000000 1.000000
vn 0.000000 0.000000 1.000000
vn -0.000000 0.000000 1.000000
vn -0.000000 0.000000 1.000000
vn 0.000000 0.651447 0.758694
vn 0.000000 0.651447 0.758694
vn 0.000000 0.651447 0.758694
vn 0.000000 0.651447 0.758694
vn -0.687507 0.000000 0.726177
vn -0.687507 0.000000 0.726177
vn -0.687507 0.000000 0.726177
vn -0.687507 0.000000 0.726177
vn 0.000000 -0.651447 0.758694
vn 0.000000 -0.651447 0.758694
vn 0.000000 -0.651447 0.758694
vn 0.000000 -0.651447 0.758694
vn 0.687507 0.000000 0.726177
vn 0.687507 0.000000 0.726177
vn 0.687507 0.000000 0.726177
vn 0.687507 0.000000 0.726177
vn 0.000000 1.000000 0.000000
vn 0.000000 1.000000 0.000000
vn 0.000000 1.000000 0.000000
vn 0.000000 1.000000 0.000000
vn -1.000000 0.000000 0.000000
vn -1.000000 0.000000 0.000000
vn -1.000000 0.000000 0.000000
vn -1.000000 0.000000 0.000000
vn 0.000000 -1.000000 0.000000
vn 0.000000 -1.000000 0.000000
vn 0.000000 -1.000000 0.000000
vn 0.000000 -1.000000 0.000000
vn 1.000000 0.000000 0.000000
vn 1.000000 0.000000 0.000000
vn 1.000000 0.000000 0.000000
vn 1.000000 0.000000 0.000000
s off
g pCube2
usemtl initialShadingGroup
f 5/11/1 6/53/2 8/1/3 7/51/4
f 6/8/5 5/49/6 9/12/7 10/55/8
f 7/5/9 8/54/10 12/4/11 11/47/12
f 10/9/13 9/45/14 11/6/15 12/56/16
f 22/41/17 21/42/18 23/43/19 24/44/20
f 10/9/21 12/56/22 2/25/23 1/26/24
f 3/27/25 4/28/26 8/1/27 6/53/28
f 8/54/29 4/2/30 2/3/31 12/4/32
f 3/7/33 6/8/34 10/55/35 1/10/36
s 1
f 5/11/37 7/51/38 13/52/39 14/33/40
f 7/5/38 11/47/41 15/48/42 13/34/39
f 11/6/41 9/45/43 16/46/44 15/39/42
f 9/12/43 5/49/37 14/50/40 16/40/44
s off
f 14/33/45 13/52/46 17/30/47 18/29/48
f 13/17/49 15/18/50 19/14/51 17/13/52
f 15/39/53 16/46/54 20/36/55 19/35/56
f 16/23/57 14/24/58 18/20/59 20/19/60
f 18/29/61 17/30/62 21/31/63 22/32/64
f 17/13/65 19/14/66 23/15/67 21/16/68
f 19/35/69 20/36/70 24/37/71 23/38/72
f 20/19/73 18/20/74 22/21/75 24/22/76
