# Wavefront Obj file
# 
# verts: 84 uv-s: 161
mtllib shroom3.mtl

g pCylinder1

v 0.540991 0.000000 0.355385
v 0.599825 0.000000 0.170822
v 0.459006 0.000000 0.024274
v 0.259353 0.000000 0.062289
v 0.200520 0.000000 0.246853
v 0.341338 0.000000 0.393401
v 0.642727 0.677124 0.391786
v 0.670457 0.677124 0.304796
v 0.606112 0.653165 0.236370
v 0.514037 0.629206 0.254934
v 0.486307 0.629206 0.341923
v 0.550652 0.653165 0.410349
v 0.400172 0.000000 0.208837
v 0.677610 1.122959 0.402905
v 0.705340 1.122959 0.315916
v 0.654638 1.059261 0.251839
v 0.576207 0.995564 0.274752
v 0.548477 0.995564 0.361741
v 0.599179 1.059261 0.425818
v 0.517313 1.463168 0.335089
v 0.535367 1.463168 0.278452
v 0.484302 1.421696 0.293370
v 0.502356 1.421696 0.236733
v 0.451292 1.380224 0.251651
v 0.433237 1.380224 0.308288
v 0.466248 1.421696 0.350007
# 26 positions

vt 0.286359 0.424460
vt 0.286359 0.488926
vt 0.522871 0.442130
vt 0.522871 0.411745
vt 0.286359 0.540113
vt 0.514503 0.466030
vt 0.920263 0.277042
vt 0.990000 0.277042
vt 0.901042 0.496817
vt 0.868881 0.505186
vt 0.755092 0.278170
vt 0.755092 0.342637
vt 0.535317 0.375843
vt 0.535317 0.345459
vt 0.755092 0.393824
vt 0.526949 0.399744
vt 0.751242 0.739349
vt 0.820979 0.739349
vt 0.856514 0.502836
vt 0.824353 0.511205
vt 0.331969 0.945011
vt 0.267503 0.924461
vt 0.318691 0.875275
vt 0.383156 0.895825
vt 0.369878 0.826088
vt 0.305412 0.805538
vt 0.254224 0.854724
vt 0.245733 0.960633
vt 0.225950 0.954327
vt 0.231161 0.972163
vt 0.211378 0.965857
vt 0.216589 0.983694
vt 0.236371 0.990000
vt 0.250943 0.978470
vt 0.678597 0.438246
vt 0.678597 0.407861
vt 0.656348 0.460627
vt 0.879326 0.624782
vt 0.851931 0.647031
vt 0.407352 0.382766
vt 0.407352 0.352381
vt 0.385104 0.405147
vt 0.868698 0.347111
vt 0.841303 0.369360
vt 0.797428 0.451331
vt 0.797428 0.431549
vt 0.782943 0.465903
vt 0.922958 0.759140
vt 0.905122 0.773626
vt 0.272995 0.364095
vt 0.272995 0.344312
vt 0.258509 0.378667
vt 0.812708 0.228279
vt 0.794872 0.242765
# 54 texture coordinates

vn 0.632698 -0.137913 0.762019
vn 0.951265 -0.038363 -0.305978
vn 0.983874 -0.081495 -0.159216
vn 0.689024 -0.114562 0.715627
vn 0.183706 0.271927 -0.944620
vn 0.324448 0.140701 -0.935381
vn -0.618741 0.443533 -0.648412
vn -0.631075 0.362249 -0.685944
vn -0.910815 0.389995 0.135351
vn -0.927398 0.301521 0.221400
vn -0.396626 0.109419 0.911436
vn -0.260473 0.029085 0.965043
vn 0.000000 -1.000000 0.000000
vn 0.000000 -1.000000 0.000000
vn 0.000000 -1.000000 0.000000
vn 0.000000 -1.000000 0.000000
vn 0.000000 -1.000000 0.000000
vn 0.000000 -1.000000 0.000000
vn 0.000000 -1.000000 0.000000
vn 0.509610 0.514575 0.689572
vn 0.814674 0.514576 -0.267430
vn -0.652536 0.728649 -0.208008
vn 0.261986 0.182237 -0.947709
vn -0.619710 -0.159667 -0.768418
vn -0.950093 -0.159667 0.268011
vn -0.334820 0.182234 0.924492
vn 0.961234 0.188121 -0.201590
vn 0.667236 0.188121 0.720698
vn 0.345728 0.001454 -0.938334
vn -0.676008 -0.045444 -0.735491
vn -0.976950 -0.045445 0.208575
vn -0.261103 0.001453 0.965310
# 32 normals

usemtl initialShadingGroup
s 1
f 1/1/1 2/2/2 8/3/3 7/4/4
f 2/2/2 3/5/5 9/6/6 8/3/3
f 3/7/5 4/8/7 10/9/8 9/10/6
f 4/11/7 5/12/9 11/13/10 10/14/8
f 5/12/9 6/15/11 12/16/12 11/13/10
f 6/17/11 1/18/1 7/19/4 12/20/12
f 20/28/20 21/29/21 22/30/22
f 21/29/21 23/31/23 22/30/22
f 23/31/23 24/32/24 22/30/22
f 24/32/24 25/33/25 22/30/22
f 25/33/25 26/34/26 22/30/22
f 26/34/26 20/28/20 22/30/22
f 7/4/4 8/3/3 15/35/27 14/36/28
f 8/3/3 9/6/6 16/37/29 15/35/27
f 9/10/6 10/9/8 17/38/30 16/39/29
f 10/14/8 11/13/10 18/40/31 17/41/30
f 11/13/10 12/16/12 19/42/32 18/40/31
f 12/20/12 7/19/4 14/43/28 19/44/32
f 14/36/28 15/35/27 21/45/21 20/46/20
f 15/35/27 16/37/29 23/47/23 21/45/21
f 16/39/29 17/38/30 24/48/24 23/49/23
f 17/41/30 18/40/31 25/50/25 24/51/24
f 18/40/31 19/42/32 26/52/26 25/50/25
f 19/44/32 14/43/28 20/53/20 26/54/26
s 2
f 2/21/13 1/22/14 13/23/15
f 3/24/16 2/21/13 13/23/15
f 4/25/17 3/24/16 13/23/15
f 5/26/18 4/25/17 13/23/15
f 6/27/19 5/26/18 13/23/15
f 1/22/14 6/27/19 13/23/15

g shroom3

v 0.592934 1.444152 0.413494
v 0.683113 1.427560 0.298808
v 0.659573 1.363649 0.147726
v 0.541493 1.298810 0.050585
v 0.390007 1.307990 0.061846
v 0.292853 1.364866 0.174444
v 0.307539 1.418425 0.322531
v 0.433173 1.442365 0.421942
v 0.748224 1.266016 0.584495
v 0.907845 1.305897 0.370578
v 0.865878 1.197105 0.091937
v 0.649656 1.045803 -0.087050
v 0.369737 1.051182 -0.066216
v 0.190229 1.135806 0.141809
v 0.216355 1.200603 0.414950
v 0.448198 1.239713 0.598501
v 0.828626 1.167904 0.691274
v 1.037996 1.246210 0.412143
v 0.991504 1.125191 0.050925
v 0.708994 0.923061 -0.182924
v 0.343267 0.908798 -0.155720
v 0.108778 0.973302 0.115925
v 0.142945 1.031940 0.472698
v 0.438131 1.107047 0.710055
v 0.819564 1.338614 0.716882
v 1.044523 1.425517 0.414230
v 0.994436 1.297340 0.023344
v 0.688656 1.075062 -0.229792
v 0.292790 1.069455 -0.200325
v 0.038985 1.145667 0.093686
v 0.075970 1.211249 0.479845
v 0.395185 1.286375 0.736664
v 0.745245 1.578178 0.664695
v 0.956434 1.641400 0.386143
v 0.911316 1.521365 0.025393
v 0.628795 1.331249 -0.208420
v 0.263069 1.336038 -0.181218
v 0.028595 1.415500 0.090379
v 0.062766 1.482122 0.447140
v 0.355929 1.546243 0.683851
v 0.637064 1.753988 0.549060
v 0.803998 1.775824 0.337533
v 0.770927 1.680414 0.061911
v 0.554666 1.557658 -0.116953
v 0.274767 1.564672 -0.096181
v 0.095321 1.628426 0.111648
v 0.121474 1.685080 0.384704
v 0.343744 1.735328 0.565204
v 0.517257 1.845735 0.389420
v 0.611108 1.837573 0.276027
v 0.594637 1.784867 0.127349
v 0.477580 1.732363 0.030605
v 0.326115 1.733330 0.041796
v 0.229007 1.768023 0.154250
v 0.243156 1.803832 0.302044
v 0.362054 1.834025 0.399285
v 0.453515 1.514337 0.225630
v 0.409299 1.836621 0.211702
# 58 positions

vt 0.349108 0.185422
vt 0.389166 0.216921
vt 0.364098 0.295417
vt 0.289379 0.239663
vt 0.441938 0.208698
vt 0.461424 0.280759
vt 0.656559 0.552624
vt 0.615314 0.575272
vt 0.653094 0.663644
vt 0.728619 0.610796
vt 0.562402 0.572065
vt 0.555322 0.661765
vt 0.528467 0.552199
vt 0.492621 0.632207
vt 0.620221 0.307584
vt 0.638929 0.255858
vt 0.562846 0.223577
vt 0.540213 0.318983
vt 0.192010 0.325464
vt 0.148128 0.333826
vt 0.142879 0.263042
vt 0.223860 0.249381
vt 0.092325 0.334451
vt 0.038084 0.272230
vt 0.349580 0.340878
vt 0.252082 0.267747
vt 0.475749 0.324638
vt 0.673821 0.706517
vt 0.772498 0.635915
vt 0.546076 0.711499
vt 0.464171 0.688968
vt 0.503934 0.203407
vt 0.483452 0.328024
vt 0.146396 0.216703
vt 0.249501 0.190469
vt 0.010000 0.237960
vt 0.682611 0.756699
vt 0.709962 0.854197
vt 0.772592 0.853468
vt 0.742238 0.747754
vt 0.667692 0.980366
vt 0.727822 0.990000
vt 0.415922 0.796066
vt 0.514600 0.725464
vt 0.521704 0.778557
vt 0.414898 0.856196
vt 0.642344 0.720483
vt 0.659976 0.776598
vt 0.484667 0.545203
vt 0.462137 0.640085
vt 0.401931 0.632318
vt 0.428551 0.529623
vt 0.441655 0.764703
vt 0.379025 0.767199
vt 0.038006 0.591529
vt 0.141111 0.565295
vt 0.126111 0.502657
vt 0.014612 0.528898
vt 0.277507 0.544038
vt 0.274341 0.484411
vt 0.847998 0.863278
vt 0.825915 0.765983
vt 0.806071 0.989284
vt 0.542613 0.868040
vt 0.443931 0.934446
vt 0.670357 0.869713
vt 0.307682 0.631163
vt 0.335437 0.536297
vt 0.284411 0.755775
vt 0.112399 0.411888
vt 0.010000 0.434285
vt 0.248383 0.400734
vt 0.894951 0.880257
vt 0.887324 0.806373
vt 0.185726 0.689222
vt 0.059720 0.704982
vt 0.072475 0.754018
vt 0.168747 0.742467
vt 0.568505 0.947123
vt 0.492967 0.990000
vt 0.666271 0.949573
vt 0.233309 0.638592
vt 0.255578 0.565999
vt 0.213520 0.733967
vt 0.108143 0.345843
vt 0.030506 0.363394
vt 0.210596 0.339325
vt 0.242631 0.800775
vt 0.147264 0.809841
vt 0.186871 0.842622
vt 0.095332 0.815594
vt 0.010000 0.829556
vt 0.061541 0.856481
vt 0.017255 0.927321
vt 0.065449 0.909386
vt 0.089848 0.990000
vt 0.104728 0.943305
vt 0.185224 0.980865
vt 0.156351 0.938363
vt 0.248270 0.903228
vt 0.190317 0.896833
vt 0.414726 0.136724
vt 0.584584 0.499990
vt 0.380880 0.085737
vt 0.432605 0.080607
vt 0.346157 0.129619
vt 0.124796 0.880331
# 107 texture coordinates

vn -0.197013 -0.857594 -0.475099
vn -0.467415 -0.879590 0.088569
vn -0.469948 -0.882639 0.009891
vn -0.181488 -0.786089 -0.590869
vn -0.376255 -0.710728 0.594389
vn -0.354853 -0.714839 0.602565
vn -0.114782 -0.569286 0.814088
vn -0.086649 -0.570634 0.816620
vn 0.292489 -0.522740 0.800746
vn 0.308275 -0.488176 0.816487
vn 0.718958 -0.553328 0.420628
vn 0.803725 -0.443808 0.396309
vn 0.727393 -0.645570 -0.232677
vn 0.800509 -0.493798 -0.339630
vn 0.281365 -0.754773 -0.592580
vn 0.301459 -0.628325 -0.717168
vn -0.409002 -0.911758 -0.037624
vn -0.129930 -0.779731 -0.612485
vn -0.280343 -0.758983 0.587667
vn -0.040477 -0.617445 0.785572
vn 0.299276 -0.543298 0.784386
vn 0.782734 -0.476806 0.399979
vn 0.809623 -0.495870 -0.314043
vn 0.337971 -0.623178 -0.705283
vn 0.439510 -0.103773 0.892223
vn 0.970768 -0.040654 0.236553
vn 0.945656 0.235388 0.224337
vn 0.425281 0.132273 0.895344
vn 0.861785 -0.095167 -0.498267
vn 0.829374 0.137916 -0.541404
vn 0.342191 -0.229388 -0.911201
vn 0.308304 -0.025149 -0.950955
vn -0.396135 -0.360713 -0.844372
vn -0.442270 -0.139275 -0.886002
vn -0.887554 -0.393175 -0.240128
vn -0.944332 -0.176481 -0.277653
vn -0.801483 -0.322860 0.503375
vn -0.859191 -0.120482 0.497268
vn -0.264587 -0.204542 0.942420
vn -0.298933 0.008310 0.954238
vn 0.805027 0.571099 0.160552
vn 0.340048 0.451409 0.824983
vn 0.685970 0.432646 -0.585032
vn 0.228407 0.253886 -0.939879
vn -0.431385 0.154148 -0.888901
vn -0.940119 0.116923 -0.320165
vn -0.877430 0.166149 0.450013
vn -0.327401 0.302019 0.895318
vn 0.532282 0.845937 0.032660
vn 0.213287 0.763158 0.609999
vn 0.446720 0.689517 -0.570094
vn 0.136461 0.522128 -0.841879
vn -0.349941 0.470001 -0.810333
vn -0.799599 0.481425 -0.358988
vn -0.784971 0.536734 0.309415
vn -0.315494 0.650587 0.690796
vn 0.238516 0.964324 -0.114847
vn 0.065358 0.966843 0.246866
vn 0.206677 0.846974 -0.489815
vn 0.050148 0.750696 -0.658742
vn -0.213745 0.748103 -0.628216
vn -0.482406 0.802628 -0.350818
vn -0.495928 0.866686 0.053957
vn -0.232642 0.930601 0.282594
vn 0.060435 -0.947366 0.314398
vn -0.084467 0.958615 -0.271887
# 66 normals

usemtl initialShadingGroup
s 3
f 27/55/33 28/56/34 36/57/35 35/58/36
f 28/56/34 29/59/37 37/60/38 36/57/35
f 29/61/37 30/62/39 38/63/40 37/64/38
f 30/62/39 31/65/41 39/66/42 38/63/40
f 31/65/41 32/67/43 40/68/44 39/66/42
f 32/69/43 33/70/45 41/71/46 40/72/44
f 33/73/45 34/74/47 42/75/48 41/76/46
f 34/74/47 27/77/33 35/78/36 42/75/48
f 35/58/36 36/57/35 44/79/49 43/80/50
f 36/57/35 37/60/38 45/81/51 44/79/49
f 37/64/38 38/63/40 46/82/52 45/83/51
f 38/63/40 39/66/42 47/84/53 46/82/52
f 39/66/42 40/68/44 48/85/54 47/84/53
f 40/72/44 41/71/46 49/86/55 48/87/54
f 41/76/46 42/75/48 50/88/56 49/89/55
f 42/75/48 35/78/36 43/90/50 50/88/56
f 28/56/34 27/55/33 83/156/97
f 29/59/37 28/56/34 83/156/97
f 30/62/39 29/61/37 83/157/97
f 31/65/41 30/62/39 83/157/97
f 32/67/43 31/65/41 83/157/97
f 33/158/45 32/159/43 83/156/97
f 34/160/47 33/158/45 83/156/97
f 27/55/33 34/160/47 83/156/97
s 4
f 43/91/57 44/92/58 52/93/59 51/94/60
f 44/92/58 45/95/61 53/96/62 52/93/59
f 45/97/61 46/98/63 54/99/64 53/100/62
f 46/98/63 47/101/65 55/102/66 54/99/64
f 47/103/65 48/104/67 56/105/68 55/106/66
f 48/104/67 49/107/69 57/108/70 56/105/68
f 49/109/69 50/110/71 58/111/72 57/112/70
f 50/110/71 43/113/57 51/114/60 58/111/72
f 51/94/60 52/93/59 60/115/73 59/116/74
f 52/93/59 53/96/62 61/117/75 60/115/73
f 53/100/62 54/99/64 62/118/76 61/119/75
f 54/99/64 55/102/66 63/120/77 62/118/76
f 55/106/66 56/105/68 64/121/78 63/122/77
f 56/105/68 57/108/70 65/123/79 64/121/78
f 57/112/70 58/111/72 66/124/80 65/125/79
f 58/111/72 51/114/60 59/126/74 66/124/80
f 59/116/74 60/115/73 68/127/81 67/128/82
f 60/129/73 61/130/75 69/131/83 68/132/81
f 61/119/75 62/118/76 70/133/84 69/134/83
f 62/118/76 63/120/77 71/135/85 70/133/84
f 63/122/77 64/121/78 72/136/86 71/137/85
f 64/121/78 65/123/79 73/138/87 72/136/86
f 65/125/79 66/124/80 74/139/88 73/140/87
f 66/124/80 59/126/74 67/141/82 74/139/88
f 67/142/82 68/132/81 76/143/89 75/144/90
f 68/132/81 69/131/83 77/145/91 76/143/89
f 69/131/83 70/146/84 78/147/92 77/145/91
f 70/146/84 71/148/85 79/149/93 78/147/92
f 71/148/85 72/150/86 80/151/94 79/149/93
f 72/150/86 73/152/87 81/153/95 80/151/94
f 73/152/87 74/154/88 82/155/96 81/153/95
f 74/154/88 67/142/82 75/144/90 82/155/96
f 75/144/90 76/143/89 84/161/98
f 76/143/89 77/145/91 84/161/98
f 77/145/91 78/147/92 84/161/98
f 78/147/92 79/149/93 84/161/98
f 79/149/93 80/151/94 84/161/98
f 80/151/94 81/153/95 84/161/98
f 81/153/95 82/155/96 84/161/98
f 82/155/96 75/144/90 84/161/98

# 94 faces
