# Wavefront Obj file
# 
# verts: 84 uv-s: 145
mtllib shroom2.mtl

g pCylinder1

v -0.271859 0.000000 0.321117
v -0.253168 0.000000 0.490986
v -0.096712 0.000000 0.559733
v 0.041053 0.000000 0.458611
v 0.022361 0.000000 0.288742
v -0.134095 0.000000 0.219995
v -0.215058 0.440226 0.324713
v -0.206248 0.440226 0.404776
v -0.160345 0.496108 0.440242
v -0.123251 0.551991 0.395644
v -0.132061 0.551991 0.315580
v -0.177964 0.496108 0.280115
v -0.115403 0.000000 0.389864
v -0.281275 0.678683 0.346242
v -0.276564 0.678683 0.389055
v -0.248252 0.705320 0.407606
v -0.224651 0.731956 0.383343
v -0.229362 0.731956 0.340530
v -0.257674 0.705320 0.321979
v -0.360233 0.833846 0.327379
v -0.354497 0.833846 0.379506
v -0.337279 0.874520 0.351232
v -0.331544 0.874520 0.403360
v -0.314326 0.915193 0.375086
v -0.320062 0.915193 0.322959
v -0.343015 0.874520 0.299105
# 26 positions

vt 0.476048 0.273716
vt 0.476048 0.359040
vt 0.254925 0.315738
vt 0.254925 0.275522
vt 0.795605 0.990000
vt 0.874192 0.990000
vt 0.842230 0.740808
vt 0.819173 0.768877
vt 0.943390 0.990000
vt 0.860862 0.712739
vt 0.010000 0.167850
vt 0.010000 0.253174
vt 0.287261 0.239694
vt 0.287261 0.199478
vt 0.700245 0.170361
vt 0.778831 0.170361
vt 0.800867 0.419553
vt 0.777810 0.447622
vt 0.848029 0.170361
vt 0.819499 0.391484
vt 0.542100 0.086333
vt 0.627424 0.076945
vt 0.592893 0.155532
vt 0.507569 0.164920
vt 0.558362 0.234119
vt 0.643686 0.224730
vt 0.678217 0.146143
vt 0.057212 0.276861
vt 0.057212 0.303045
vt 0.036782 0.288843
vt 0.036782 0.315026
vt 0.016352 0.300824
vt 0.016352 0.274641
vt 0.036782 0.262660
vt 0.135149 0.307841
vt 0.135149 0.286336
vt 0.798074 0.635722
vt 0.783853 0.649102
vt 0.809929 0.622343
vt 0.377657 0.227162
vt 0.377657 0.205657
vt 0.840904 0.524639
vt 0.826684 0.538018
vt 0.852759 0.511259
vt 0.756237 0.550734
vt 0.744708 0.571164
vt 0.764886 0.530304
vt 0.469695 0.235987
vt 0.469695 0.209804
vt 0.883771 0.609627
vt 0.872241 0.630057
vt 0.892419 0.589196
# 52 texture coordinates

vn -0.929565 0.106569 -0.352919
vn -0.807405 0.172486 0.564221
vn -0.851841 0.060722 0.520269
vn -0.942790 0.001776 -0.333383
vn 0.089801 0.261747 0.960950
vn 0.075769 0.203574 0.976123
vn 0.873317 0.304114 0.380568
vn 0.890909 0.355263 0.282966
vn 0.810005 0.248694 -0.531078
vn 0.806806 0.322315 -0.495154
vn -0.098249 0.130525 -0.986565
vn -0.072461 0.107116 -0.991602
vn 0.000000 -1.000000 0.000000
vn 0.000000 -1.000000 0.000000
vn 0.000000 -1.000000 0.000000
vn 0.000000 -1.000000 0.000000
vn 0.000000 -1.000000 0.000000
vn 0.000000 -1.000000 0.000000
vn 0.000000 -1.000000 0.000000
vn -0.850513 -0.326394 -0.412426
vn -0.817825 -0.245245 0.520593
vn -0.890197 0.444922 0.097950
vn 0.038161 0.243978 0.969029
vn 0.763285 0.591868 0.259014
vn 0.709996 0.511549 -0.483967
vn 0.058291 0.117580 -0.991351
vn -0.800362 -0.258970 0.540698
vn -0.884665 -0.305993 -0.351762
vn 0.012407 0.103955 0.994505
vn 0.806774 0.442397 0.391664
vn 0.756976 0.388897 -0.525117
vn -0.086655 0.010632 -0.996182
# 32 normals

usemtl initialShadingGroup
s 1
f 1/1/1 2/2/2 8/3/3 7/4/4
f 2/5/2 3/6/5 9/7/6 8/8/3
f 3/6/5 4/9/7 10/10/8 9/7/6
f 4/11/7 5/12/9 11/13/10 10/14/8
f 5/15/9 6/16/11 12/17/12 11/18/10
f 6/16/11 1/19/1 7/20/4 12/17/12
f 20/28/20 21/29/21 22/30/22
f 21/29/21 23/31/23 22/30/22
f 23/31/23 24/32/24 22/30/22
f 24/32/24 25/33/25 22/30/22
f 25/33/25 26/34/26 22/30/22
f 26/34/26 20/28/20 22/30/22
f 7/4/4 8/3/3 15/35/27 14/36/28
f 8/8/3 9/7/6 16/37/29 15/38/27
f 9/7/6 10/10/8 17/39/30 16/37/29
f 10/14/8 11/13/10 18/40/31 17/41/30
f 11/18/10 12/17/12 19/42/32 18/43/31
f 12/17/12 7/20/4 14/44/28 19/42/32
f 14/36/28 15/35/27 21/29/21 20/28/20
f 15/38/27 16/37/29 23/45/23 21/46/21
f 16/37/29 17/39/30 24/47/24 23/45/23
f 17/41/30 18/40/31 25/48/25 24/49/24
f 18/43/31 19/42/32 26/50/26 25/51/25
f 19/42/32 14/44/28 20/52/20 26/50/26
s 2
f 2/21/13 1/22/14 13/23/15
f 3/24/16 2/21/13 13/23/15
f 4/25/17 3/24/16 13/23/15
f 5/26/18 4/25/17 13/23/15
f 6/27/19 5/26/18 13/23/15
f 1/22/14 6/27/19 13/23/15

g shroom2

v -0.394470 0.797939 0.316624
v -0.429751 0.802218 0.442017
v -0.357106 0.810098 0.562110
v -0.243057 0.790579 0.593437
v -0.155481 0.783205 0.551228
v -0.171673 0.792387 0.460246
v -0.232588 0.803540 0.329611
v -0.315016 0.798375 0.260351
v -0.539354 0.693827 0.205108
v -0.590214 0.714728 0.436326
v -0.399114 0.777616 0.647859
v -0.245107 0.692651 0.714746
v -0.056832 0.665247 0.632732
v -0.072074 0.662912 0.482918
v -0.222312 0.681682 0.233808
v -0.351879 0.682213 0.101958
v -0.623718 0.623781 0.145771
v -0.699307 0.642654 0.447871
v -0.442055 0.731629 0.723687
v -0.246566 0.615795 0.811650
v 0.016554 0.586251 0.683180
v 0.053653 0.581286 0.504199
v -0.179223 0.600795 0.181517
v -0.359310 0.605611 0.003106
v -0.642474 0.736899 0.123739
v -0.732881 0.749481 0.450729
v -0.479052 0.823300 0.749270
v -0.242920 0.720334 0.844480
v 0.047510 0.695882 0.690959
v 0.032787 0.690347 0.486713
v -0.194331 0.725003 0.124114
v -0.352697 0.717662 -0.036902
v -0.601307 0.884980 0.143305
v -0.688961 0.892929 0.445407
v -0.507239 0.912818 0.721221
v -0.236169 0.865788 0.809179
v 0.021204 0.846595 0.662090
v -0.048180 0.857355 0.460326
v -0.190205 0.887185 0.113814
v -0.346973 0.870993 -0.008117
v -0.508414 0.982451 0.212068
v -0.575490 0.987944 0.441743
v -0.459059 0.983134 0.654554
v -0.228946 0.969214 0.726010
v -0.043848 0.958388 0.627664
v -0.089938 0.983719 0.495582
v -0.180603 0.993868 0.202236
v -0.328810 0.976258 0.098449
v -0.380396 1.051425 0.388718
v -0.416697 1.054330 0.512817
v -0.354056 1.051425 0.628098
v -0.229166 1.044423 0.667060
v -0.131778 1.039330 0.616824
v -0.135137 1.049063 0.525805
v -0.192148 1.054511 0.384738
v -0.287153 1.048729 0.325998
v -0.252767 0.872726 0.491619
v -0.241445 1.077918 0.562044
# 58 positions

vt 0.258648 0.764911
vt 0.195664 0.747189
vt 0.198523 0.666590
vt 0.314662 0.692136
vt 0.135342 0.783678
vt 0.092271 0.762578
vt 0.119607 0.840964
vt 0.058674 0.839935
vt 0.140808 0.884953
vt 0.099869 0.934504
vt 0.186508 0.876820
vt 0.175120 0.926848
vt 0.252125 0.846223
vt 0.300246 0.851385
vt 0.286914 0.804820
vt 0.366474 0.786304
vt 0.192724 0.611793
vt 0.344467 0.649761
vt 0.054183 0.741009
vt 0.010000 0.839202
vt 0.074530 0.971365
vt 0.164431 0.990000
vt 0.326512 0.873028
vt 0.416127 0.782571
vt 0.990000 0.185063
vt 0.980520 0.336806
vt 0.926861 0.338241
vt 0.933182 0.173996
vt 0.935829 0.475346
vt 0.889783 0.488196
vt 0.503320 0.916978
vt 0.601513 0.975160
vt 0.603344 0.922651
vt 0.484736 0.870932
vt 0.733676 0.990000
vt 0.749225 0.934933
vt 0.491007 0.244554
vt 0.488513 0.334455
vt 0.543294 0.343238
vt 0.546074 0.240646
vt 0.498312 0.496536
vt 0.560701 0.525369
vt 0.446167 0.606892
vt 0.536623 0.609311
vt 0.533302 0.665593
vt 0.453755 0.669280
vt 0.669434 0.618437
vt 0.678855 0.675256
vt 0.854809 0.335568
vt 0.858801 0.183824
vt 0.357240 0.908011
vt 0.470578 0.825967
vt 0.379300 0.835958
vt 0.606735 0.849590
vt 0.736012 0.859231
vt 0.627181 0.356492
vt 0.621776 0.255147
vt 0.642164 0.530543
vt 0.530427 0.742610
vt 0.451683 0.750743
vt 0.658177 0.749636
vt 0.217332 0.600850
vt 0.369076 0.644878
vt 0.367235 0.587882
vt 0.251871 0.554190
vt 0.507615 0.553600
vt 0.474129 0.529399
vt 0.610363 0.797640
vt 0.494779 0.790648
vt 0.703337 0.803078
vt 0.690653 0.338783
vt 0.677929 0.272439
vt 0.695750 0.486129
vt 0.202519 0.394356
vt 0.141274 0.473099
vt 0.194801 0.463976
vt 0.246932 0.389533
vt 0.402935 0.508121
vt 0.340601 0.489887
vt 0.460840 0.476657
vt 0.610252 0.759863
vt 0.547521 0.756346
vt 0.659170 0.762421
vt 0.723475 0.323602
vt 0.718586 0.277884
vt 0.726211 0.394459
vt 0.309097 0.443052
vt 0.338602 0.395332
vt 0.170749 0.836087
vt 0.427662 0.420093
vt 0.480411 0.413926
vt 0.455178 0.365008
vt 0.409459 0.366695
# 93 texture coordinates

vn 0.334752 -0.902478 0.271062
vn 0.427290 -0.904061 0.009873
vn 0.513805 -0.857881 0.006667
vn 0.399488 -0.841786 0.363051
vn 0.255057 -0.899760 -0.354087
vn 0.248847 -0.892981 -0.375046
vn -0.201428 -0.783329 -0.588066
vn -0.276162 -0.758600 -0.590136
vn -0.595455 -0.744579 -0.301719
vn -0.530599 -0.764540 -0.365982
vn -0.753368 -0.606062 0.255197
vn -0.711118 -0.653765 0.258655
vn -0.583160 -0.693430 0.423178
vn -0.638701 -0.604195 0.476455
vn -0.084369 -0.861453 0.500779
vn -0.049523 -0.803392 0.593388
vn 0.547885 -0.836233 0.023183
vn 0.419977 -0.820112 0.388632
vn 0.234003 -0.877991 -0.417582
vn -0.301863 -0.745679 -0.594004
vn -0.500818 -0.786997 -0.360302
vn -0.629080 -0.757991 0.172358
vn -0.588050 -0.680393 0.437336
vn -0.038714 -0.792652 0.608444
vn -0.769562 -0.271150 -0.578146
vn -0.901307 -0.330298 0.280267
vn -0.970472 -0.024025 0.240013
vn -0.790870 0.037554 -0.610831
vn -0.599299 -0.329504 0.729567
vn -0.619428 -0.056057 0.783049
vn 0.099213 -0.298390 0.949274
vn 0.095463 -0.015563 0.995311
vn 0.731918 -0.187167 0.655183
vn 0.789563 0.084581 0.607813
vn 0.938788 -0.051279 -0.340657
vn 0.923323 0.099132 -0.371008
vn 0.794471 -0.108862 -0.597466
vn 0.808790 0.008478 -0.588037
vn 0.075854 -0.316722 -0.945481
vn -0.027490 -0.039755 -0.998831
vn -0.866741 0.479095 0.138665
vn -0.676033 0.498752 -0.542425
vn -0.555660 0.491498 0.670576
vn 0.130424 0.402811 0.905943
vn 0.795122 0.393240 0.461675
vn 0.904892 0.249786 -0.344641
vn 0.784038 0.257164 -0.564934
vn -0.051403 0.408701 -0.911220
vn -0.528724 0.848226 0.031044
vn -0.373119 0.870473 -0.321029
vn -0.407178 0.767779 0.494693
vn 0.119344 0.623856 0.772373
vn 0.704706 0.594959 0.386540
vn 0.840704 0.481174 -0.248372
vn 0.620337 0.673534 -0.401913
vn -0.017428 0.847145 -0.531075
vn -0.303959 0.951235 0.052549
vn -0.184578 0.971081 -0.151439
vn -0.254707 0.874231 0.413334
vn 0.080666 0.795897 0.600034
vn 0.495212 0.800551 0.337465
vn 0.484129 0.871807 -0.074644
vn 0.333530 0.921412 -0.199393
vn -0.019007 0.970886 -0.238788
vn -0.082486 -0.993693 -0.075957
vn 0.034914 0.997793 0.056478
# 66 normals

usemtl initialShadingGroup
s 3
f 27/53/33 28/54/34 36/55/35 35/56/36
f 28/54/34 29/57/37 37/58/38 36/55/35
f 29/57/37 30/59/39 38/60/40 37/58/38
f 30/59/39 31/61/41 39/62/42 38/60/40
f 31/61/41 32/63/43 40/64/44 39/62/42
f 32/63/43 33/65/45 41/66/46 40/64/44
f 33/65/45 34/67/47 42/68/48 41/66/46
f 34/67/47 27/53/33 35/56/36 42/68/48
f 35/56/36 36/55/35 44/69/49 43/70/50
f 36/55/35 37/58/38 45/71/51 44/69/49
f 37/58/38 38/60/40 46/72/52 45/71/51
f 38/60/40 39/62/42 47/73/53 46/72/52
f 39/62/42 40/64/44 48/74/54 47/73/53
f 40/64/44 41/66/46 49/75/55 48/74/54
f 41/66/46 42/68/48 50/76/56 49/75/55
f 42/68/48 35/56/36 43/70/50 50/76/56
f 28/54/34 27/53/33 83/141/97
f 29/57/37 28/54/34 83/141/97
f 30/59/39 29/57/37 83/141/97
f 31/61/41 30/59/39 83/141/97
f 32/63/43 31/61/41 83/141/97
f 33/65/45 32/63/43 83/141/97
f 34/67/47 33/65/45 83/141/97
f 27/53/33 34/67/47 83/141/97
s 4
f 43/77/57 44/78/58 52/79/59 51/80/60
f 44/78/58 45/81/61 53/82/62 52/79/59
f 45/83/61 46/84/63 54/85/64 53/86/62
f 46/84/63 47/87/65 55/88/66 54/85/64
f 47/89/65 48/90/67 56/91/68 55/92/66
f 48/90/67 49/93/69 57/94/70 56/91/68
f 49/95/69 50/96/71 58/97/72 57/98/70
f 50/96/71 43/99/57 51/100/60 58/97/72
f 51/80/60 52/79/59 60/101/73 59/102/74
f 52/103/59 53/86/62 61/104/75 60/105/73
f 53/86/62 54/85/64 62/106/76 61/104/75
f 54/85/64 55/88/66 63/107/77 62/106/76
f 55/92/66 56/91/68 64/108/78 63/109/77
f 56/91/68 57/94/70 65/110/79 64/108/78
f 57/98/70 58/97/72 66/111/80 65/112/79
f 58/97/72 51/100/60 59/113/74 66/111/80
f 59/114/74 60/115/73 68/116/81 67/117/82
f 60/115/73 61/118/75 69/119/83 68/116/81
f 61/104/75 62/106/76 70/120/84 69/121/83
f 62/106/76 63/107/77 71/122/85 70/120/84
f 63/109/77 64/108/78 72/123/86 71/124/85
f 64/108/78 65/110/79 73/125/87 72/123/86
f 65/126/79 66/127/80 74/128/88 73/129/87
f 66/127/80 59/114/74 67/117/82 74/128/88
f 67/117/82 68/116/81 76/130/89 75/131/90
f 68/116/81 69/119/83 77/132/91 76/130/89
f 69/121/83 70/120/84 78/133/92 77/134/91
f 70/120/84 71/122/85 79/135/93 78/133/92
f 71/124/85 72/123/86 80/136/94 79/137/93
f 72/123/86 73/125/87 81/138/95 80/136/94
f 73/129/87 74/128/88 82/139/96 81/140/95
f 74/128/88 67/117/82 75/131/90 82/139/96
f 75/131/90 76/130/89 84/142/98
f 76/130/89 77/132/91 84/142/98
f 77/132/91 78/143/92 84/142/98
f 78/143/92 79/144/93 84/142/98
f 79/144/93 80/145/94 84/142/98
f 80/145/94 81/140/95 84/142/98
f 81/140/95 82/139/96 84/142/98
f 82/139/96 75/131/90 84/142/98

# 94 faces
