# This file uses centimeters as units for non-parametric coordinates.

mtllib sofa_cushion.mtl
g default
v -0.985858 0.733702 2.152979
v -0.872606 0.708310 2.152979
v 0.124430 0.708310 2.152979
v 0.237683 0.733702 2.152979
v -1.032283 0.767077 2.179427
v -0.872606 0.767077 2.179427
v 0.124430 0.767077 2.179427
v 0.284108 0.767077 2.179427
v -1.032283 0.995130 2.179427
v -0.872606 0.995130 2.179427
v 0.124430 0.995130 2.179427
v 0.284108 0.995130 2.179427
v -0.993718 1.073786 2.147311
v -0.872606 1.067520 2.147311
v 0.124430 1.067520 2.147311
v 0.245543 1.073786 2.147311
v -0.993718 1.073786 0.076446
v -0.872606 1.067520 0.076446
v 0.124430 1.067520 0.076446
v 0.245543 1.073786 0.076446
v -1.032283 0.995128 0.044331
v -0.872606 0.995128 0.044331
v 0.124430 0.995128 0.044331
v 0.284108 0.995128 0.044331
v -1.032283 0.767077 0.044331
v -0.872606 0.767077 0.044331
v 0.124430 0.767077 0.044331
v 0.284108 0.767077 0.044331
v -0.985858 0.733702 0.070778
v -0.872606 0.708310 0.070778
v 0.124430 0.708310 0.070778
v 0.237683 0.733702 0.070778
vt 0.016354 0.266215
vt 0.016354 0.242921
vt 0.005000 0.242921
vt 0.005000 0.275764
vt 0.016354 0.037844
vt 0.005000 0.037844
vt 0.016354 0.014549
vt 0.005000 0.005000
vt 0.005000 0.563523
vt 0.037843 0.563523
vt 0.037843 0.592478
vt 0.005000 0.592478
vt 0.242921 0.563523
vt 0.242921 0.592478
vt 0.275764 0.563523
vt 0.275764 0.592478
vt 0.921580 0.284262
vt 0.921580 0.317105
vt 0.907793 0.317105
vt 0.907793 0.292194
vt 0.921580 0.522182
vt 0.907793 0.522182
vt 0.921580 0.555026
vt 0.907793 0.547094
vt 0.018787 0.317105
vt 0.018787 0.292194
vt 0.018787 0.522182
vt 0.018787 0.547094
vt 0.005000 0.317105
vt 0.005000 0.284262
vt 0.005000 0.522182
vt 0.005000 0.555026
vt 0.555026 0.563523
vt 0.522183 0.563523
vt 0.522183 0.592478
vt 0.555026 0.592478
vt 0.317105 0.563523
vt 0.317105 0.592478
vt 0.284262 0.563523
vt 0.284262 0.592478
vt 0.921580 0.275764
vt 0.921580 0.242921
vt 0.910227 0.242921
vt 0.910227 0.266215
vt 0.921580 0.037844
vt 0.910227 0.037844
vt 0.921580 0.005000
vt 0.910227 0.014549
vt 0.929453 0.921580
vt 0.929453 0.005000
vt 0.958407 0.005000
vt 0.958407 0.921580
vt 0.995000 0.921580
vt 0.995000 0.005000
vt 0.966045 0.005000
vt 0.966046 0.921580
vn -0.047947 -0.515354 0.855635
vn -0.004082 -0.419599 0.907700
vn -0.001272 -0.093253 0.995642
vn -0.005360 -0.057611 0.998325
vn -0.004082 -0.419599 0.907700
vn 0.004082 -0.419599 0.907700
vn 0.001272 -0.093253 0.995642
vn -0.001272 -0.093253 0.995642
vn 0.004082 -0.419599 0.907700
vn 0.047947 -0.515354 0.855635
vn 0.005360 -0.057611 0.998325
vn 0.001272 -0.093253 0.995642
vn -0.005360 -0.057611 0.998325
vn -0.001272 -0.093253 0.995642
vn 0.000322 0.105952 0.994371
vn 0.001841 0.082497 0.996590
vn -0.001272 -0.093253 0.995642
vn 0.001272 -0.093253 0.995642
vn -0.000322 0.105952 0.994371
vn 0.000322 0.105952 0.994371
vn 0.001272 -0.093253 0.995642
vn 0.005360 -0.057611 0.998325
vn -0.001841 0.082497 0.996590
vn -0.000322 0.105952 0.994371
vn 0.001841 0.082497 0.996590
vn 0.000322 0.105952 0.994371
vn 0.000972 0.403736 0.914875
vn 0.008691 0.389434 0.921013
vn 0.000322 0.105952 0.994371
vn -0.000322 0.105952 0.994371
vn -0.000972 0.403736 0.914875
vn 0.000972 0.403736 0.914875
vn -0.000322 0.105952 0.994371
vn -0.001841 0.082497 0.996590
vn -0.008691 0.389434 0.921013
vn -0.000972 0.403736 0.914875
vn 0.051671 0.998664 0.000000
vn 0.005604 0.999984 0.000000
vn 0.005604 0.999984 0.000000
vn 0.051671 0.998664 0.000000
vn 0.005604 0.999984 0.000000
vn -0.005604 0.999984 0.000000
vn -0.005604 0.999984 0.000000
vn 0.005604 0.999984 0.000000
vn -0.005604 0.999984 0.000000
vn -0.051671 0.998664 0.000000
vn -0.051671 0.998664 0.000000
vn -0.005604 0.999984 0.000000
vn 0.008690 0.389423 -0.921018
vn 0.000972 0.403724 -0.914880
vn 0.000322 0.105950 -0.994371
vn 0.001841 0.082496 -0.996590
vn 0.000972 0.403724 -0.914880
vn -0.000972 0.403724 -0.914880
vn -0.000322 0.105950 -0.994371
vn 0.000322 0.105950 -0.994371
vn -0.000972 0.403724 -0.914880
vn -0.008690 0.389423 -0.921018
vn -0.001841 0.082496 -0.996590
vn -0.000322 0.105950 -0.994371
vn 0.001841 0.082496 -0.996590
vn 0.000322 0.105950 -0.994371
vn -0.001272 -0.093252 -0.995642
vn -0.005360 -0.057609 -0.998325
vn 0.000322 0.105950 -0.994371
vn -0.000322 0.105950 -0.994371
vn 0.001272 -0.093252 -0.995642
vn -0.001272 -0.093252 -0.995642
vn -0.000322 0.105950 -0.994371
vn -0.001841 0.082496 -0.996590
vn 0.005360 -0.057609 -0.998325
vn 0.001272 -0.093252 -0.995642
vn -0.005360 -0.057609 -0.998325
vn -0.001272 -0.093252 -0.995642
vn -0.004082 -0.419593 -0.907703
vn -0.047946 -0.515347 -0.855639
vn -0.001272 -0.093252 -0.995642
vn 0.001272 -0.093252 -0.995642
vn 0.004082 -0.419593 -0.907703
vn -0.004082 -0.419593 -0.907703
vn 0.001272 -0.093252 -0.995642
vn 0.005360 -0.057609 -0.998325
vn 0.047946 -0.515347 -0.855639
vn 0.004082 -0.419593 -0.907703
vn -0.218782 -0.975774 0.000000
vn -0.022865 -0.999739 0.000000
vn -0.022865 -0.999739 0.000000
vn -0.218782 -0.975774 0.000000
vn -0.022865 -0.999739 0.000000
vn 0.022865 -0.999739 0.000000
vn 0.022865 -0.999739 0.000000
vn -0.022865 -0.999739 0.000000
vn 0.022865 -0.999739 0.000000
vn 0.218779 -0.975775 0.000000
vn 0.218779 -0.975775 0.000000
vn 0.022865 -0.999739 0.000000
vn 0.583710 -0.811962 0.000000
vn 0.583710 -0.811962 0.000000
vn 0.995961 -0.089787 0.000000
vn 0.995961 -0.089786 0.000000
vn 0.995961 -0.089786 0.000000
vn 0.995961 -0.089787 0.000000
vn 0.997625 0.068883 0.000000
vn 0.997625 0.068881 0.000000
vn 0.997625 0.068881 0.000000
vn 0.997625 0.068883 0.000000
vn 0.897886 0.440228 0.000000
vn 0.897886 0.440228 0.000000
vn -0.583711 -0.811961 0.000000
vn -0.583711 -0.811961 0.000000
vn -0.995961 -0.089785 0.000000
vn -0.995961 -0.089787 0.000000
vn -0.995961 -0.089787 0.000000
vn -0.995961 -0.089785 0.000000
vn -0.997625 0.068881 -0.000000
vn -0.997625 0.068883 -0.000000
vn -0.997625 0.068883 -0.000000
vn -0.997625 0.068881 -0.000000
vn -0.897887 0.440227 -0.000000
vn -0.897887 0.440227 -0.000000
s off
g sofa_cushion:pCube3
usemtl sofa_cushion:initialShadingGroup
f 1/1/1 2/2/2 6/3/3 5/4/4
f 2/2/5 3/5/6 7/6/7 6/3/8
f 3/5/9 4/7/10 8/8/11 7/6/12
f 5/9/13 6/10/14 10/11/15 9/12/16
f 6/10/17 7/13/18 11/14/19 10/11/20
f 7/13/21 8/15/22 12/16/23 11/14/24
f 9/17/25 10/18/26 14/19/27 13/20/28
f 10/18/29 11/21/30 15/22/31 14/19/32
f 11/21/33 12/23/34 16/24/35 15/22/36
f 13/20/37 14/19/38 18/25/39 17/26/40
f 14/19/41 15/22/42 19/27/43 18/25/44
f 15/22/45 16/24/46 20/28/47 19/27/48
f 17/26/49 18/25/50 22/29/51 21/30/52
f 18/25/53 19/27/54 23/31/55 22/29/56
f 19/27/57 20/28/58 24/32/59 23/31/60
f 21/33/61 22/34/62 26/35/63 25/36/64
f 22/34/65 23/37/66 27/38/67 26/35/68
f 23/37/69 24/39/70 28/40/71 27/38/72
f 25/41/73 26/42/74 30/43/75 29/44/76
f 26/42/77 27/45/78 31/46/79 30/43/80
f 27/45/81 28/47/82 32/48/83 31/46/84
f 29/44/85 30/43/86 2/2/87 1/1/88
f 30/43/89 31/46/90 3/5/91 2/2/92
f 31/46/93 32/48/94 4/7/95 3/5/96
f 4/7/97 32/48/98 28/47/99 8/8/100
f 8/49/101 28/50/102 24/51/103 12/52/104
f 12/23/105 24/32/106 20/28/107 16/24/108
f 29/44/109 1/1/110 5/4/111 25/41/112
f 25/53/113 5/54/114 9/55/115 21/56/116
f 21/30/117 9/17/118 13/20/119 17/26/120
