# Wavefront Obj file
# 
# verts: 74 uv-s: 92
mtllib stalactite3.mtl

g stalactite1_pCylinder2

v 0.561216 0.512137 -0.397592
v 0.272644 0.416989 -0.616305
v -0.075560 0.410307 -0.596117
v -0.659503 0.421263 -0.567354
v -0.670285 0.409386 -0.373530
v -0.634179 0.407738 -0.129733
v -0.633216 0.415642 0.069559
v -0.446107 0.794713 0.640530
v -0.159697 0.790941 0.733581
v 0.220895 0.398410 0.747246
v 0.598048 0.408535 0.459974
v 0.797906 0.502964 0.035151
v 0.361449 1.016288 -0.329139
v 0.168667 0.871971 -0.453184
v -0.179078 0.865237 -0.405981
v -0.473698 0.948996 -0.363883
v -0.550760 0.920011 -0.197272
v -0.529999 0.879809 -0.106937
v -0.496606 0.875013 0.151704
v -0.355508 1.035031 0.378508
v -0.144398 1.271832 0.435075
v 0.077910 1.270000 0.350413
v 0.308914 1.266292 0.138987
v 0.417399 1.263730 -0.111417
v 0.189678 1.704949 -0.051570
v -0.048781 1.682450 -0.222324
v -0.196261 1.583970 -0.245763
v -0.230329 1.533723 -0.190253
v -0.453085 1.646705 -0.109014
v -0.350150 1.861019 -0.066533
v -0.341914 1.900147 0.080749
v -0.270412 1.730380 0.190001
v -0.133295 1.612849 0.242238
v -0.033949 1.759256 0.281102
v 0.065559 1.841006 0.223188
v 0.159406 1.799926 0.101809
v -0.165961 2.628705 -0.053121
v -0.024633 2.398059 -0.087890
v -0.087735 2.433064 -0.128315
v -0.171581 2.444028 -0.130303
v -0.248221 2.439922 -0.094795
v -0.300871 2.426506 -0.035985
v -0.323150 2.400393 0.029233
v -0.310069 2.371387 0.091659
v -0.262656 2.344586 0.139353
v -0.191528 2.321743 0.159402
v -0.116224 2.308409 0.143536
v -0.048590 2.322718 0.085332
v -0.011388 2.355019 -0.005844
v -0.045753 0.000000 -0.023198
v 0.638092 0.096502 -0.469504
v 0.583669 0.000000 -0.419662
v 0.353680 0.110446 -0.723615
v 0.341939 0.000000 -0.667132
v -0.015207 0.105837 -0.871397
v 0.056490 0.000000 -0.871254
v -0.542828 0.103294 -0.794233
v -0.488614 0.000000 -0.717586
v -0.786518 0.108156 -0.362092
v -0.705081 0.000000 -0.304873
v -0.766083 0.102501 -0.065775
v -0.692237 0.000000 -0.074394
v -0.715763 0.102385 0.290888
v -0.639073 0.000000 0.258818
v -0.480338 0.148495 0.607234
v -0.432470 0.000000 0.518208
v -0.129943 0.194787 0.754697
v -0.075095 0.000000 0.680124
v 0.381764 0.102439 0.777866
v 0.333922 0.000000 0.700498
v 0.672314 0.111746 0.504041
v 0.602238 0.000000 0.466209
v 0.900950 0.090691 0.030489
v 0.819689 0.000000 0.006021
# 74 positions

vt 0.745294 0.899498
vt 0.799319 0.990000
vt 0.631610 0.990000
vt 0.579706 0.927257
vt 0.010000 0.190270
vt 0.096018 0.233399
vt 0.108046 0.384489
vt 0.013910 0.357153
vt 0.251108 0.274355
vt 0.191885 0.422421
vt 0.294241 0.299173
vt 0.243898 0.442099
vt 0.346699 0.333711
vt 0.273271 0.446842
vt 0.391028 0.354566
vt 0.334851 0.483053
vt 0.456041 0.512867
vt 0.372372 0.565307
vt 0.503780 0.564007
vt 0.382669 0.656797
vt 0.634268 0.553785
vt 0.416884 0.717425
vt 0.685252 0.658813
vt 0.462199 0.797451
vt 0.711706 0.774978
vt 0.496995 0.869698
vt 0.359653 0.971496
vt 0.355796 0.890209
vt 0.090623 0.592525
vt 0.048034 0.618311
vt 0.112345 0.584698
vt 0.167659 0.633962
vt 0.159925 0.700480
vt 0.191748 0.729124
vt 0.250137 0.713879
vt 0.302965 0.725053
vt 0.295463 0.775554
vt 0.292844 0.815989
vt 0.319865 0.852511
vt 0.133399 0.937845
vt 0.149009 0.921692
vt 0.060659 0.842020
vt 0.039478 0.837125
vt 0.080806 0.844329
vt 0.099463 0.846527
vt 0.116149 0.848733
vt 0.122252 0.834951
vt 0.136729 0.837033
vt 0.151823 0.834379
vt 0.161326 0.851890
vt 0.164485 0.874771
vt 0.160991 0.900727
vt 0.068285 0.903418
vt 0.871906 0.874368
vt 0.901463 0.856962
vt 0.939805 0.947013
vt 0.908050 0.968986
vt 0.822066 0.742383
vt 0.853565 0.733474
vt 0.019996 0.082216
vt 0.028363 0.047429
vt 0.117862 0.079144
vt 0.121588 0.113507
vt 0.261345 0.139897
vt 0.241857 0.171343
vt 0.380315 0.197713
vt 0.352415 0.228302
vt 0.438339 0.230342
vt 0.418451 0.259948
vt 0.517847 0.282716
vt 0.493789 0.308965
vt 0.596417 0.335919
vt 0.565185 0.375565
vt 0.680574 0.410767
vt 0.629169 0.445587
vt 0.748947 0.508954
vt 0.719894 0.532497
vt 0.801309 0.600358
vt 0.765804 0.619480
vt 0.718758 0.040625
vt 0.813289 0.040625
vt 0.770605 0.239363
vt 0.624354 0.057448
vt 0.550309 0.193344
vt 0.589652 0.314462
vt 0.637157 0.355959
vt 0.712443 0.409190
vt 0.802596 0.418333
vt 0.902484 0.379391
vt 0.984565 0.303329
vt 0.990000 0.206144
vt 0.941565 0.075769
# 92 texture coordinates

vn 0.688532 0.314440 -0.653491
vn 0.273082 0.401792 -0.874065
vn 0.168657 0.337365 -0.926142
vn 0.621678 0.392753 -0.677689
vn -0.016129 0.475539 -0.879547
vn -0.119135 0.308494 -0.943736
vn -0.584953 0.437794 -0.682763
vn -0.493928 0.362941 -0.790133
vn -0.960950 0.267786 -0.069755
vn -0.962127 0.268761 -0.045598
vn -0.949336 0.294192 0.110512
vn -0.952966 0.172546 0.249168
vn -0.944714 0.283281 0.165128
vn -0.946645 0.240854 0.214131
vn -0.748274 0.307039 0.588059
vn -0.703351 0.395257 0.590821
vn -0.124312 0.300673 0.945591
vn -0.126428 0.453989 0.881992
vn 0.407611 0.333848 0.849941
vn 0.403666 0.356546 0.842573
vn 0.722647 0.371093 0.583157
vn 0.721745 0.343829 0.600721
vn 0.934933 0.353953 -0.024865
vn 0.904184 0.426187 -0.028557
vn 0.248823 0.230942 -0.940613
vn 0.739650 0.347970 -0.576052
vn -0.246329 0.192031 -0.949971
vn -0.478458 0.202635 -0.854410
vn -0.960985 0.202824 -0.188070
vn -0.931906 0.087075 0.352094
vn -0.927940 0.119382 0.353094
vn -0.592606 0.179618 0.785210
vn -0.227726 0.223652 0.947692
vn 0.206650 0.249880 0.945968
vn 0.692994 0.285448 0.662027
vn 0.920853 0.369915 0.123261
vn 0.360259 0.301354 -0.882836
vn 0.846888 0.396325 -0.354552
vn -0.249595 0.258022 -0.933342
vn -0.566975 0.260570 -0.781436
vn -0.881695 0.362018 -0.302584
vn -0.900365 0.338963 0.272848
vn -0.773642 0.364189 0.518502
vn -0.394264 0.355799 0.847327
vn -0.077200 0.351354 0.933055
vn 0.250644 0.396779 0.883031
vn 0.632036 0.424602 0.648262
vn 0.862998 0.420266 0.280378
vn 0.003412 0.983859 0.178911
vn 0.766805 -0.151673 -0.623704
vn 0.659138 -0.547832 -0.515186
vn 0.545923 -0.314317 -0.776642
vn 0.497351 0.070820 -0.864654
vn 0.973753 -0.226658 -0.020775
vn 0.762137 -0.646980 -0.023754
vn 0.152681 -0.288030 -0.945371
vn 0.102085 0.182284 -0.977932
vn -0.459576 -0.586929 -0.666561
vn -0.605649 -0.114220 -0.787492
vn -0.755363 -0.635263 -0.160833
vn -0.962666 -0.210536 -0.170146
vn -0.799564 -0.595013 0.081587
vn -0.987003 -0.126698 0.098856
vn -0.727448 -0.600526 0.331946
vn -0.933964 -0.180423 0.308479
vn -0.488047 -0.538607 0.686813
vn -0.626016 -0.247496 0.739493
vn -0.207211 -0.473328 0.856168
vn -0.202885 -0.233397 0.950980
vn 0.241554 -0.569741 0.785523
vn 0.304026 -0.198045 0.931851
vn 0.624131 -0.624885 0.469020
vn 0.776815 -0.191143 0.600019
vn 0.000000 -1.000000 0.000000
vn 0.000000 -1.000000 0.000000
vn 0.000000 -1.000000 0.000000
vn 0.000000 -1.000000 0.000000
vn 0.000000 -1.000000 0.000000
vn 0.000000 -1.000000 0.000000
vn 0.000000 -1.000000 0.000000
vn 0.000000 -1.000000 0.000000
vn 0.000000 -1.000000 0.000000
vn 0.000000 -1.000000 0.000000
vn 0.000000 -1.000000 0.000000
vn 0.000000 -1.000000 0.000000
vn 0.000000 -1.000000 0.000000
# 86 normals

usemtl stalactite1_stalactite1_initialShadingGroup1
s 1
f 1/1/1 2/2/2 14/3/3 13/4/4
f 2/5/2 3/6/5 15/7/6 14/8/3
f 3/6/5 4/9/7 16/10/8 15/7/6
f 4/9/7 5/11/9 17/12/10 16/10/8
f 5/11/9 6/13/11 18/14/12 17/12/10
f 6/13/11 7/15/13 19/16/14 18/14/12
f 7/15/13 8/17/15 20/18/16 19/16/14
f 8/17/15 9/19/17 21/20/18 20/18/16
f 9/19/17 10/21/19 22/22/20 21/20/18
f 10/21/19 11/23/21 23/24/22 22/22/20
f 11/23/21 12/25/23 24/26/24 23/24/22
f 12/25/23 1/1/1 13/4/4 24/26/24
f 13/4/4 14/3/3 26/27/25 25/28/26
f 14/8/3 15/7/6 27/29/27 26/30/25
f 15/7/6 16/10/8 28/31/28 27/29/27
f 16/10/8 17/12/10 29/32/29 28/31/28
f 17/12/10 18/14/12 30/33/30 29/32/29
f 18/14/12 19/16/14 31/34/31 30/33/30
f 19/16/14 20/18/16 32/35/32 31/34/31
f 20/18/16 21/20/18 33/36/33 32/35/32
f 21/20/18 22/22/20 34/37/34 33/36/33
f 22/22/20 23/24/22 35/38/35 34/37/34
f 23/24/22 24/26/24 36/39/36 35/38/35
f 24/26/24 13/4/4 25/28/26 36/39/36
f 25/28/26 26/27/25 39/40/37 38/41/38
f 26/30/25 27/29/27 40/42/39 39/43/37
f 27/29/27 28/31/28 41/44/40 40/42/39
f 28/31/28 29/32/29 42/45/41 41/44/40
f 29/32/29 30/33/30 43/46/42 42/45/41
f 30/33/30 31/34/31 44/47/43 43/46/42
f 31/34/31 32/35/32 45/48/44 44/47/43
f 32/35/32 33/36/33 46/49/45 45/48/44
f 33/36/33 34/37/34 47/50/46 46/49/45
f 34/37/34 35/38/35 48/51/47 47/50/46
f 35/38/35 36/39/36 49/52/48 48/51/47
f 36/39/36 25/28/26 38/41/38 49/52/48
f 38/41/38 39/40/37 37/53/49
f 39/43/37 40/42/39 37/53/49
f 40/42/39 41/44/40 37/53/49
f 41/44/40 42/45/41 37/53/49
f 42/45/41 43/46/42 37/53/49
f 43/46/42 44/47/43 37/53/49
f 44/47/43 45/48/44 37/53/49
f 45/48/44 46/49/45 37/53/49
f 46/49/45 47/50/46 37/53/49
f 47/50/46 48/51/47 37/53/49
f 48/51/47 49/52/48 37/53/49
f 49/52/48 38/41/38 37/53/49
f 51/54/50 52/55/51 54/56/52 53/57/53
f 52/55/51 51/54/50 73/58/54 74/59/55
f 53/60/53 54/61/52 56/62/56 55/63/57
f 55/63/57 56/62/56 58/64/58 57/65/59
f 57/65/59 58/64/58 60/66/60 59/67/61
f 59/67/61 60/66/60 62/68/62 61/69/63
f 61/69/63 62/68/62 64/70/64 63/71/65
f 63/71/65 64/70/64 66/72/66 65/73/67
f 65/73/67 66/72/66 68/74/68 67/75/69
f 67/75/69 68/74/68 70/76/70 69/77/71
f 69/77/71 70/76/70 72/78/72 71/79/73
f 71/79/73 72/78/72 74/59/55 73/58/54
f 51/54/50 53/57/53 2/2/2 1/1/1
f 53/60/53 55/63/57 3/6/5 2/5/2
f 55/63/57 57/65/59 4/9/7 3/6/5
f 57/65/59 59/67/61 5/11/9 4/9/7
f 59/67/61 61/69/63 6/13/11 5/11/9
f 61/69/63 63/71/65 7/15/13 6/13/11
f 63/71/65 65/73/67 8/17/15 7/15/13
f 65/73/67 67/75/69 9/19/17 8/17/15
f 67/75/69 69/77/71 10/21/19 9/19/17
f 69/77/71 71/79/73 11/23/21 10/21/19
f 71/79/73 73/58/54 12/25/23 11/23/21
f 73/58/54 51/54/50 1/1/1 12/25/23
s 2
f 54/80/74 52/81/75 50/82/76
f 56/83/77 54/80/74 50/82/76
f 58/84/78 56/83/77 50/82/76
f 60/85/79 58/84/78 50/82/76
f 62/86/80 60/85/79 50/82/76
f 64/87/81 62/86/80 50/82/76
f 66/88/82 64/87/81 50/82/76
f 68/89/83 66/88/82 50/82/76
f 70/90/84 68/89/83 50/82/76
f 72/91/85 70/90/84 50/82/76
f 74/92/86 72/91/85 50/82/76
f 52/81/75 74/92/86 50/82/76

# 84 faces
