# Wavefront Obj file
# 
# verts: 74 uv-s: 92
mtllib stalactite1.mtl

g pCylinder1

v 1.137797 0.912406 -0.876054
v 0.579261 0.892692 -1.309404
v -0.097369 0.871740 -1.229668
v -0.609535 0.895018 -0.784128
v -1.186180 0.869783 -0.574720
v -1.501307 0.866282 -0.045830
v -1.372163 0.883074 0.813554
v -0.947800 0.891544 1.384040
v -0.345981 0.891544 1.545297
v 0.272036 0.883074 1.254116
v 0.755194 0.867975 0.555369
v 1.168315 0.892917 -0.227860
v 0.767936 1.848644 -0.699290
v 0.358351 1.852594 -0.994502
v -0.244852 1.951010 -0.930250
v -0.742567 2.018619 -0.676384
v -1.086411 1.954658 -0.449127
v -1.198946 1.869246 -0.073158
v -1.080117 1.859056 0.428724
v -0.755314 1.867857 0.804179
v -0.306788 1.867857 0.924361
v 0.165528 1.863965 0.744488
v 0.656319 1.856086 0.295293
v 0.886807 1.850643 -0.236716
v 0.130157 4.018943 -0.347662
v -0.003437 3.922982 -0.728712
v -0.152121 3.692492 -0.786574
v -0.403363 3.608829 -0.659879
v -0.697770 3.825779 -0.496036
v -0.843222 4.140098 -0.257117
v -0.746410 4.059431 0.158766
v -0.563132 3.674903 0.403120
v -0.279234 3.426153 0.514466
v -0.072129 3.737721 0.597230
v 0.139287 3.911409 0.474187
v 0.214360 3.963340 0.136693
v -0.352602 5.938402 0.176465
v -0.052336 5.094926 -0.186731
v -0.186403 5.169298 -0.272619
v -0.364541 5.192591 -0.276842
v -0.527372 5.183867 -0.201402
v -0.639232 5.155363 -0.076454
v -0.686565 5.099885 0.062108
v -0.658774 5.038257 0.194740
v -0.558039 4.981316 0.296071
v -0.406921 4.932784 0.338666
v -0.246930 4.904454 0.304957
v -0.103235 4.934856 0.181297
v -0.024195 5.003483 -0.012416
v -0.097208 0.000000 -0.048674
v 1.348969 0.234369 -1.001371
v 1.178554 0.000000 -0.926933
v 0.751429 0.234653 -1.510128
v 0.726485 0.000000 -1.332448
v -0.007120 0.224861 -1.458294
v 0.120019 0.000000 -1.313789
v -0.599105 0.219458 -0.914896
v -0.483920 0.000000 -0.752051
v -1.327862 0.229789 -0.712382
v -1.200458 0.000000 -0.558742
v -1.581126 0.217773 -0.145412
v -1.386992 0.000000 -0.142738
v -1.519910 0.213198 0.675494
v -1.357776 0.000000 0.549886
v -1.020527 0.198873 1.290131
v -0.918828 0.000000 1.100986
v -0.328742 0.208390 1.573194
v -0.312115 0.000000 1.357394
v 0.284178 0.217642 1.350116
v 0.182533 0.000000 1.185739
v 0.901481 0.237417 0.768346
v 0.752598 0.000000 0.687968
v 1.387243 0.232965 -0.237765
v 1.214596 0.000000 -0.289749
# 74 positions

vt 0.718708 0.180651
vt 0.797584 0.137148
vt 0.847493 0.285374
vt 0.783311 0.314402
vt 0.155359 0.976218
vt 0.193245 0.885544
vt 0.357750 0.902509
vt 0.317019 0.978315
vt 0.235028 0.803806
vt 0.395094 0.833222
vt 0.265614 0.733136
vt 0.409006 0.775579
vt 0.297539 0.662535
vt 0.426415 0.720020
vt 0.347269 0.569732
vt 0.466391 0.656084
vt 0.385121 0.499226
vt 0.508737 0.595193
vt 0.425118 0.441657
vt 0.552100 0.539709
vt 0.478769 0.384384
vt 0.600133 0.483399
vt 0.559343 0.317114
vt 0.666477 0.415306
vt 0.647510 0.239368
vt 0.727360 0.358053
vt 0.946585 0.591256
vt 0.905692 0.631119
vt 0.600324 0.966139
vt 0.632390 0.989812
vt 0.603886 0.925507
vt 0.650128 0.889426
vt 0.706215 0.867017
vt 0.730291 0.809581
vt 0.713644 0.742063
vt 0.713782 0.685573
vt 0.764799 0.688018
vt 0.804170 0.683238
vt 0.845569 0.661019
vt 0.978349 0.788277
vt 0.954631 0.783210
vt 0.832926 0.956392
vt 0.827350 0.979941
vt 0.839420 0.933385
vt 0.844628 0.911876
vt 0.846374 0.891697
vt 0.848866 0.872704
vt 0.854377 0.853005
vt 0.863755 0.832506
vt 0.877496 0.813512
vt 0.899773 0.797743
vt 0.927821 0.785553
vt 0.962954 0.929874
vt 0.665404 0.097082
vt 0.636444 0.064259
vt 0.700661 0.005100
vt 0.740681 0.031933
vt 0.589682 0.156737
vt 0.566964 0.119873
vt 0.044851 0.958372
vt 0.012783 0.930692
vt 0.058504 0.860340
vt 0.098328 0.869646
vt 0.097887 0.753013
vt 0.136353 0.771607
vt 0.148917 0.667089
vt 0.184301 0.691812
vt 0.177213 0.605296
vt 0.215244 0.621970
vt 0.222187 0.514785
vt 0.258735 0.533258
vt 0.267393 0.425838
vt 0.301917 0.448625
vt 0.320523 0.348275
vt 0.354253 0.373971
vt 0.371474 0.291490
vt 0.404852 0.315824
vt 0.452348 0.215365
vt 0.483177 0.246523
vt 0.127598 0.424687
vt 0.052445 0.386654
vt 0.191689 0.223076
vt 0.208155 0.400345
vt 0.268814 0.303356
vt 0.357826 0.251660
vt 0.367827 0.189223
vt 0.338969 0.097506
vt 0.260333 0.039502
vt 0.169835 0.027008
vt 0.109764 0.067814
vt 0.051337 0.155015
vt 0.024669 0.302608
# 92 texture coordinates

vn 0.818523 0.366229 -0.442602
vn 0.256331 0.341847 -0.904121
vn 0.319612 0.274915 -0.906791
vn 0.831749 0.336977 -0.441180
vn -0.367260 0.208246 -0.906506
vn -0.292599 0.144255 -0.945292
vn -0.494421 0.136421 -0.858451
vn -0.488734 0.092171 -0.867550
vn -0.667973 0.195733 -0.717984
vn -0.718751 0.135719 -0.681893
vn -0.961198 0.232026 -0.149204
vn -0.970262 0.215183 -0.110849
vn -0.892825 0.244864 0.378027
vn -0.853255 0.296304 0.429139
vn -0.551107 0.261664 0.792346
vn -0.482426 0.375173 0.791524
vn 0.052813 0.292199 0.954898
vn -0.004358 0.369395 0.929262
vn 0.569663 0.291410 0.768482
vn 0.464050 0.281473 0.839899
vn 0.802055 0.275391 0.529970
vn 0.802280 0.223931 0.553355
vn 0.934751 0.305788 0.180925
vn 0.950981 0.284953 0.120157
vn 0.426987 0.270697 -0.862789
vn 0.892249 0.266078 -0.364822
vn -0.251131 0.193921 -0.948329
vn -0.477878 0.165710 -0.862654
vn -0.688825 0.190819 -0.699363
vn -0.974495 0.174874 -0.140636
vn -0.868468 0.131383 0.478018
vn -0.502475 0.152053 0.851116
vn -0.169080 0.159571 0.972599
vn 0.228460 0.192903 0.954251
vn 0.755079 0.242998 0.608940
vn 0.961232 0.260070 0.091631
vn 0.423963 0.438164 -0.792633
vn 0.890756 0.332335 -0.310011
vn -0.206924 0.401307 -0.892264
vn -0.526342 0.353542 -0.773287
vn -0.756999 0.346658 -0.553878
vn -0.959408 0.278667 -0.043374
vn -0.837839 0.173229 0.517704
vn -0.482411 0.137117 0.865147
vn -0.129795 0.136796 0.982059
vn 0.274043 0.199422 0.940814
vn 0.739136 0.253410 0.624068
vn 0.949990 0.262697 0.168845
vn -0.084207 0.944552 0.317380
vn 0.884525 -0.152474 -0.440872
vn 0.710918 -0.608873 -0.351951
vn 0.265444 -0.599234 -0.755287
vn 0.302038 -0.150819 -0.941290
vn 0.965590 -0.165042 0.200993
vn 0.780626 -0.605356 0.155457
vn -0.283792 -0.643897 -0.710534
vn -0.380147 -0.232770 -0.895157
vn -0.364002 -0.658444 -0.658752
vn -0.473762 -0.262697 -0.840559
vn -0.485898 -0.666549 -0.565346
vn -0.628336 -0.244755 -0.738437
vn -0.750324 -0.645327 -0.143411
vn -0.950928 -0.254053 -0.176616
vn -0.680321 -0.688935 0.250065
vn -0.878442 -0.331814 0.343860
vn -0.419079 -0.719848 0.553346
vn -0.541502 -0.398413 0.740299
vn -0.004677 -0.719511 0.694466
vn 0.014490 -0.382954 0.923654
vn 0.401234 -0.648610 0.646774
vn 0.539517 -0.267376 0.798393
vn 0.639386 -0.608489 0.470028
vn 0.805310 -0.185032 0.563240
vn 0.000000 -1.000000 0.000000
vn 0.000000 -1.000000 0.000000
vn 0.000000 -1.000000 0.000000
vn 0.000000 -1.000000 0.000000
vn 0.000000 -1.000000 0.000000
vn 0.000000 -1.000000 0.000000
vn 0.000000 -1.000000 0.000000
vn 0.000000 -1.000000 0.000000
vn 0.000000 -1.000000 0.000000
vn 0.000000 -1.000000 0.000000
vn 0.000000 -1.000000 0.000000
vn 0.000000 -1.000000 0.000000
vn 0.000000 -1.000000 0.000000
# 86 normals

usemtl stalactite1_initialShadingGroup
s 1
f 1/1/1 2/2/2 14/3/3 13/4/4
f 2/5/2 3/6/5 15/7/6 14/8/3
f 3/6/5 4/9/7 16/10/8 15/7/6
f 4/9/7 5/11/9 17/12/10 16/10/8
f 5/11/9 6/13/11 18/14/12 17/12/10
f 6/13/11 7/15/13 19/16/14 18/14/12
f 7/15/13 8/17/15 20/18/16 19/16/14
f 8/17/15 9/19/17 21/20/18 20/18/16
f 9/19/17 10/21/19 22/22/20 21/20/18
f 10/21/19 11/23/21 23/24/22 22/22/20
f 11/23/21 12/25/23 24/26/24 23/24/22
f 12/25/23 1/1/1 13/4/4 24/26/24
f 13/4/4 14/3/3 26/27/25 25/28/26
f 14/8/3 15/7/6 27/29/27 26/30/25
f 15/7/6 16/10/8 28/31/28 27/29/27
f 16/10/8 17/12/10 29/32/29 28/31/28
f 17/12/10 18/14/12 30/33/30 29/32/29
f 18/14/12 19/16/14 31/34/31 30/33/30
f 19/16/14 20/18/16 32/35/32 31/34/31
f 20/18/16 21/20/18 33/36/33 32/35/32
f 21/20/18 22/22/20 34/37/34 33/36/33
f 22/22/20 23/24/22 35/38/35 34/37/34
f 23/24/22 24/26/24 36/39/36 35/38/35
f 24/26/24 13/4/4 25/28/26 36/39/36
f 25/28/26 26/27/25 39/40/37 38/41/38
f 26/30/25 27/29/27 40/42/39 39/43/37
f 27/29/27 28/31/28 41/44/40 40/42/39
f 28/31/28 29/32/29 42/45/41 41/44/40
f 29/32/29 30/33/30 43/46/42 42/45/41
f 30/33/30 31/34/31 44/47/43 43/46/42
f 31/34/31 32/35/32 45/48/44 44/47/43
f 32/35/32 33/36/33 46/49/45 45/48/44
f 33/36/33 34/37/34 47/50/46 46/49/45
f 34/37/34 35/38/35 48/51/47 47/50/46
f 35/38/35 36/39/36 49/52/48 48/51/47
f 36/39/36 25/28/26 38/41/38 49/52/48
f 38/41/38 39/40/37 37/53/49
f 39/43/37 40/42/39 37/53/49
f 40/42/39 41/44/40 37/53/49
f 41/44/40 42/45/41 37/53/49
f 42/45/41 43/46/42 37/53/49
f 43/46/42 44/47/43 37/53/49
f 44/47/43 45/48/44 37/53/49
f 45/48/44 46/49/45 37/53/49
f 46/49/45 47/50/46 37/53/49
f 47/50/46 48/51/47 37/53/49
f 48/51/47 49/52/48 37/53/49
f 49/52/48 38/41/38 37/53/49
f 51/54/50 52/55/51 54/56/52 53/57/53
f 52/55/51 51/54/50 73/58/54 74/59/55
f 53/60/53 54/61/52 56/62/56 55/63/57
f 55/63/57 56/62/56 58/64/58 57/65/59
f 57/65/59 58/64/58 60/66/60 59/67/61
f 59/67/61 60/66/60 62/68/62 61/69/63
f 61/69/63 62/68/62 64/70/64 63/71/65
f 63/71/65 64/70/64 66/72/66 65/73/67
f 65/73/67 66/72/66 68/74/68 67/75/69
f 67/75/69 68/74/68 70/76/70 69/77/71
f 69/77/71 70/76/70 72/78/72 71/79/73
f 71/79/73 72/78/72 74/59/55 73/58/54
f 51/54/50 53/57/53 2/2/2 1/1/1
f 53/60/53 55/63/57 3/6/5 2/5/2
f 55/63/57 57/65/59 4/9/7 3/6/5
f 57/65/59 59/67/61 5/11/9 4/9/7
f 59/67/61 61/69/63 6/13/11 5/11/9
f 61/69/63 63/71/65 7/15/13 6/13/11
f 63/71/65 65/73/67 8/17/15 7/15/13
f 65/73/67 67/75/69 9/19/17 8/17/15
f 67/75/69 69/77/71 10/21/19 9/19/17
f 69/77/71 71/79/73 11/23/21 10/21/19
f 71/79/73 73/58/54 12/25/23 11/23/21
f 73/58/54 51/54/50 1/1/1 12/25/23
s 2
f 54/80/74 52/81/75 50/82/76
f 56/83/77 54/80/74 50/82/76
f 58/84/78 56/83/77 50/82/76
f 60/85/79 58/84/78 50/82/76
f 62/86/80 60/85/79 50/82/76
f 64/87/81 62/86/80 50/82/76
f 66/88/82 64/87/81 50/82/76
f 68/89/83 66/88/82 50/82/76
f 70/90/84 68/89/83 50/82/76
f 72/91/85 70/90/84 50/82/76
f 74/92/86 72/91/85 50/82/76
f 52/81/75 74/92/86 50/82/76

# 84 faces
