# Wavefront Obj file
# 
# verts: 74 uv-s: 92
mtllib stalactite2.mtl

g pCylinder1

v 0.922347 0.700767 -0.539843
v 0.460172 0.685625 -0.831348
v -0.127625 0.669533 -0.866803
v -0.710832 0.687412 -1.129449
v -1.270476 0.668030 -0.792004
v -1.408611 0.665341 0.041891
v -1.320259 0.678238 0.886615
v -0.779682 0.684744 1.142462
v -0.317459 0.684744 1.266315
v 0.284513 0.678238 1.188200
v 0.723918 0.666642 0.958077
v 1.301769 0.685798 0.323042
v 0.470668 1.908212 -0.139781
v 0.249484 1.422321 -0.518973
v -0.240136 1.496378 -0.640114
v -0.675094 1.547947 -0.767902
v -1.181571 1.501261 -0.671286
v -1.464416 1.435660 -0.576781
v -1.007080 1.433370 0.456345
v -0.650828 2.417009 0.462825
v -0.399251 2.567348 0.592364
v -0.015793 2.748583 0.371062
v 0.255049 2.328705 0.267824
v 0.426880 1.903439 0.176345
v 0.064632 3.101902 -0.385894
v -0.082901 2.738627 -0.550448
v -0.236571 2.549989 -0.641057
v -0.473139 2.724568 -0.498410
v -1.014589 2.831095 -0.806221
v -1.171952 2.897285 -0.588229
v -0.727942 2.793713 0.139413
v -0.492084 3.225300 0.201069
v -0.094964 3.583918 0.309275
v 0.207390 3.485935 0.143942
v 0.171685 3.222695 -0.024644
v 0.227908 3.131323 -0.229206
v 0.431734 5.047548 -0.985489
v 0.183626 4.087403 -0.783982
v 0.039378 4.152286 -0.876921
v -0.127083 4.169724 -0.886910
v -0.285120 4.131546 -0.769721
v -0.419116 4.069079 -0.569640
v -0.492487 4.011320 -0.374876
v -0.456380 3.992806 -0.238032
v -0.316764 4.039244 -0.185728
v -0.145379 4.110456 -0.218221
v 0.012139 4.103648 -0.305910
v 0.147150 4.075580 -0.446545
v 0.225271 4.049904 -0.628602
v -0.126391 0.000000 0.042077
v 0.984335 0.180005 -0.689635
v 0.853449 0.000000 -0.632463
v 0.525398 0.180223 -1.080382
v 0.506240 0.000000 -0.943916
v -0.128795 0.172703 -1.342598
v -0.031147 0.000000 -1.231612
v -0.702821 0.168553 -1.229884
v -0.614354 0.000000 -1.104812
v -1.379294 0.176488 -0.897735
v -1.302953 0.000000 -0.779983
v -1.469915 0.167259 -0.034592
v -1.320812 0.000000 -0.032538
v -1.433735 0.163745 0.780579
v -1.309209 0.000000 0.684107
v -0.835539 0.152743 1.070336
v -0.757430 0.000000 0.925065
v -0.304219 0.160052 1.287741
v -0.291449 0.000000 1.121997
v 0.241636 0.167158 1.342598
v 0.185063 0.000000 1.213391
v 0.873726 0.182346 1.079575
v 0.845539 0.000000 0.966817
v 1.469915 0.178927 0.315434
v 1.337315 0.000000 0.275509
# 74 positions

vt 0.758425 0.872821
vt 0.780202 0.950802
vt 0.622272 0.927834
vt 0.534975 0.856291
vt 0.027457 0.195528
vt 0.106027 0.232118
vt 0.083812 0.366898
vt 0.013945 0.339327
vt 0.200633 0.248157
vt 0.149493 0.386524
vt 0.293579 0.283232
vt 0.230736 0.396989
vt 0.404417 0.339043
vt 0.276170 0.402359
vt 0.506274 0.399882
vt 0.414565 0.493252
vt 0.565587 0.451036
vt 0.357698 0.639458
vt 0.607650 0.497443
vt 0.370817 0.688546
vt 0.651327 0.568659
vt 0.374997 0.767621
vt 0.685544 0.630991
vt 0.449132 0.790285
vt 0.732431 0.741770
vt 0.519783 0.804112
vt 0.401164 0.950802
vt 0.341190 0.920162
vt 0.056657 0.533180
vt 0.028264 0.562818
vt 0.086357 0.570371
vt 0.164298 0.583687
vt 0.194484 0.602312
vt 0.289956 0.662893
vt 0.264886 0.728263
vt 0.255871 0.802180
vt 0.278960 0.843006
vt 0.320518 0.855160
vt 0.335253 0.886190
vt 0.177362 0.990000
vt 0.176604 0.962326
vt 0.038311 0.800693
vt 0.013284 0.800291
vt 0.067004 0.795426
vt 0.101318 0.784902
vt 0.133714 0.786307
vt 0.154123 0.795621
vt 0.158273 0.819524
vt 0.157511 0.849240
vt 0.165996 0.877444
vt 0.177454 0.907279
vt 0.182428 0.937525
vt 0.010000 0.969653
vt 0.847626 0.863105
vt 0.881611 0.851590
vt 0.911806 0.917971
vt 0.882547 0.942878
vt 0.800689 0.713256
vt 0.830595 0.701725
vt 0.063186 0.104039
vt 0.075746 0.070064
vt 0.157022 0.107961
vt 0.158709 0.140178
vt 0.246916 0.141136
vt 0.235506 0.173009
vt 0.353577 0.195602
vt 0.330962 0.220110
vt 0.463290 0.242706
vt 0.443059 0.270711
vt 0.556445 0.308338
vt 0.538031 0.334776
vt 0.640370 0.358833
vt 0.617631 0.384362
vt 0.696260 0.418834
vt 0.671730 0.444738
vt 0.740043 0.481629
vt 0.716353 0.507132
vt 0.790458 0.576212
vt 0.760009 0.588872
vt 0.614837 0.197130
vt 0.636771 0.130816
vt 0.788061 0.224859
vt 0.607561 0.288119
vt 0.659913 0.360555
vt 0.745757 0.435588
vt 0.849402 0.393245
vt 0.947054 0.348705
vt 0.947054 0.258542
vt 0.946154 0.182792
vt 0.930140 0.111921
vt 0.856720 0.036059
vt 0.732378 0.010000
# 92 texture coordinates

vn 0.714373 0.405511 -0.570291
vn 0.339379 0.442683 -0.829973
vn 0.421682 0.247850 -0.872212
vn 0.788118 0.327525 -0.521151
vn 0.204164 0.441613 -0.873668
vn 0.213262 0.208928 -0.954394
vn -0.098260 0.351317 -0.931086
vn 0.051884 0.194802 -0.979469
vn -0.755161 0.161349 -0.635373
vn -0.471170 0.069346 -0.879312
vn -0.987214 0.149344 -0.055720
vn -0.976340 0.150773 -0.155006
vn -0.821620 0.225215 0.523659
vn -0.812212 0.322673 0.485997
vn -0.459775 0.160699 0.873375
vn -0.601359 0.357110 0.714731
vn -0.122848 0.216078 0.968617
vn -0.068489 0.324469 0.943414
vn 0.312271 0.314691 0.896357
vn 0.558457 0.254700 0.789464
vn 0.623268 0.377343 0.684945
vn 0.795299 0.310200 0.520841
vn 0.893464 0.429886 0.130077
vn 0.926475 0.366534 0.085415
vn 0.571019 -0.075975 -0.817414
vn 0.842949 -0.057734 -0.534886
vn 0.039981 -0.037042 -0.998514
vn -0.052356 -0.000320 -0.998628
vn -0.288773 0.149971 -0.945579
vn -0.930919 0.352983 -0.093772
vn -0.784856 0.321370 0.529832
vn -0.636624 0.399223 0.659796
vn -0.026444 0.484588 0.874343
vn 0.763871 0.285026 0.579017
vn 0.935240 0.170801 0.310086
vn 0.995941 0.074645 -0.050290
vn 0.427742 -0.231479 -0.873759
vn 0.751513 -0.288851 -0.593121
vn -0.212634 -0.032440 -0.976593
vn -0.519096 0.198392 -0.831372
vn -0.658266 0.484964 -0.575756
vn -0.800335 0.596595 0.059484
vn -0.658936 0.570705 0.489999
vn -0.452530 0.599745 0.659941
vn 0.086087 0.610824 0.787072
vn 0.714424 0.369914 0.593937
vn 0.918131 0.120813 0.377411
vn 0.990377 -0.130828 -0.045140
vn 0.028476 0.999568 0.007221
vn 0.774672 -0.143702 -0.615820
vn 0.649216 -0.568161 -0.505680
vn 0.460987 -0.523469 -0.716569
vn 0.484767 -0.027522 -0.874210
vn 0.979413 -0.167651 0.112440
vn 0.793808 -0.603316 0.076668
vn 0.111112 -0.569133 -0.814703
vn 0.156346 -0.006164 -0.987683
vn -0.247184 -0.634280 -0.732522
vn -0.252136 -0.165158 -0.953494
vn -0.633136 -0.658074 -0.407526
vn -0.806396 -0.246129 -0.537723
vn -0.797932 -0.602473 -0.018204
vn -0.971923 -0.233914 -0.025495
vn -0.583601 -0.724956 0.365853
vn -0.768563 -0.389240 0.507743
vn -0.285015 -0.706053 0.648271
vn -0.354821 -0.408914 0.840768
vn -0.183301 -0.691468 0.698766
vn -0.185480 -0.344044 0.920451
vn 0.102044 -0.638292 0.763001
vn 0.177062 -0.228100 0.957403
vn 0.505794 -0.570687 0.646908
vn 0.603108 -0.149248 0.783573
vn 0.000000 -1.000000 0.000000
vn 0.000000 -1.000000 0.000000
vn 0.000000 -1.000000 0.000000
vn 0.000000 -1.000000 0.000000
vn 0.000000 -1.000000 0.000000
vn 0.000000 -1.000000 0.000000
vn 0.000000 -1.000000 0.000000
vn 0.000000 -1.000000 0.000000
vn 0.000000 -1.000000 0.000000
vn 0.000000 -1.000000 0.000000
vn 0.000000 -1.000000 0.000000
vn 0.000000 -1.000000 0.000000
vn 0.000000 -1.000000 0.000000
# 86 normals

usemtl stalactite1_stalactite1_initialShadingGroup
s 1
f 1/1/1 2/2/2 14/3/3 13/4/4
f 2/5/2 3/6/5 15/7/6 14/8/3
f 3/6/5 4/9/7 16/10/8 15/7/6
f 4/9/7 5/11/9 17/12/10 16/10/8
f 5/11/9 6/13/11 18/14/12 17/12/10
f 6/13/11 7/15/13 19/16/14 18/14/12
f 7/15/13 8/17/15 20/18/16 19/16/14
f 8/17/15 9/19/17 21/20/18 20/18/16
f 9/19/17 10/21/19 22/22/20 21/20/18
f 10/21/19 11/23/21 23/24/22 22/22/20
f 11/23/21 12/25/23 24/26/24 23/24/22
f 12/25/23 1/1/1 13/4/4 24/26/24
f 13/4/4 14/3/3 26/27/25 25/28/26
f 14/8/3 15/7/6 27/29/27 26/30/25
f 15/7/6 16/10/8 28/31/28 27/29/27
f 16/10/8 17/12/10 29/32/29 28/31/28
f 17/12/10 18/14/12 30/33/30 29/32/29
f 18/14/12 19/16/14 31/34/31 30/33/30
f 19/16/14 20/18/16 32/35/32 31/34/31
f 20/18/16 21/20/18 33/36/33 32/35/32
f 21/20/18 22/22/20 34/37/34 33/36/33
f 22/22/20 23/24/22 35/38/35 34/37/34
f 23/24/22 24/26/24 36/39/36 35/38/35
f 24/26/24 13/4/4 25/28/26 36/39/36
f 25/28/26 26/27/25 39/40/37 38/41/38
f 26/30/25 27/29/27 40/42/39 39/43/37
f 27/29/27 28/31/28 41/44/40 40/42/39
f 28/31/28 29/32/29 42/45/41 41/44/40
f 29/32/29 30/33/30 43/46/42 42/45/41
f 30/33/30 31/34/31 44/47/43 43/46/42
f 31/34/31 32/35/32 45/48/44 44/47/43
f 32/35/32 33/36/33 46/49/45 45/48/44
f 33/36/33 34/37/34 47/50/46 46/49/45
f 34/37/34 35/38/35 48/51/47 47/50/46
f 35/38/35 36/39/36 49/52/48 48/51/47
f 36/39/36 25/28/26 38/41/38 49/52/48
f 38/41/38 39/40/37 37/53/49
f 39/43/37 40/42/39 37/53/49
f 40/42/39 41/44/40 37/53/49
f 41/44/40 42/45/41 37/53/49
f 42/45/41 43/46/42 37/53/49
f 43/46/42 44/47/43 37/53/49
f 44/47/43 45/48/44 37/53/49
f 45/48/44 46/49/45 37/53/49
f 46/49/45 47/50/46 37/53/49
f 47/50/46 48/51/47 37/53/49
f 48/51/47 49/52/48 37/53/49
f 49/52/48 38/41/38 37/53/49
f 51/54/50 52/55/51 54/56/52 53/57/53
f 52/55/51 51/54/50 73/58/54 74/59/55
f 53/60/53 54/61/52 56/62/56 55/63/57
f 55/63/57 56/62/56 58/64/58 57/65/59
f 57/65/59 58/64/58 60/66/60 59/67/61
f 59/67/61 60/66/60 62/68/62 61/69/63
f 61/69/63 62/68/62 64/70/64 63/71/65
f 63/71/65 64/70/64 66/72/66 65/73/67
f 65/73/67 66/72/66 68/74/68 67/75/69
f 67/75/69 68/74/68 70/76/70 69/77/71
f 69/77/71 70/76/70 72/78/72 71/79/73
f 71/79/73 72/78/72 74/59/55 73/58/54
f 51/54/50 53/57/53 2/2/2 1/1/1
f 53/60/53 55/63/57 3/6/5 2/5/2
f 55/63/57 57/65/59 4/9/7 3/6/5
f 57/65/59 59/67/61 5/11/9 4/9/7
f 59/67/61 61/69/63 6/13/11 5/11/9
f 61/69/63 63/71/65 7/15/13 6/13/11
f 63/71/65 65/73/67 8/17/15 7/15/13
f 65/73/67 67/75/69 9/19/17 8/17/15
f 67/75/69 69/77/71 10/21/19 9/19/17
f 69/77/71 71/79/73 11/23/21 10/21/19
f 71/79/73 73/58/54 12/25/23 11/23/21
f 73/58/54 51/54/50 1/1/1 12/25/23
s 2
f 54/80/74 52/81/75 50/82/76
f 56/83/77 54/80/74 50/82/76
f 58/84/78 56/83/77 50/82/76
f 60/85/79 58/84/78 50/82/76
f 62/86/80 60/85/79 50/82/76
f 64/87/81 62/86/80 50/82/76
f 66/88/82 64/87/81 50/82/76
f 68/89/83 66/88/82 50/82/76
f 70/90/84 68/89/83 50/82/76
f 72/91/85 70/90/84 50/82/76
f 74/92/86 72/91/85 50/82/76
f 52/81/75 74/92/86 50/82/76

# 84 faces
