# Wavefront Obj file
# 
# verts: 128 uv-s: 199
mtllib RockSmall5.mtl

g RockSmall5

v 164.113953 -15.247971 53.601925
v 150.088318 -4.401061 50.675930
v 143.104401 7.817300 49.071911
v 148.060791 21.608419 50.559986
v 151.400146 34.663147 54.192455
v 151.028564 47.256115 56.117207
v 109.344902 -15.846273 43.601563
v 107.124763 -4.170909 47.197319
v 107.185875 7.650897 52.403084
v 110.098648 21.362213 53.501564
v 113.638924 34.704441 54.427505
v 113.065453 46.281784 54.997162
v 55.989380 -19.302492 41.460213
v 54.793114 -10.614627 50.913040
v 52.372002 -4.487213 63.832352
v 46.042961 3.333468 70.806076
v 42.554199 14.108586 71.890411
v 44.067711 28.767159 63.176575
v 2.378553 -30.311520 58.970230
v 1.672865 -18.414042 71.778687
v -0.280713 -6.882612 84.204285
v -3.811150 3.608313 89.748383
v -6.250645 15.517377 85.553268
v -6.088829 30.238522 69.757095
v -57.370136 -32.112247 44.665100
v -57.155849 -21.992224 56.269714
v -57.260933 -11.603179 69.736481
v -58.345245 0.526187 74.460159
v -59.125782 13.132010 72.186172
v -59.174026 25.853523 64.651604
v -112.312737 -42.109787 59.808849
v -113.670334 -29.820866 75.378906
v -114.878403 -17.471569 84.757584
v -116.048752 -5.397670 77.077179
v -116.575226 1.558039 63.873219
v -117.556366 10.861114 61.520893
v -155.615112 -46.168861 40.321568
v -162.284943 -34.437225 48.183929
v -171.698944 -23.015913 57.261150
v -173.888367 -12.557970 56.447231
v -175.326721 -7.201333 54.543938
v -176.596069 0.901374 53.798782
v -168.354706 -47.609543 16.804277
v -171.927185 -35.511337 18.251514
v -176.185608 -23.468868 18.867636
v -174.895325 -10.875175 18.867636
v -175.076904 0.365786 18.580080
v -176.366974 11.639159 18.327436
v -170.096161 -46.799774 -15.330374
v -188.781036 -37.043129 -18.427937
v -200.757935 -25.872623 -18.867641
v -191.431213 -12.492779 -18.867641
v -175.306915 1.172215 -18.167801
v -171.181030 13.145070 -16.512783
v -155.278992 -38.367008 -28.242157
v -163.563049 -29.706215 -39.697880
v -175.291656 -22.889023 -54.913963
v -172.379547 -11.264157 -55.432751
v -149.758453 -1.960219 -44.624371
v -134.041626 10.322493 -35.225784
v -112.407249 -42.071068 -33.971039
v -120.948013 -30.532791 -53.339493
v -129.098007 -18.862585 -76.441772
v -124.778816 -5.784463 -69.677277
v -114.253128 11.626907 -53.060650
v -111.780975 26.638081 -48.628487
v -55.616295 -36.609280 -60.033886
v -62.313320 -24.796930 -83.753952
v -63.521370 -12.447635 -83.753952
v -64.729424 -0.098337 -83.753952
v -60.448517 12.787911 -60.616119
v -60.671650 25.327101 -56.491669
v 3.898098 -30.715631 -58.120850
v 2.057180 -18.465223 -56.976761
v 0.604037 -6.174648 -58.595280
v -0.604017 6.174649 -76.353317
v -1.812071 18.523949 -88.172852
v -3.020124 30.873243 -76.353317
v 65.509964 -28.584915 -79.089676
v 62.524071 -14.977612 -70.775009
v 58.644920 -0.738245 -77.333420
v 57.137184 11.823110 -88.172852
v 55.929131 24.172407 -76.353317
v 54.721077 36.521702 -58.595280
v 118.917671 -25.098980 -56.941887
v 118.026604 -14.710859 -56.602921
v 115.741432 3.230618 -56.760456
v 114.851204 17.472248 -56.981174
v 113.670334 29.820866 -56.602921
v 112.462288 42.170158 -56.602921
v 155.162323 -24.108801 -65.055206
v 148.529205 -9.250307 -65.886673
v 149.749969 6.927460 -64.110199
v 156.956604 23.788694 -61.310287
v 169.245239 35.523438 -57.245163
v 170.203491 47.818626 -56.602921
v 162.181915 -20.290140 -20.015213
v 158.404633 0.861508 -23.803587
v 154.744110 18.559860 -26.203705
v 162.882050 27.779570 -22.690132
v 171.877655 35.287827 -18.379515
v 170.667755 47.604076 -18.583452
v 171.177246 -14.815432 17.945951
v 162.794556 -2.718781 15.963331
v 158.180817 9.540586 15.253466
v 163.955658 18.074177 19.612743
v 171.910095 28.646563 23.590441
v 172.291260 43.644009 23.204060
v 112.462265 42.170158 -18.867636
v 113.352928 44.274269 18.190550
v 54.865639 36.699448 -18.888470
v 49.816704 32.979031 19.217720
v 9.715252 48.058937 -21.919909
v -3.947245 44.660625 18.813406
v -58.955944 26.484501 -18.908024
v -48.690777 32.820354 19.974640
v -118.186447 22.582373 -17.327070
v -121.745148 32.333729 22.739613
v 119.696785 -34.859226 -18.875910
v 117.779152 -21.551201 17.351034
v 63.616539 -48.686096 -21.717421
v 60.217361 -26.037144 16.695345
v 9.801544 -29.417122 -29.262888
v -1.477745 -26.437176 8.057046
v -58.154282 -44.672127 -20.688938
v -61.340824 -40.326954 5.378348
v -112.462288 -42.170158 -15.859509
v -112.529678 -42.079639 18.625307
# 128 positions

vt 0.995000 0.762250
vt 0.966190 0.784531
vt 0.877939 0.785004
vt 0.882499 0.761021
vt 0.951844 0.809629
vt 0.878064 0.809287
vt 0.962025 0.837957
vt 0.884047 0.837451
vt 0.968885 0.864773
vt 0.891319 0.864858
vt 0.968121 0.890640
vt 0.890141 0.888639
vt 0.088402 0.132010
vt 0.081016 0.136570
vt 0.073383 0.244064
vt 0.092801 0.241607
vt 0.765471 0.784354
vt 0.770444 0.771768
vt 0.752470 0.800418
vt 0.745304 0.822552
vt 0.748413 0.852662
vt 0.030523 0.353179
vt 0.056833 0.351729
vt 0.046846 0.249038
vt 0.005000 0.357192
vt 0.650065 0.800983
vt 0.657317 0.779434
vt 0.645054 0.825445
vt 0.645387 0.855684
vt 0.062380 0.474019
vt 0.086217 0.474459
vt 0.034718 0.474234
vt 0.538047 0.794652
vt 0.540274 0.769737
vt 0.536444 0.820546
vt 0.536344 0.846677
vt 0.023128 0.590105
vt 0.055111 0.587316
vt 0.540490 0.748397
vt 0.421922 0.757683
vt 0.424404 0.732316
vt 0.419518 0.782484
vt 0.418437 0.796772
vt 0.416421 0.815881
vt 0.078989 0.689964
vt 0.095139 0.676264
vt 0.305207 0.746294
vt 0.324544 0.722834
vt 0.300710 0.767776
vt 0.297755 0.778779
vt 0.295148 0.795423
vt 0.729742 0.569222
vt 0.705644 0.553071
vt 0.707850 0.614556
vt 0.732701 0.617528
vt 0.682183 0.534426
vt 0.683114 0.613290
vt 0.660702 0.536098
vt 0.657245 0.613290
vt 0.649698 0.540007
vt 0.634155 0.613881
vt 0.633055 0.541538
vt 0.610998 0.614400
vt 0.710996 0.689899
vt 0.731038 0.683536
vt 0.688051 0.690802
vt 0.660568 0.690802
vt 0.632498 0.689364
vt 0.607905 0.685965
vt 0.209454 0.706009
vt 0.215817 0.744390
vt 0.259507 0.692590
vt 0.235976 0.675573
vt 0.216720 0.768991
vt 0.290763 0.716681
vt 0.658044 0.765910
vt 0.681923 0.764845
vt 0.638933 0.743709
vt 0.442928 0.007648
vt 0.446328 0.016123
vt 0.407889 0.092411
vt 0.388584 0.060127
vt 0.287528 0.605054
vt 0.247744 0.587510
vt 0.334983 0.621795
vt 0.714681 0.941553
vt 0.708699 0.917675
vt 0.610923 0.906419
vt 0.619795 0.933283
vt 0.366382 0.013661
vt 0.371255 0.133059
vt 0.337122 0.111438
vt 0.380359 0.138137
vt 0.350003 0.484613
vt 0.301279 0.470856
vt 0.350003 0.487094
vt 0.487575 0.894739
vt 0.485094 0.920106
vt 0.589302 0.870654
vt 0.478782 0.868269
vt 0.364207 0.243120
vt 0.355735 0.243578
vt 0.468856 0.969736
vt 0.482612 0.945472
vt 0.350389 0.932466
vt 0.346608 0.957630
vt 0.353374 0.907220
vt 0.355855 0.881854
vt 0.358337 0.856487
vt 0.479240 0.842513
vt 0.360818 0.831120
vt 0.226184 0.925303
vt 0.220051 0.953253
vt 0.234152 0.896053
vt 0.237249 0.870251
vt 0.239731 0.844884
vt 0.242212 0.819518
vt 0.112176 0.924755
vt 0.110346 0.946093
vt 0.116870 0.887901
vt 0.118699 0.858647
vt 0.121125 0.833282
vt 0.123606 0.807915
vt 0.049521 0.913538
vt 0.035896 0.944059
vt 0.047014 0.880307
vt 0.032210 0.845673
vt 0.006968 0.821568
vt 0.005000 0.796313
vt 0.606021 0.006708
vt 0.636542 0.005000
vt 0.657312 0.091443
vt 0.613865 0.099225
vt 0.669772 0.008649
vt 0.693667 0.086513
vt 0.704407 0.014400
vt 0.712605 0.093730
vt 0.728511 0.022751
vt 0.728027 0.102584
vt 0.753767 0.024070
vt 0.753326 0.102165
vt 0.649958 0.173128
vt 0.625110 0.177200
vt 0.675140 0.171670
vt 0.692669 0.180624
vt 0.714386 0.188795
vt 0.745192 0.188001
vt 0.646502 0.244431
vt 0.624222 0.250441
vt 0.671600 0.241136
vt 0.699929 0.244193
vt 0.726744 0.251654
vt 0.752612 0.255608
vt 0.442074 0.718314
vt 0.363978 0.717360
vt 0.363978 0.598754
vt 0.441491 0.598754
vt 0.527910 0.721649
vt 0.517612 0.600584
vt 0.595517 0.677973
vt 0.593216 0.599993
vt 0.359886 0.480148
vt 0.441448 0.480445
vt 0.519722 0.470074
vt 0.610017 0.458265
vt 0.323409 0.361542
vt 0.435221 0.387702
vt 0.518891 0.359638
vt 0.623534 0.355239
vt 0.441407 0.246644
vt 0.521276 0.267730
vt 0.613047 0.246196
vt 0.444655 0.124979
vt 0.526956 0.117669
vt 0.606616 0.126273
vt 0.637728 0.470367
vt 0.615441 0.528888
vt 0.672614 0.513140
vt 0.746141 0.474804
vt 0.517893 0.005471
vt 0.590754 0.005000
vt 0.311594 0.037896
vt 0.219077 0.023477
vt 0.216737 0.110746
vt 0.294928 0.112346
vt 0.141101 0.005000
vt 0.142323 0.114685
vt 0.067860 0.019509
vt 0.222574 0.225940
vt 0.340422 0.222051
vt 0.143670 0.232923
vt 0.238073 0.336482
vt 0.297350 0.348608
vt 0.161414 0.359650
vt 0.220461 0.476070
vt 0.166916 0.482615
vt 0.210541 0.587623
vt 0.139706 0.587762
vt 0.143446 0.702432
# 199 texture coordinates

vn -0.135055 -0.126642 0.982711
vn -0.092783 -0.133951 0.986635
vn 0.057604 -0.428964 0.901483
vn -0.046460 -0.319708 0.946376
vn 0.042033 -0.132912 0.990236
vn 0.190005 -0.355012 0.915350
vn 0.059428 -0.154640 0.986182
vn 0.202035 -0.154171 0.967168
vn 0.014623 -0.140368 0.989991
vn 0.109117 0.032327 0.993503
vn -0.010354 -0.103051 0.994622
vn 0.056210 0.145824 0.987712
vn 0.240035 -0.667101 0.705238
vn 0.205277 -0.609469 0.765773
vn 0.290041 -0.581280 0.760256
vn 0.308494 -0.167750 0.936318
vn 0.214450 0.289847 0.932738
vn 0.125347 0.418830 0.899372
vn 0.099877 -0.755996 0.646912
vn 0.103630 -0.728009 0.677690
vn 0.082023 -0.630119 0.772155
vn 0.023393 -0.097070 0.995003
vn -0.011469 0.486032 0.873866
vn 0.000110 0.641458 0.767158
vn 0.087395 -0.742348 0.664290
vn 0.094506 -0.751207 0.653266
vn 0.042596 -0.539456 0.840936
vn -0.126033 0.140682 0.982000
vn -0.187691 0.478884 0.857579
vn -0.177423 0.524621 0.832642
vn 0.027662 -0.725006 0.688187
vn 0.044885 -0.754014 0.655324
vn -0.070594 -0.292492 0.953659
vn -0.178740 0.445582 0.877217
vn -0.196231 0.536420 0.820821
vn -0.174238 0.281672 0.943558
vn -0.278604 -0.688354 0.669738
vn -0.260459 -0.717382 0.646161
vn -0.385179 -0.290400 0.875959
vn -0.356484 0.470433 0.807225
vn -0.214410 0.397054 0.892400
vn -0.165226 0.152050 0.974465
vn -0.799255 -0.483160 0.357417
vn -0.813034 -0.528424 0.244424
vn -0.764609 -0.571674 0.297594
vn -0.748181 -0.606416 0.269230
vn -0.940544 -0.312571 0.132951
vn -0.922972 -0.200894 0.328275
vn -0.997258 -0.052538 0.052108
vn -0.961498 0.200687 0.187743
vn -0.993182 -0.114703 -0.020824
vn -0.993177 0.114894 0.019961
vn -0.990293 -0.132905 -0.040695
vn -0.998438 0.012090 -0.054546
vn -0.599749 -0.798002 -0.059112
vn -0.557591 -0.817378 -0.144861
vn -0.973193 -0.229823 -0.008748
vn -0.816792 0.575009 -0.047059
vn -0.715993 0.667376 -0.204849
vn -0.762059 0.466691 -0.448849
vn -0.284960 -0.811876 -0.509564
vn -0.205888 -0.774313 -0.598373
vn -0.719184 -0.355213 -0.597159
vn -0.540194 0.753999 -0.373734
vn -0.420162 0.753767 -0.505270
vn -0.411213 0.634601 -0.654359
vn -0.154731 -0.862943 -0.481029
vn -0.131381 -0.898989 -0.417801
vn -0.135618 -0.849237 -0.510299
vn -0.137420 -0.880748 -0.453210
vn -0.263437 -0.648087 -0.714551
vn -0.226515 -0.499130 -0.836397
vn -0.365365 0.558342 -0.744824
vn -0.262146 0.663828 -0.700437
vn -0.363319 0.805759 -0.467710
vn -0.263900 0.713210 -0.649375
vn -0.538388 0.637852 -0.550711
vn -0.247079 0.402866 -0.881278
vn 0.069687 -0.677193 -0.732498
vn 0.053003 -0.787032 -0.614631
vn 0.092906 -0.287267 -0.953334
vn -0.114535 0.432191 -0.894479
vn -0.212951 0.556956 -0.802778
vn -0.263312 0.404987 -0.875587
vn 0.050096 -0.213882 -0.975574
vn -0.051927 -0.146014 -0.987919
vn 0.097189 -0.475698 -0.874223
vn 0.010593 -0.340114 -0.940325
vn -0.120635 0.447096 -0.886314
vn -0.149278 0.651914 -0.743454
vn 0.012293 0.052426 -0.998549
vn 0.019843 0.341080 -0.939825
vn 0.094915 -0.439823 -0.893055
vn 0.173198 -0.190174 -0.966352
vn 0.140043 0.515616 -0.845298
vn 0.091602 0.675175 -0.731948
vn 0.097241 0.035571 -0.994625
vn 0.076962 0.194275 -0.977923
vn 0.154436 -0.120130 -0.980672
vn 0.188807 0.096686 -0.977243
vn 0.092534 0.340189 -0.935793
vn 0.044935 0.321651 -0.945791
vn -0.249238 -0.026760 -0.968073
vn -0.242898 -0.091230 -0.965752
vn -0.201702 0.083932 -0.975844
vn -0.110193 0.177112 -0.978002
vn -0.026641 0.077195 -0.996660
vn -0.008267 0.025967 -0.999629
vn 0.943897 0.244381 -0.222117
vn 0.961626 0.171929 -0.213814
vn 0.961741 0.219277 -0.164234
vn 0.940293 0.278375 -0.195850
vn 0.978014 -0.156332 -0.138017
vn 0.977280 -0.175037 -0.119522
vn 0.805758 -0.591603 -0.027552
vn 0.773409 -0.626091 -0.099240
vn 0.868986 -0.492951 -0.043160
vn 0.941202 -0.331238 -0.066481
vn 0.999133 0.010931 -0.040178
vn 0.999397 0.020473 -0.028056
vn 0.890976 0.448163 0.072880
vn 0.841955 0.538876 0.026924
vn 0.991569 -0.059420 0.115157
vn 0.801057 -0.584130 0.130764
vn 0.917214 -0.313849 0.245392
vn 0.963841 0.000974 0.266476
vn 0.758748 0.586716 0.282958
vn 0.676294 0.705704 0.211209
vn 0.907112 -0.033647 0.419542
vn 0.748164 -0.491054 0.446225
vn 0.802138 -0.245843 0.544184
vn 0.832925 -0.031096 0.552512
vn -0.066904 0.997649 0.014838
vn -0.095156 0.995457 0.003402
vn -0.095544 0.995425 0.000619
vn -0.092976 0.995620 0.009850
vn -0.025359 0.999559 -0.015432
vn -0.101060 0.994866 -0.005406
vn 0.001517 0.996804 -0.079877
vn -0.140894 0.989828 -0.019756
vn 0.008086 0.994124 -0.107942
vn 0.000034 0.999964 -0.008429
vn -0.016680 0.996091 0.086745
vn -0.040240 0.993352 0.107856
vn -0.113700 0.978682 -0.171039
vn -0.061301 0.994469 -0.085287
vn -0.025732 0.991328 0.128869
vn -0.028704 0.979409 0.199837
vn -0.148154 0.986070 -0.075612
vn -0.147881 0.984090 -0.098478
vn -0.148304 0.985962 0.076711
vn -0.135731 0.954987 0.263774
vn -0.083361 0.996315 -0.020197
vn -0.171351 0.972126 -0.160031
vn -0.172206 0.978864 0.110319
vn -0.191894 0.915542 0.353496
vn -0.358463 0.887287 -0.290218
vn -0.277636 0.947447 -0.158945
vn -0.281366 0.947543 0.151640
vn -0.278299 0.875652 0.394694
vn 0.183267 -0.979188 -0.087204
vn 0.200981 -0.976852 0.073252
vn 0.191135 -0.978398 0.078774
vn 0.203114 -0.955574 -0.213595
vn 0.136282 -0.977502 0.160987
vn 0.126199 -0.955349 0.267173
vn 0.057655 -0.993412 0.099039
vn 0.060640 -0.981430 0.181984
vn 0.008149 -0.999872 0.013788
vn 0.016283 -0.968323 -0.249170
vn 0.008628 -0.959313 0.282214
vn 0.085357 -0.987850 0.129873
vn -0.007366 -0.998675 0.050927
vn -0.008149 -0.987538 -0.157173
vn 0.081856 -0.989551 0.118695
vn 0.113106 -0.992876 0.037476
vn 0.103030 -0.994481 -0.019801
vn 0.093441 -0.988465 -0.119192
vn 0.123514 -0.988454 0.087772
vn 0.129268 -0.989584 0.063354
vn 0.028421 -0.998344 -0.050024
vn -0.011144 -0.982424 -0.186332
vn 0.089619 -0.995215 0.038936
vn 0.118811 -0.991294 0.056747
vn 0.071846 -0.995585 -0.060407
vn -0.007858 -0.963203 -0.268662
vn 0.091328 -0.995787 -0.008164
vn 0.095746 -0.995403 0.002527
# 188 normals

usemtl initialShadingGroup
s 1
f 1/1/1 2/2/2 8/3/3 7/4/4
f 2/2/2 3/5/5 9/6/6 8/3/3
f 3/5/5 4/7/7 10/8/8 9/6/6
f 4/7/7 5/9/9 11/10/10 10/8/8
f 5/9/9 6/11/11 12/12/12 11/10/10
f 7/13/4 8/14/3 14/15/13 13/16/14
f 8/3/3 9/6/6 15/17/15 14/18/13
f 9/6/6 10/8/8 16/19/16 15/17/15
f 10/8/8 11/10/10 17/20/17 16/19/16
f 11/10/10 12/12/12 18/21/18 17/20/17
f 13/16/14 14/15/13 20/22/19 19/23/20
f 14/15/13 15/24/15 21/25/21 20/22/19
f 15/17/15 16/19/16 22/26/22 21/27/21
f 16/19/16 17/20/17 23/28/23 22/26/22
f 17/20/17 18/21/18 24/29/24 23/28/23
f 19/23/20 20/22/19 26/30/25 25/31/26
f 20/22/19 21/25/21 27/32/27 26/30/25
f 21/27/21 22/26/22 28/33/28 27/34/27
f 22/26/22 23/28/23 29/35/29 28/33/28
f 23/28/23 24/29/24 30/36/30 29/35/29
f 25/31/26 26/30/25 32/37/31 31/38/32
f 26/39/25 27/34/27 33/40/33 32/41/31
f 27/34/27 28/33/28 34/42/34 33/40/33
f 28/33/28 29/35/29 35/43/35 34/42/34
f 29/35/29 30/36/30 36/44/36 35/43/35
f 31/38/32 32/37/31 38/45/37 37/46/38
f 32/41/31 33/40/33 39/47/39 38/48/37
f 33/40/33 34/42/34 40/49/40 39/47/39
f 34/42/34 35/43/35 41/50/41 40/49/40
f 35/43/35 36/44/36 42/51/42 41/50/41
s 2
f 37/52/43 38/53/44 44/54/45 43/55/46
f 38/53/44 39/56/47 45/57/48 44/54/45
f 39/56/47 40/58/49 46/59/50 45/57/48
f 40/58/49 41/60/51 47/61/52 46/59/50
f 41/60/51 42/62/53 48/63/54 47/61/52
f 43/55/46 44/54/45 50/64/55 49/65/56
f 44/54/45 45/57/48 51/66/57 50/64/55
f 45/57/48 46/59/50 52/67/58 51/66/57
f 46/59/50 47/61/52 53/68/59 52/67/58
f 47/61/52 48/63/54 54/69/60 53/68/59
f 49/70/56 50/71/55 56/72/61 55/73/62
f 50/71/55 51/74/57 57/75/63 56/72/61
f 51/66/57 52/67/58 58/76/64 57/77/63
f 52/67/58 53/68/59 59/78/65 58/76/64
f 53/79/59 54/80/60 60/81/66 59/82/65
s 3
f 55/73/67 56/72/68 62/83/69 61/84/70
f 56/72/68 57/75/71 63/85/72 62/83/69
f 57/86/71 58/87/73 64/88/74 63/89/72
f 58/90/73 59/82/75 65/91/76 64/92/74
f 59/82/75 60/81/77 66/93/78 65/91/76
f 61/84/70 62/83/69 68/94/79 67/95/80
f 62/83/69 63/85/72 69/96/81 68/94/79
f 63/89/72 64/88/74 70/97/82 69/98/81
f 64/88/74 65/99/76 71/100/83 70/97/82
f 65/91/76 66/93/78 72/101/84 71/102/83
f 67/103/80 68/104/79 74/105/85 73/106/86
f 68/104/79 69/98/81 75/107/87 74/105/85
f 69/98/81 70/97/82 76/108/88 75/107/87
f 70/97/82 71/100/83 77/109/89 76/108/88
f 71/100/83 72/110/84 78/111/90 77/109/89
f 73/106/86 74/105/85 80/112/91 79/113/92
f 74/105/85 75/107/87 81/114/93 80/112/91
f 75/107/87 76/108/88 82/115/94 81/114/93
f 76/108/88 77/109/89 83/116/95 82/115/94
f 77/109/89 78/111/90 84/117/96 83/116/95
f 79/113/92 80/112/91 86/118/97 85/119/98
f 80/112/91 81/114/93 87/120/99 86/118/97
f 81/114/93 82/115/94 88/121/100 87/120/99
f 82/115/94 83/116/95 89/122/101 88/121/100
f 83/116/95 84/117/96 90/123/102 89/122/101
f 85/119/98 86/118/97 92/124/103 91/125/104
f 86/118/97 87/120/99 93/126/105 92/124/103
f 87/120/99 88/121/100 94/127/106 93/126/105
f 88/121/100 89/122/101 95/128/107 94/127/106
f 89/122/101 90/123/102 96/129/108 95/128/107
s 4
f 91/130/109 92/131/110 98/132/111 97/133/112
f 92/131/110 93/134/113 99/135/114 98/132/111
f 93/134/113 94/136/115 100/137/116 99/135/114
f 94/136/115 95/138/117 101/139/118 100/137/116
f 95/138/117 96/140/119 102/141/120 101/139/118
f 97/133/112 98/132/111 104/142/121 103/143/122
f 98/132/111 99/135/114 105/144/123 104/142/121
f 99/135/114 100/137/116 106/145/124 105/144/123
f 100/137/116 101/139/118 107/146/125 106/145/124
f 101/139/118 102/141/120 108/147/126 107/146/125
f 103/143/122 104/142/121 2/148/127 1/149/128
f 104/142/121 105/144/123 3/150/129 2/148/127
f 105/144/123 106/145/124 4/151/130 3/150/129
f 106/145/124 107/146/125 5/152/131 4/151/130
f 107/146/125 108/147/126 6/153/132 5/152/131
s 5
f 102/154/133 96/155/134 90/156/135 109/157/136
f 108/158/137 102/154/133 109/157/136 110/159/138
f 6/160/139 108/158/137 110/159/138 12/161/140
f 109/157/136 90/156/135 84/162/141 111/163/142
f 110/159/138 109/157/136 111/163/142 112/164/143
f 12/161/140 110/159/138 112/164/143 18/165/144
f 111/163/142 84/162/141 78/166/145 113/167/146
f 112/164/143 111/163/142 113/167/146 114/168/147
f 18/165/144 112/164/143 114/168/147 24/169/148
f 113/167/146 78/166/145 72/101/149 115/170/150
f 114/168/147 113/167/146 115/170/150 116/171/151
f 24/169/148 114/168/147 116/171/151 30/172/152
f 115/170/150 72/101/149 66/93/153 117/173/154
f 116/171/151 115/170/150 117/173/154 118/174/155
f 30/172/152 116/171/151 118/174/155 36/175/156
f 117/176/154 66/177/153 60/178/157 54/179/158
f 118/174/155 117/173/154 54/80/158 48/180/159
f 36/175/156 118/174/155 48/180/159 42/181/160
s 6
f 91/182/161 97/183/162 119/184/163 85/185/164
f 97/183/162 103/186/165 120/187/166 119/184/163
f 103/186/165 1/188/167 7/13/168 120/187/166
f 85/185/164 119/184/163 121/189/169 79/190/170
f 119/184/163 120/187/166 122/191/171 121/189/169
f 120/187/166 7/13/168 13/16/172 122/191/171
f 79/190/170 121/189/169 123/192/173 73/193/174
f 121/189/169 122/191/171 124/194/175 123/192/173
f 122/191/171 13/16/172 19/23/176 124/194/175
f 73/193/174 123/192/173 125/195/177 67/95/178
f 123/192/173 124/194/175 126/196/179 125/195/177
f 124/194/175 19/23/176 25/31/180 126/196/179
f 67/95/178 125/195/177 127/197/181 61/84/182
f 125/195/177 126/196/179 128/198/183 127/197/181
f 126/196/179 25/31/180 31/38/184 128/198/183
f 61/84/182 127/197/181 49/70/185 55/73/186
f 127/197/181 128/198/183 43/199/187 49/70/185
f 128/198/183 31/38/184 37/46/188 43/199/187

# 126 faces
