# Wavefront Obj file
# 
# verts: 128 uv-s: 220
mtllib RockBig.mtl

g RockBig

v 408.157715 -55.975567 274.851135
v 372.731995 -22.004866 259.847687
v 354.703979 15.759090 251.622879
v 366.219299 57.653019 259.253113
v 373.763489 97.387001 277.879211
v 372.124329 135.920105 287.748596
v 272.268799 -54.686951 223.572906
v 266.094177 -18.854822 242.010651
v 265.572815 17.295263 268.703918
v 272.020874 59.061504 274.336487
v 280.047302 99.663284 279.084412
v 277.964844 135.101868 282.005371
v 140.050568 -62.218918 212.592880
v 136.587051 -35.581486 261.063538
v 130.229614 -16.704714 327.309021
v 114.077255 7.572923 363.067688
v 104.805527 40.724133 368.627808
v 107.727066 85.466972 323.946533
v 7.628799 -92.834419 302.377869
v 5.200062 -56.409256 368.054871
v -0.304787 -21.032492 431.768921
v -9.663761 11.251971 460.196960
v -16.396034 47.811287 438.685974
v -16.832621 92.822426 357.688965
v -140.549896 -94.939552 229.026382
v -140.594269 -64.002579 288.530579
v -141.446609 -32.224720 357.583252
v -144.828171 4.931163 381.804504
v -147.483017 43.526852 370.144409
v -148.327042 82.434685 331.509888
v -276.334381 -122.385872 306.677979
v -280.403290 -84.726486 386.515564
v -284.104492 -46.890961 434.606018
v -287.696503 -9.899803 395.223633
v -289.399109 11.402193 327.518616
v -292.363708 39.908810 315.456726
v -383.568909 -132.333923 206.754333
v -400.789612 -96.076324 247.069626
v -424.803162 -60.611568 293.614319
v -430.832153 -28.504322 289.440857
v -434.706909 -12.040703 279.681396
v -438.318237 12.811345 275.860535
v -415.103210 -136.014465 86.166199
v -424.658142 -98.812202 93.587112
v -435.912170 -61.741348 96.746353
v -433.427002 -23.300650 96.746353
v -434.517700 11.086910 95.271873
v -438.361206 45.636703 93.976418
v -419.471375 -133.438904 -78.608551
v -466.397888 -102.537148 -94.491722
v -496.757629 -67.693474 -96.746376
v -474.372864 -27.306126 -96.746376
v -435.134460 13.566235 -93.157860
v -425.576721 49.946831 -84.671524
v -383.178894 -108.493347 -144.815491
v -404.231018 -81.535141 -203.556244
v -433.726563 -60.018951 -281.578735
v -427.161438 -24.633472 -284.238892
v -371.551331 2.531956 -228.817520
v -333.245300 39.200211 -180.624969
v -276.571198 -122.262085 -174.191071
v -298.424133 -86.489349 -273.505432
v -319.314819 -50.335361 -391.965454
v -309.340332 -10.585638 -357.279663
v -284.209534 42.062698 -272.075684
v -278.928986 87.829247 -249.349152
v -135.941269 -108.792259 -307.831848
v -153.234131 -72.286324 -429.459778
v -156.935364 -34.450798 -429.459778
v -160.636551 3.384729 -429.459778
v -150.746109 42.549847 -310.817322
v -152.013824 80.910019 -289.668701
v 11.422939 -94.156799 -298.022522
v 6.156746 -56.587662 -292.156006
v 1.850632 -18.917765 -300.455200
v -1.850578 18.917765 -391.511963
v -5.551792 56.753292 -452.118225
v -9.253006 94.588821 -391.511963
v 164.206757 -91.148590 -405.543030
v 156.021774 -49.364590 -362.908447
v 145.583984 -5.596745 -396.537598
v 141.126968 32.904362 -452.118225
v 137.425766 70.739891 -391.511963
v 133.724548 108.575409 -300.455200
v 296.552795 -83.528709 -291.977234
v 293.749939 -51.708920 -290.239075
v 287.057129 3.289999 -291.046875
v 284.036987 46.894581 -292.178711
v 280.403259 84.726486 -290.239075
v 276.702087 122.562012 -290.239075
v 386.446472 -82.564178 -333.579407
v 369.138794 -36.746109 -337.842834
v 371.247314 12.659393 -328.733765
v 388.172424 63.814278 -314.376831
v 418.001587 99.001884 -293.532288
v 419.679565 136.548615 -290.239075
v 403.650024 -71.285576 -102.630722
v 393.071411 -6.384330 -122.056114
v 382.979187 47.949368 -134.363068
v 402.650574 75.681831 -116.346725
v 424.547974 98.131485 -94.243462
v 420.844055 135.865997 -95.289169
v 425.662415 -55.054924 92.020309
v 404.169983 -17.583551 81.854141
v 392.021790 20.170860 78.214203
v 405.867676 45.939568 100.567001
v 425.006653 77.819252 120.963165
v 425.098755 123.662910 118.981964
v 276.702026 122.561996 -96.746353
v 278.792603 128.946106 93.274506
v 134.073181 109.110779 -96.853180
v 121.754807 98.020416 98.541466
v 21.374504 146.421143 -112.397285
v -12.338886 136.806305 96.468285
v -147.821762 84.351913 -96.953453
v -122.706947 103.143806 102.422684
v -294.594788 75.790764 -88.846893
v -303.981812 105.815079 116.600449
v 299.042053 -113.421951 -96.788795
v 293.525269 -72.614037 88.969772
v 160.652283 -152.514404 -111.359009
v 150.926834 -83.055618 85.607651
v 25.999874 -90.521805 -150.049423
v -2.162151 -80.766296 41.313599
v -141.780838 -133.305664 -106.085335
v -149.936432 -119.835762 27.578209
v -276.702087 -122.562012 -81.321777
v -276.874512 -122.281326 95.503777
# 128 positions

vt 0.498053 0.529349
vt 0.477418 0.549136
vt 0.415304 0.550971
vt 0.418900 0.530100
vt 0.466917 0.571133
vt 0.415000 0.572028
vt 0.473624 0.595535
vt 0.418756 0.596356
vt 0.478019 0.618679
vt 0.423431 0.620005
vt 0.477064 0.641124
vt 0.422218 0.640647
vt 0.127922 0.094348
vt 0.117182 0.097945
vt 0.106084 0.173380
vt 0.134318 0.171362
vt 0.101634 0.098248
vt 0.067498 0.177083
vt 0.326758 0.566365
vt 0.336166 0.552224
vt 0.321357 0.585675
vt 0.323059 0.611736
vt 0.043765 0.249910
vt 0.082020 0.248495
vt 0.006653 0.253116
vt 0.254681 0.568508
vt 0.260133 0.549703
vt 0.250760 0.589803
vt 0.922830 0.438891
vt 0.896804 0.440593
vt 0.916458 0.368039
vt 0.963637 0.368294
vt 0.090086 0.334831
vt 0.124745 0.334806
vt 0.049864 0.335328
vt 0.175951 0.564826
vt 0.177921 0.543184
vt 0.174405 0.587307
vt 0.901209 0.291447
vt 0.923713 0.291939
vt 0.033012 0.416267
vt 0.079515 0.413897
vt 0.005000 0.418423
vt 0.092734 0.556187
vt 0.094826 0.534641
vt 0.091742 0.568595
vt 0.891859 0.207549
vt 0.898884 0.209276
vt 0.114236 0.486389
vt 0.137718 0.476358
vt 0.087124 0.500376
vt 0.009360 0.545351
vt 0.012872 0.526649
vt 0.007104 0.554940
vt 0.090015 0.585200
vt 0.005000 0.569416
vt 0.749777 0.683058
vt 0.728657 0.659575
vt 0.730251 0.748975
vt 0.751920 0.753298
vt 0.708000 0.632464
vt 0.708658 0.747135
vt 0.689298 0.634895
vt 0.686267 0.747135
vt 0.679709 0.640579
vt 0.666237 0.747994
vt 0.665233 0.642805
vt 0.646113 0.748748
vt 0.732421 0.858527
vt 0.750420 0.849275
vt 0.712125 0.859840
vt 0.688600 0.859840
vt 0.664793 0.857750
vt 0.643602 0.852807
vt 0.303936 0.497271
vt 0.313187 0.524604
vt 0.376715 0.488394
vt 0.342500 0.476131
vt 0.314500 0.542288
vt 0.422161 0.505574
vt 0.687044 0.969050
vt 0.707655 0.967500
vt 0.651760 0.101533
vt 0.653850 0.124388
vt 0.574832 0.161424
vt 0.542550 0.129032
vt 0.658793 0.129956
vt 0.602903 0.183736
vt 0.417458 0.426764
vt 0.359610 0.414035
vt 0.486459 0.438932
vt 0.502089 0.702406
vt 0.498265 0.681795
vt 0.429637 0.673612
vt 0.435447 0.696766
vt 0.549635 0.212299
vt 0.500005 0.197661
vt 0.562872 0.215374
vt 0.508298 0.342194
vt 0.437453 0.332121
vt 0.508298 0.344350
vt 0.343021 0.665475
vt 0.340865 0.687513
vt 0.527069 0.290038
vt 0.457962 0.284277
vt 0.539387 0.289300
vt 0.599823 0.373685
vt 0.617622 0.303881
vt 0.511798 0.363188
vt 0.515622 0.373293
vt 0.338709 0.709552
vt 0.248376 0.678466
vt 0.245867 0.700408
vt 0.250532 0.656427
vt 0.599431 0.444377
vt 0.606470 0.383706
vt 0.504372 0.428115
vt 0.515205 0.423596
vt 0.087304 0.046579
vt 0.099623 0.045841
vt 0.040302 0.128996
vt 0.005000 0.131152
vt 0.242800 0.722291
vt 0.158575 0.696200
vt 0.153807 0.720538
vt 0.164654 0.670707
vt 0.167250 0.648281
vt 0.252687 0.634389
vt 0.169406 0.626242
vt 0.719715 0.007156
vt 0.755017 0.005000
vt 0.808055 0.088281
vt 0.755017 0.090437
vt 0.078351 0.697566
vt 0.076719 0.716100
vt 0.082249 0.665530
vt 0.084009 0.640132
vt 0.086125 0.618095
vt 0.480066 0.457891
vt 0.533104 0.455736
vt 0.539055 0.539017
vt 0.539055 0.541172
vt 0.034439 0.688850
vt 0.024357 0.715538
vt 0.033211 0.660073
vt 0.023352 0.630276
vt 0.005977 0.609780
vt 0.088281 0.596057
vt 0.005000 0.587910
vt 0.508085 0.633091
vt 0.534773 0.630607
vt 0.552458 0.756298
vt 0.514654 0.767613
vt 0.563550 0.635913
vt 0.584106 0.749130
vt 0.593347 0.644276
vt 0.600259 0.759624
vt 0.613843 0.656417
vt 0.613336 0.772498
vt 0.635713 0.658336
vt 0.635315 0.771889
vt 0.545935 0.875071
vt 0.524108 0.880993
vt 0.567926 0.872951
vt 0.582935 0.885971
vt 0.601504 0.897851
vt 0.628207 0.896697
vt 0.543359 0.978748
vt 0.523572 0.987487
vt 0.565356 0.973957
vt 0.589758 0.978402
vt 0.612902 0.989251
vt 0.635347 0.995000
vt 0.652609 0.622976
vt 0.539055 0.622298
vt 0.651760 0.539017
vt 0.777417 0.625454
vt 0.762443 0.540234
vt 0.875719 0.594598
vt 0.872374 0.539752
vt 0.651698 0.455939
vt 0.765511 0.448763
vt 0.724270 0.088484
vt 0.605677 0.088281
vt 0.552639 0.005000
vt 0.715216 0.022840
vt 0.642644 0.390294
vt 0.764303 0.370657
vt 0.453464 0.813284
vt 0.290886 0.795444
vt 0.350207 0.712289
vt 0.462459 0.714731
vt 0.651639 0.291741
vt 0.767771 0.306370
vt 0.656361 0.206249
vt 0.776030 0.200782
vt 0.542169 0.081294
vt 0.448680 0.090419
vt 0.488710 0.058781
vt 0.544601 0.005000
vt 0.762852 0.122509
vt 0.868795 0.122534
vt 0.452450 0.027842
vt 0.317928 0.017822
vt 0.314525 0.078753
vt 0.428218 0.080203
vt 0.204548 0.005000
vt 0.206325 0.081967
vt 0.098054 0.015196
vt 0.323012 0.159362
vt 0.494367 0.157292
vt 0.208283 0.165027
vt 0.345548 0.237794
vt 0.431739 0.246285
vt 0.234084 0.254198
vt 0.319940 0.335523
vt 0.242084 0.340273
vt 0.305516 0.414111
vt 0.202519 0.414211
vt 0.207958 0.494726
# 220 texture coordinates

vn -0.271589 -0.208090 0.939648
vn -0.186763 -0.221881 0.957021
vn 0.060640 -0.580807 0.811780
vn -0.109468 -0.476753 0.872194
vn 0.078541 -0.217985 0.972787
vn 0.315835 -0.507964 0.801387
vn 0.116869 -0.247296 0.961866
vn 0.381033 -0.236865 0.893705
vn 0.027326 -0.234261 0.971790
vn 0.231854 0.057307 0.971061
vn -0.025120 -0.171554 0.984854
vn 0.116492 0.233926 0.965250
vn 0.336403 -0.791569 0.510149
vn 0.268506 -0.757964 0.594470
vn 0.425377 -0.714698 0.555213
vn 0.544001 -0.241044 0.803717
vn 0.393243 0.436751 0.809079
vn 0.227407 0.578855 0.783079
vn 0.115685 -0.886677 0.447684
vn 0.140949 -0.864764 0.481992
vn 0.095805 -0.777068 0.622083
vn 0.041483 -0.138139 0.989544
vn 0.005791 0.656409 0.754383
vn 0.017083 0.814136 0.580423
vn 0.109480 -0.877604 0.466718
vn 0.105746 -0.882104 0.459032
vn 0.079109 -0.749164 0.657644
vn -0.242982 0.160400 0.956677
vn -0.300527 0.652794 0.695373
vn -0.280208 0.679405 0.678153
vn 0.012986 -0.866608 0.498821
vn 0.036632 -0.886953 0.460404
vn -0.115788 -0.383484 0.916260
vn -0.286375 0.588313 0.756226
vn -0.303838 0.714443 0.630280
vn -0.315576 0.407464 0.856963
vn -0.401818 -0.797716 0.449657
vn -0.380713 -0.816175 0.434646
vn -0.595528 -0.476636 0.646657
vn -0.541356 0.581015 0.607746
vn -0.355997 0.503679 0.787130
vn -0.316604 0.234561 0.919099
vn -0.877296 -0.441731 0.187685
vn -0.872149 -0.475257 0.116131
vn -0.842634 -0.513898 0.160863
vn -0.817316 -0.559865 0.136186
vn -0.969324 -0.238257 0.060366
vn -0.967689 -0.193616 0.161525
vn -0.997878 -0.059528 0.026386
vn -0.983835 0.151064 0.096167
vn -0.993752 -0.111172 -0.009914
vn -0.996391 0.084060 0.011779
vn -0.991814 -0.126165 -0.019668
vn -0.999578 -0.012500 -0.026217
vn -0.666690 -0.743511 -0.052125
vn -0.671644 -0.739405 -0.046624
vn -0.973605 -0.227646 -0.016443
vn -0.854044 0.519146 -0.033103
vn -0.796699 0.591807 -0.122620
vn -0.907248 0.362866 -0.212672
vn -0.410833 -0.860597 -0.300981
vn -0.302041 -0.866746 -0.396891
vn -0.925617 -0.170471 -0.337895
vn -0.693365 0.682893 -0.230004
vn -0.517494 0.810043 -0.275736
vn -0.555408 0.705494 -0.440228
vn -0.224701 -0.925081 -0.306162
vn -0.199376 -0.941427 -0.271965
vn -0.196481 -0.930154 -0.310175
vn -0.206339 -0.934238 -0.290903
vn -0.346686 -0.828393 -0.439970
vn -0.374043 -0.620377 -0.689364
vn -0.487331 0.744748 -0.455915
vn -0.359887 0.774648 -0.520002
vn -0.495370 0.813512 -0.304641
vn -0.352053 0.816385 -0.457792
vn -0.676433 0.652131 -0.342290
vn -0.449937 0.571159 -0.686538
vn 0.135048 -0.802660 -0.580946
vn 0.037510 -0.910066 -0.412763
vn 0.209121 -0.389603 -0.896927
vn -0.215879 0.615330 -0.758132
vn -0.321458 0.733673 -0.598656
vn -0.407923 0.536707 -0.738610
vn 0.099431 -0.327341 -0.939660
vn -0.193886 -0.116258 -0.974111
vn 0.164564 -0.634826 -0.754927
vn 0.023553 -0.537805 -0.842740
vn -0.181523 0.583054 -0.791895
vn -0.226962 0.800120 -0.555245
vn 0.025097 0.095105 -0.995151
vn 0.037627 0.518838 -0.854044
vn 0.187876 -0.635472 -0.748917
vn 0.291099 -0.260453 -0.920557
vn 0.256926 0.685746 -0.680986
vn 0.159373 0.818989 -0.551233
vn 0.174998 0.050084 -0.983294
vn 0.159938 0.315017 -0.935513
vn 0.288037 -0.176864 -0.941145
vn 0.381064 0.153303 -0.911750
vn 0.170336 0.501115 -0.848451
vn 0.083541 0.445101 -0.891575
vn -0.470072 -0.048152 -0.881313
vn -0.458742 -0.147330 -0.876271
vn -0.390305 0.122066 -0.912558
vn -0.215425 0.276852 -0.936453
vn -0.059964 0.147038 -0.987312
vn -0.016077 0.043209 -0.998937
vn 0.969163 0.220605 -0.109805
vn 0.981978 0.157149 -0.104989
vn 0.976140 0.201670 -0.080501
vn 0.963410 0.250449 -0.095484
vn 0.990786 -0.117923 -0.066615
vn 0.992959 -0.102602 -0.059211
vn 0.867047 -0.498026 -0.014158
vn 0.836902 -0.544714 -0.053674
vn 0.903848 -0.427278 -0.022192
vn 0.964740 -0.260813 -0.035392
vn 0.999434 0.027477 -0.019440
vn 0.999287 0.035252 -0.013530
vn 0.923662 0.381475 0.036414
vn 0.871067 0.490538 0.024805
vn 0.998406 -0.041288 0.038494
vn 0.861031 -0.504825 0.061459
vn 0.960225 -0.241525 0.140118
vn 0.990970 0.019236 0.132695
vn 0.825186 0.546229 0.143881
vn 0.757526 0.643078 0.112273
vn 0.975477 -0.023116 0.218884
vn 0.855757 -0.449742 0.255758
vn 0.932712 -0.189516 0.306810
vn 0.952050 -0.011127 0.305741
vn -0.059850 0.998168 0.008831
vn -0.094633 0.995510 0.002033
vn -0.095119 0.995466 0.000351
vn -0.091723 0.995767 0.005887
vn -0.003931 0.999890 -0.014322
vn -0.102545 0.994726 -0.002378
vn 0.024780 0.998554 -0.047701
vn -0.154072 0.987996 -0.011200
vn 0.041999 0.996732 -0.069008
vn 0.030040 0.999543 -0.003285
vn 0.003811 0.998600 0.052762
vn -0.019267 0.997589 0.066678
vn -0.103280 0.989186 -0.104133
vn -0.077796 0.995432 -0.055347
vn 0.003583 0.996844 0.079311
vn -0.012707 0.992593 0.120824
vn -0.178352 0.982533 -0.053098
vn -0.167093 0.984367 -0.055686
vn -0.151539 0.987439 0.044730
vn -0.152660 0.975728 0.157006
vn -0.068374 0.997638 -0.006639
vn -0.186105 0.978014 -0.094091
vn -0.190459 0.979177 0.070263
vn -0.218507 0.951146 0.218121
vn -0.425597 0.887879 -0.174752
vn -0.328950 0.938934 -0.100971
vn -0.323738 0.942927 0.077987
vn -0.337474 0.908634 0.245958
vn 0.203917 -0.977599 -0.052127
vn 0.223939 -0.973920 0.036497
vn 0.212234 -0.975752 0.053517
vn 0.232142 -0.963852 -0.130767
vn 0.147475 -0.984284 0.097137
vn 0.136859 -0.976562 0.166122
vn 0.048498 -0.997059 0.059339
vn 0.052272 -0.993324 0.102837
vn -0.011055 -0.999899 0.008952
vn -0.009365 -0.988517 -0.150816
vn 0.005336 -0.985627 0.168853
vn 0.083309 -0.993499 0.077584
vn -0.017954 -0.999636 0.020148
vn -0.057187 -0.993558 -0.097843
vn 0.059549 -0.995357 0.075628
vn 0.117649 -0.992803 0.022382
vn 0.104090 -0.994512 -0.010546
vn 0.105798 -0.991906 -0.070209
vn 0.128225 -0.990343 0.052719
vn 0.137308 -0.989774 0.038654
vn 0.011652 -0.999523 -0.028609
vn -0.036956 -0.993420 -0.108401
vn 0.093482 -0.995332 0.023969
vn 0.125504 -0.991455 0.035577
vn 0.061226 -0.997228 -0.042281
vn -0.032525 -0.985938 -0.163916
vn 0.090210 -0.995913 -0.004515
vn 0.095364 -0.995441 0.001510
# 188 normals

usemtl initialShadingGroup
s 1
f 1/1/1 2/2/2 8/3/3 7/4/4
f 2/2/2 3/5/5 9/6/6 8/3/3
f 3/5/5 4/7/7 10/8/8 9/6/6
f 4/7/7 5/9/9 11/10/10 10/8/8
f 5/9/9 6/11/11 12/12/12 11/10/10
f 7/13/4 8/14/3 14/15/13 13/16/14
f 8/14/3 9/17/6 15/18/15 14/15/13
f 9/6/6 10/8/8 16/19/16 15/20/15
f 10/8/8 11/10/10 17/21/17 16/19/16
f 11/10/10 12/12/12 18/22/18 17/21/17
f 13/16/14 14/15/13 20/23/19 19/24/20
f 14/15/13 15/18/15 21/25/21 20/23/19
f 15/20/15 16/19/16 22/26/22 21/27/21
f 16/19/16 17/21/17 23/28/23 22/26/22
f 17/29/17 18/30/18 24/31/24 23/32/23
f 19/24/20 20/23/19 26/33/25 25/34/26
f 20/23/19 21/25/21 27/35/27 26/33/25
f 21/27/21 22/26/22 28/36/28 27/37/27
f 22/26/22 23/28/23 29/38/29 28/36/28
f 23/32/23 24/31/24 30/39/30 29/40/29
f 25/34/26 26/33/25 32/41/31 31/42/32
f 26/33/25 27/35/27 33/43/33 32/41/31
f 27/37/27 28/36/28 34/44/34 33/45/33
f 28/36/28 29/38/29 35/46/35 34/44/34
f 29/40/29 30/39/30 36/47/36 35/48/35
f 31/42/32 32/41/31 38/49/37 37/50/38
f 32/41/31 33/43/33 39/51/39 38/49/37
f 33/45/33 34/44/34 40/52/40 39/53/39
f 34/44/34 35/46/35 41/54/41 40/52/40
f 35/46/35 36/55/36 42/56/42 41/54/41
s 2
f 37/57/43 38/58/44 44/59/45 43/60/46
f 38/58/44 39/61/47 45/62/48 44/59/45
f 39/61/47 40/63/49 46/64/50 45/62/48
f 40/63/49 41/65/51 47/66/52 46/64/50
f 41/65/51 42/67/53 48/68/54 47/66/52
f 43/60/46 44/59/45 50/69/55 49/70/56
f 44/59/45 45/62/48 51/71/57 50/69/55
f 45/62/48 46/64/50 52/72/58 51/71/57
f 46/64/50 47/66/52 53/73/59 52/72/58
f 47/66/52 48/68/54 54/74/60 53/73/59
f 49/75/56 50/76/55 56/77/61 55/78/62
f 50/76/55 51/79/57 57/80/63 56/77/61
f 51/71/57 52/72/58 58/81/64 57/82/63
f 52/83/58 53/84/59 59/85/65 58/86/64
f 53/84/59 54/87/60 60/88/66 59/85/65
s 3
f 55/78/67 56/77/68 62/89/69 61/90/70
f 56/77/68 57/80/71 63/91/72 62/89/69
f 57/92/71 58/93/73 64/94/74 63/95/72
f 58/86/73 59/85/75 65/96/76 64/97/74
f 59/85/75 60/88/77 66/98/78 65/96/76
f 61/90/70 62/89/69 68/99/79 67/100/80
f 62/89/69 63/91/72 69/101/81 68/99/79
f 63/95/72 64/94/74 70/102/82 69/103/81
f 64/97/74 65/96/76 71/104/83 70/105/82
f 65/96/76 66/98/78 72/106/84 71/104/83
f 67/107/80 68/108/79 74/109/85 73/110/86
f 68/111/79 69/103/81 75/112/87 74/113/85
f 69/103/81 70/102/82 76/114/88 75/112/87
f 70/115/82 71/116/83 77/117/89 76/118/88
f 71/119/83 72/120/84 78/121/90 77/122/89
f 73/123/86 74/113/85 80/124/91 79/125/92
f 74/113/85 75/112/87 81/126/93 80/124/91
f 75/112/87 76/114/88 82/127/94 81/126/93
f 76/114/88 77/128/89 83/129/95 82/127/94
f 77/130/89 78/131/90 84/132/96 83/133/95
f 79/125/92 80/124/91 86/134/97 85/135/98
f 80/124/91 81/126/93 87/136/99 86/134/97
f 81/126/93 82/127/94 88/137/100 87/136/99
f 82/127/94 83/129/95 89/138/101 88/137/100
f 83/139/95 84/140/96 90/141/102 89/142/101
f 85/135/98 86/134/97 92/143/103 91/144/104
f 86/134/97 87/136/99 93/145/105 92/143/103
f 87/136/99 88/137/100 94/146/106 93/145/105
f 88/137/100 89/138/101 95/147/107 94/146/106
f 89/138/101 90/148/102 96/149/108 95/147/107
s 4
f 91/150/109 92/151/110 98/152/111 97/153/112
f 92/151/110 93/154/113 99/155/114 98/152/111
f 93/154/113 94/156/115 100/157/116 99/155/114
f 94/156/115 95/158/117 101/159/118 100/157/116
f 95/158/117 96/160/119 102/161/120 101/159/118
f 97/153/112 98/152/111 104/162/121 103/163/122
f 98/152/111 99/155/114 105/164/123 104/162/121
f 99/155/114 100/157/116 106/165/124 105/164/123
f 100/157/116 101/159/118 107/166/125 106/165/124
f 101/159/118 102/161/120 108/167/126 107/166/125
f 103/163/122 104/162/121 2/168/127 1/169/128
f 104/162/121 105/164/123 3/170/129 2/168/127
f 105/164/123 106/165/124 4/171/130 3/170/129
f 106/165/124 107/166/125 5/172/131 4/171/130
f 107/166/125 108/167/126 6/173/132 5/172/131
s 5
f 102/174/133 96/175/134 90/141/135 109/176/136
f 108/177/137 102/174/133 109/176/136 110/178/138
f 6/179/139 108/177/137 110/178/138 12/180/140
f 109/176/136 90/141/135 84/140/141 111/181/142
f 110/178/138 109/176/136 111/181/142 112/182/143
f 12/180/140 110/178/138 112/182/143 18/30/144
f 111/183/142 84/184/141 78/185/145 113/186/146
f 112/182/143 111/181/142 113/187/146 114/188/147
f 18/30/144 112/182/143 114/188/147 24/31/148
f 113/189/146 78/190/145 72/191/149 115/192/150
f 114/188/147 113/187/146 115/193/150 116/194/151
f 24/31/148 114/188/147 116/194/151 30/39/152
f 115/193/150 72/106/149 66/98/153 117/195/154
f 116/194/151 115/193/150 117/195/154 118/196/155
f 30/39/152 116/194/151 118/196/155 36/47/156
f 117/197/154 66/198/153 60/199/157 54/200/158
f 118/196/155 117/195/154 54/87/158 48/201/159
f 36/47/156 118/196/155 48/201/159 42/202/160
s 6
f 91/203/161 97/204/162 119/205/163 85/206/164
f 97/204/162 103/207/165 120/208/166 119/205/163
f 103/207/165 1/209/167 7/13/168 120/208/166
f 85/206/164 119/205/163 121/210/169 79/211/170
f 119/205/163 120/208/166 122/212/171 121/210/169
f 120/208/166 7/13/168 13/16/172 122/212/171
f 79/211/170 121/210/169 123/213/173 73/214/174
f 121/210/169 122/212/171 124/215/175 123/213/173
f 122/212/171 13/16/172 19/24/176 124/215/175
f 73/214/174 123/213/173 125/216/177 67/100/178
f 123/213/173 124/215/175 126/217/179 125/216/177
f 124/215/175 19/24/176 25/34/180 126/217/179
f 67/100/178 125/216/177 127/218/181 61/90/182
f 125/216/177 126/217/179 128/219/183 127/218/181
f 126/217/179 25/34/180 31/42/184 128/219/183
f 61/90/182 127/218/181 49/75/185 55/78/186
f 127/218/181 128/219/183 43/220/187 49/75/185
f 128/219/183 31/42/184 37/50/188 43/220/187

# 126 faces
